{
.appVersion = "3414";
.formatVersion = 3;
DisplayStrings = (
"/ampersand_ampersand.liga.ss03  & &&"
);
axes = (
{
name = Weight;
tag = wght;
}
);
classes = (
{

glyphs = (
{
glyphname = A;
lastChange = "2025-02-08 14:44:40 +0000";
layers = (
{
anchors = (
{
name = bottom;
pos = (598,0);
},
{
name = ogonek;
pos = (1086,0);
},
{
name = top;
pos = (600,1374);
},
{
name = topleft;
pos = (361,1374);
}
);
layerId = "4B7A3BAF-EAD8-4024-9BEA-BB1DE86CFCFA";
shapes = (
{
closed = 1;
nodes = (
(873,0,l),
(1224,0,l),
(800,1374,l),
(402,1374,l),
(-22,0,l),
(321,0,l),
(394,295,l),
(800,295,l)
);
},
{
closed = 1;
nodes = (
(596,1139,l),
(746,533,l),
(446,533,l)
);
}
);
width = 1200;
},
{
anchors = (
{
name = bottom;
pos = (595,0);
},
{
name = ogonek;
pos = (1100,0);
},
{
name = top;
pos = (600,1374);
},
{
name = topleft;
pos = (406,1374);
}
);
layerId = "B67F0F2D-EC95-4CB8-966E-23AE86958A69";
shapes = (
{
closed = 1;
nodes = (
(1008,0,l),
(1140,0,l),
(684,1374,l),
(515,1374,l),
(60,0,l),
(180,0,l),
(301,367,l),
(887,367,l)
);
},
{
closed = 1;
nodes = (
(596,1255,l),
(845,483,l),
(344,483,l)
);
}
);
width = 1200;
}
);
tags = (
upper
);
unicode = 65;
},
{
glyphname = AE;
lastChange = "2025-02-08 14:44:40 +0000";
layers = (
{
anchors = (
{
name = bottom;
pos = (600,0);
},
{
name = top;
pos = (701,1374);
}
);
layerId = "4B7A3BAF-EAD8-4024-9BEA-BB1DE86CFCFA";
shapes = (
{
closed = 1;
nodes = (
(676,0,l),
(1206,0,l),
(1206,222,l),
(909,222,l),
(838,585,l),
(1112,585,l),
(1112,807,l),
(798,807,l),
(732,1153,l),
(1096,1153,l),
(1130,1374,l),
(325,1374,l),
(-24,0,l),
(290,0,l),
(345,302,l),
(627,302,l)
);
},
{
closed = 1;
nodes = (
(490,1155,l),
(593,525,l),
(382,525,l)
);
}
);
width = 1200;
},
{
anchors = (
{
name = bottom;
pos = (600,0);
},
{
name = top;
pos = (729,1374);
}
);
layerId = "B67F0F2D-EC95-4CB8-966E-23AE86958A69";
shapes = (
{
closed = 1;
nodes = (
(749,0,l),
(1218,0,l),
(1218,117,l),
(861,117,l),
(748,639,l),
(1115,639,l),
(1115,756,l),
(725,756,l),
(613,1257,l),
(1116,1257,l),
(1133,1374,l),
(396,1374,l),
(-24,0,l),
(112,0,l),
(224,365,l),
(669,365,l)
);
},
{
closed = 1;
nodes = (
(478,1262,l),
(638,487,l),
(272,487,l)
);
}
);
width = 1200;
}
);
tags = (
upper
);
unicode = 198;
},
{
glyphname = B;
lastChange = "2025-02-08 14:44:40 +0000";
layers = (
{
anchors = (
{
name = bottom;
pos = (600,0);
},
{
name = top;
pos = (600,1374);
}
);
layerId = "4B7A3BAF-EAD8-4024-9BEA-BB1DE86CFCFA";
shapes = (
{
closed = 1;
nodes = (
(804,268,o),
(690,239,o),
(561,239,cs),
(440,239,l),
(440,607,l),
(575,607,ls),
(713,607,o),
(804,559,o),
(804,416,cs)
);
},
{
closed = 1;
nodes = (
(752,874,o),
(692,827,o),
(551,827,cs),
(440,827,l),
(440,1142,l),
(541,1142,ls),
(684,1142,o),
(752,1097,o),
(752,990,cs)
);
},
{
closed = 1;
nodes = (
(1142,622,o),
(977,704,o),
(828,728,c),
(965,762,o),
(1082,860,o),
(1082,1023,cs),
(1082,1291,o),
(836,1374,o),
(551,1374,cs),
(112,1374,l),
(112,0,l),
(572,0,ls),
(872,0,o),
(1142,85,o),
(1142,403,cs)
);
}
);
width = 1200;
},
{
anchors = (
{
name = bottom;
pos = (600,0);
},
{
name = top;
pos = (600,1374);
}
);
layerId = "B67F0F2D-EC95-4CB8-966E-23AE86958A69";
shapes = (
{
closed = 1;
nodes = (
(923,158,o),
(740,115,o),
(603,115,cs),
(344,115,l),
(344,658,l),
(609,658,ls),
(775,658,o),
(923,604,o),
(923,377,cs)
);
},
{
closed = 1;
nodes = (
(868,853,o),
(768,779,o),
(599,779,cs),
(344,779,l),
(344,1262,l),
(580,1262,ls),
(753,1262,o),
(868,1198,o),
(868,1027,cs)
);
},
{
closed = 1;
nodes = (
(1060,625,o),
(897,701,o),
(744,728,c),
(874,756,o),
(1000,849,o),
(1000,1029,cs),
(1000,1299,o),
(754,1374,o),
(526,1374,cs),
(217,1374,l),
(217,0,l),
(560,0,ls),
(799,0,o),
(1060,95,o),
(1060,389,cs)
);
}
);
width = 1200;
}
);
tags = (
upper
);
unicode = 66;
},
{
glyphname = C;
lastChange = "2025-02-08 14:44:40 +0000";
layers = (
{
anchors = (
{
name = bottom;
pos = (704,0);
},
{
name = top;
pos = (722,1374);
}
);
layerId = "4B7A3BAF-EAD8-4024-9BEA-BB1DE86CFCFA";
shapes = (
{
closed = 1;
nodes = (
(349,1409,o),
(68,1150,o),
(68,690,cs),
(68,218,o),
(335,-34,o),
(712,-34,cs),
(926,-34,o),
(1074,49,o),
(1179,152,c),
(1030,342,l),
(952,280,o),
(868,219,o),
(730,219,cs),
(541,219,o),
(407,361,o),
(407,690,cs),
(407,1025,o),
(549,1166,o),
(724,1166,cs),
(831,1166,o),
(923,1127,o),
(1000,1065,c),
(1161,1259,l),
(1046,1354,o),
(915,1409,o),
(716,1409,cs)
);
}
);
width = 1200;
},
{
anchors = (
{
name = bottom;
pos = (698,0);
},
{
name = top;
pos = (734,1374);
}
);
layerId = "B67F0F2D-EC95-4CB8-966E-23AE86958A69";
shapes = (
{
closed = 1;
nodes = (
(411,1393,o),
(144,1151,o),
(144,687,cs),
(144,229,o),
(403,-20,o),
(726,-20,cs),
(917,-20,o),
(1044,44,o),
(1122,119,c),
(1050,211,l),
(978,151,o),
(882,98,o),
(724,98,cs),
(476,98,o),
(277,254,o),
(277,687,cs),
(277,1132,o),
(489,1277,o),
(730,1277,cs),
(835,1277,o),
(933,1251,o),
(1023,1175,c),
(1101,1264,l),
(994,1349,o),
(890,1393,o),
(716,1393,cs)
);
}
);
width = 1200;
}
);
tags = (
upper
);
unicode = 67;
},
{
glyphname = D;
lastChange = "2025-02-08 14:44:40 +0000";
layers = (
{
anchors = (
{
name = bottom;
pos = (600,0);
},
{
name = center;
pos = (600,688);
},
{
name = top;
pos = (574,1374);
}
);
layerId = "4B7A3BAF-EAD8-4024-9BEA-BB1DE86CFCFA";
shapes = (
{
closed = 1;
nodes = (
(809,334,o),
(684,237,o),
(502,237,cs),
(432,237,l),
(432,1136,l),
(502,1136,ls),
(676,1136,o),
(809,1061,o),
(809,694,cs)
);
},
{
closed = 1;
nodes = (
(1149,1261,o),
(809,1374,o),
(454,1374,cs),
(104,1374,l),
(104,0,l),
(478,0,ls),
(823,0,o),
(1149,135,o),
(1149,694,cs)
);
}
);
width = 1200;
},
{
anchors = (
{
name = bottom;
pos = (600,0);
},
{
name = center;
pos = (600,688);
},
{
name = top;
pos = (565,1374);
}
);
layerId = "B67F0F2D-EC95-4CB8-966E-23AE86958A69";
shapes = (
{
closed = 1;
nodes = (
(953,211,o),
(707,110,o),
(505,110,cs),
(313,110,l),
(313,1261,l),
(502,1261,ls),
(696,1261,o),
(953,1205,o),
(953,694,cs)
);
},
{
closed = 1;
nodes = (
(1092,1266,o),
(775,1374,o),
(463,1374,cs),
(186,1374,l),
(186,0,l),
(484,0,ls),
(752,0,o),
(1092,113,o),
(1092,694,cs)
);
}
);
width = 1200;
}
);
tags = (
upper
);
unicode = 68;
},
{
glyphname = Eth;
lastChange = "2025-02-08 14:44:40 +0000";
layers = (
{
layerId = "4B7A3BAF-EAD8-4024-9BEA-BB1DE86CFCFA";
shapes = (
{
closed = 1;
nodes = (
(19,799,l),
(19,601,l),
(697,601,l),
(697,799,l)
);
},
{
alignment = -1;
pos = (26,0);
ref = D;
}
);
width = 1200;
},
{
layerId = "B67F0F2D-EC95-4CB8-966E-23AE86958A69";
shapes = (
{
closed = 1;
nodes = (
(47,763,l),
(47,649,l),
(669,649,l),
(669,763,l)
);
},
{
alignment = -1;
pos = (17,0);
ref = D;
}
);
width = 1200;
}
);
tags = (
upper
);
unicode = 208;
},
{
glyphname = E;
lastChange = "2025-02-08 14:44:40 +0000";
layers = (
{
anchors = (
{
name = bottom;
pos = (640,0);
},
{
name = ogonek;
pos = (954,0);
},
{
name = top;
pos = (640,1374);
},
{
name = topleft;
pos = (166,1374);
}
);
layerId = "4B7A3BAF-EAD8-4024-9BEA-BB1DE86CFCFA";
shapes = (
{
closed = 1;
nodes = (
(1059,1140,l),
(1092,1374,l),
(186,1374,l),
(186,0,l),
(1093,0,l),
(1093,235,l),
(514,235,l),
(514,583,l),
(994,583,l),
(994,813,l),
(514,813,l),
(514,1140,l)
);
}
);
width = 1200;
},
{
anchors = (
{
name = bottom;
pos = (654,0);
},
{
name = ogonek;
pos = (957,0);
},
{
name = top;
pos = (643,1374);
},
{
name = topleft;
pos = (250,1374);
}
);
layerId = "B67F0F2D-EC95-4CB8-966E-23AE86958A69";
shapes = (
{
closed = 1;
nodes = (
(999,1260,l),
(1016,1374,l),
(270,1374,l),
(270,0,l),
(1039,0,l),
(1039,111,l),
(398,111,l),
(398,640,l),
(918,640,l),
(918,757,l),
(398,757,l),
(398,1260,l)
);
}
);
width = 1200;
}
);
tags = (
upper
);
unicode = 69;
},
{
glyphname = F;
lastChange = "2025-02-08 14:44:40 +0000";
layers = (
{
anchors = (
{
name = bottom;
pos = (600,0);
},
{
name = top;
pos = (600,1374);
}
);
layerId = "4B7A3BAF-EAD8-4024-9BEA-BB1DE86CFCFA";
shapes = (
{
closed = 1;
nodes = (
(1093,1140,l),
(1127,1374,l),
(216,1374,l),
(216,0,l),
(545,0,l),
(545,544,l),
(1031,544,l),
(1031,779,l),
(545,779,l),
(545,1140,l)
);
}
);
width = 1200;
},
{
anchors = (
{
name = bottom;
pos = (600,0);
},
{
name = top;
pos = (600,1374);
}
);
layerId = "B67F0F2D-EC95-4CB8-966E-23AE86958A69";
shapes = (
{
closed = 1;
nodes = (
(1059,1260,l),
(1076,1374,l),
(295,1374,l),
(295,0,l),
(421,0,l),
(421,632,l),
(977,632,l),
(977,743,l),
(421,743,l),
(421,1260,l)
);
}
);
width = 1200;
}
);
tags = (
upper
);
unicode = 70;
},
{
glyphname = G;
lastChange = "2025-02-08 14:44:40 +0000";
layers = (
{
anchors = (
{
name = bottom;
pos = (654,0);
},
{
name = top;
pos = (660,1374);
}
);
layerId = "4B7A3BAF-EAD8-4024-9BEA-BB1DE86CFCFA";
shapes = (
{
closed = 1;
nodes = (
(839,-34,o),
(996,19,o),
(1136,105,c),
(1136,789,l),
(620,789,l),
(652,559,l),
(826,559,l),
(826,247,l),
(778,222,o),
(719,206,o),
(654,206,cs),
(470,206,o),
(383,329,o),
(383,688,cs),
(383,1031,o),
(519,1170,o),
(705,1170,cs),
(803,1170,o),
(873,1135,o),
(958,1061,c),
(1130,1239,l),
(1021,1341,o),
(890,1409,o),
(689,1409,cs),
(329,1409,o),
(45,1158,o),
(45,690,cs),
(45,218,o),
(257,-34,o),
(651,-34,cs)
);
}
);
width = 1200;
},
{
anchors = (
{
name = bottom;
pos = (663,0);
},
{
name = top;
pos = (660,1374);
}
);
layerId = "B67F0F2D-EC95-4CB8-966E-23AE86958A69";
shapes = (
{
closed = 1;
nodes = (
(817,-20,o),
(940,32,o),
(1060,94,c),
(1060,741,l),
(611,741,l),
(629,622,l),
(928,622,l),
(928,172,l),
(839,123,o),
(744,98,o),
(640,98,cs),
(383,98,o),
(245,277,o),
(245,688,cs),
(245,1135,o),
(454,1275,o),
(657,1275,cs),
(775,1275,o),
(871,1239,o),
(955,1159,c),
(1040,1247,l),
(932,1346,o),
(834,1393,o),
(661,1393,cs),
(383,1393,o),
(105,1162,o),
(105,687,cs),
(105,211,o),
(314,-20,o),
(620,-20,cs)
);
}
);
width = 1200;
}
);
tags = (
upper
);
unicode = 71;
},
{
glyphname = H;
lastChange = "2025-02-08 14:44:40 +0000";
layers = (
{
anchors = (
{
name = bottom;
pos = (600,0);
},
{
name = bottomright;
pos = (1116,0);
},
{
name = center;
pos = (600,688);
},
{
name = top;
pos = (600,1374);
},
{
name = topleft;
pos = (84,1374);
}
);
layerId = "4B7A3BAF-EAD8-4024-9BEA-BB1DE86CFCFA";
shapes = (
{
closed = 1;
nodes = (
(1096,0,l),
(1096,1374,l),
(768,1374,l),
(768,848,l),
(432,848,l),
(432,1374,l),
(104,1374,l),
(104,0,l),
(432,0,l),
(432,578,l),
(768,578,l),
(768,0,l)
);
}
);
width = 1200;
},
{
anchors = (
{
name = bottom;
pos = (600,0);
},
{
name = bottomright;
pos = (1034,0);
},
{
name = center;
pos = (600,688);
},
{
name = top;
pos = (600,1374);
},
{
name = topleft;
pos = (166,1374);
}
);
layerId = "B67F0F2D-EC95-4CB8-966E-23AE86958A69";
shapes = (
{
closed = 1;
nodes = (
(1014,0,l),
(1014,1374,l),
(887,1374,l),
(887,778,l),
(313,778,l),
(313,1374,l),
(186,1374,l),
(186,0,l),
(313,0,l),
(313,674,l),
(887,674,l),
(887,0,l)
);
}
);
width = 1200;
}
);
tags = (
upper
);
unicode = 72;
},
{
glyphname = Hbar;
lastChange = "2025-02-08 14:44:40 +0000";
layers = (
{
layerId = "4B7A3BAF-EAD8-4024-9BEA-BB1DE86CFCFA";
shapes = (
{
closed = 1;
nodes = (
(759,1374,l),
(759,843,l),
(441,843,l),
(441,1374,l),
(113,1374,l),
(113,0,l),
(441,0,l),
(441,588,l),
(759,588,l),
(759,0,l),
(1087,0,l),
(1087,1374,l)
);
},
{
closed = 1;
nodes = (
(4,1173,l),
(4,991,l),
(1196,991,l),
(1196,1173,l)
);
}
);
width = 1200;
},
{
layerId = "B67F0F2D-EC95-4CB8-966E-23AE86958A69";
shapes = (
{
closed = 1;
nodes = (
(891,1374,l),
(891,781,l),
(309,781,l),
(309,1374,l),
(181,1374,l),
(181,0,l),
(309,0,l),
(309,670,l),
(891,670,l),
(891,0,l),
(1019,0,l),
(1019,1374,l)
);
},
{
closed = 1;
nodes = (
(4,1141,l),
(4,1023,l),
(1196,1023,l),
(1196,1141,l)
);
}
);
width = 1200;
}
);
tags = (
upper
);
unicode = 294;
},
{
glyphname = I;
lastChange = "2025-02-08 14:44:40 +0000";
layers = (
{
anchors = (
{
name = bottom;
pos = (600,0);
},
{
name = ogonek;
pos = (784,0);
},
{
name = top;
pos = (600,1374);
},
{
name = topleft;
pos = (130,1374);
}
);
layerId = "4B7A3BAF-EAD8-4024-9BEA-BB1DE86CFCFA";
shapes = (
{
closed = 1;
nodes = (
(150,1374,l),
(150,1134,l),
(436,1134,l),
(436,241,l),
(150,241,l),
(150,0,l),
(1050,0,l),
(1050,241,l),
(764,241,l),
(764,1134,l),
(1050,1134,l),
(1050,1374,l)
);
}
);
width = 1200;
},
{
anchors = (
{
name = bottom;
pos = (600,0);
},
{
name = ogonek;
pos = (685,0);
},
{
name = top;
pos = (600,1374);
},
{
name = topleft;
pos = (203,1374);
}
);
layerId = "B67F0F2D-EC95-4CB8-966E-23AE86958A69";
shapes = (
{
closed = 1;
nodes = (
(223,1374,l),
(223,1265,l),
(535,1265,l),
(535,109,l),
(223,109,l),
(223,0,l),
(977,0,l),
(977,109,l),
(665,109,l),
(665,1265,l),
(977,1265,l),
(977,1374,l)
);
}
);
width = 1200;
}
);
tags = (
upper
);
unicode = 73;
},
{
glyphname = IJ;
lastChange = "2025-02-08 14:44:40 +0000";
layers = (
{
layerId = "4B7A3BAF-EAD8-4024-9BEA-BB1DE86CFCFA";
shapes = (
{
closed = 1;
nodes = (
(400,-364,l),
(926,-279,o),
(1113,-36,o),
(1113,337,cs),
(1113,1374,l),
(16,1374,l),
(16,1172,l),
(162,1172,l),
(162,203,l),
(16,203,l),
(16,0,l),
(570,0,l),
(570,203,l),
(464,203,l),
(464,1172,l),
(797,1172,l),
(797,324,ls),
(797,58,o),
(730,-80,o),
(363,-143,c)
);
}
);
width = 1200;
},
{
layerId = "B67F0F2D-EC95-4CB8-966E-23AE86958A69";
shapes = (
{
closed = 1;
nodes = (
(412,-244,l),
(946,-207,o),
(1051,95,o),
(1051,386,cs),
(1051,1374,l),
(25,1374,l),
(25,1248,l),
(241,1248,l),
(241,125,l),
(25,125,l),
(25,0,l),
(558,0,l),
(558,125,l),
(382,125,l),
(382,1248,l),
(918,1248,l),
(918,404,ls),
(918,98,o),
(814,-109,o),
(397,-141,c)
);
}
);
width = 1200;
}
);
tags = (
upper
);
unicode = 306;
},
{
glyphname = J;
lastChange = "2025-02-08 14:44:40 +0000";
layers = (
{
anchors = (
{
name = bottom;
pos = (600,0);
},
{
name = top;
pos = (704,1374);
}
);
layerId = "4B7A3BAF-EAD8-4024-9BEA-BB1DE86CFCFA";
shapes = (
{
closed = 1;
nodes = (
(301,1374,l),
(301,1134,l),
(727,1134,l),
(727,491,ls),
(727,302,o),
(619,214,o),
(477,214,cs),
(371,214,o),
(297,237,o),
(203,301,c),
(78,99,l),
(199,17,o),
(319,-30,o),
(497,-30,cs),
(851,-30,o),
(1054,173,o),
(1054,495,cs),
(1054,1374,l)
);
}
);
width = 1200;
},
{
anchors = (
{
name = bottom;
pos = (600,0);
},
{
name = top;
pos = (698,1374);
}
);
layerId = "B67F0F2D-EC95-4CB8-966E-23AE86958A69";
shapes = (
{
closed = 1;
nodes = (
(445,1374,l),
(445,1262,l),
(848,1262,l),
(848,459,ls),
(848,238,o),
(740,95,o),
(534,95,cs),
(459,95,o),
(354,113,o),
(228,192,c),
(165,103,l),
(271,21,o),
(408,-21,o),
(531,-21,cs),
(896,-21,o),
(975,243,o),
(975,445,cs),
(975,1374,l)
);
}
);
width = 1200;
}
);
tags = (
upper
);
unicode = 74;
},
{
glyphname = K;
lastChange = "2025-02-08 14:44:40 +0000";
layers = (
{
anchors = (
{
name = bottom;
pos = (601,0);
},
{
name = top;
pos = (601,1374);
}
);
layerId = "4B7A3BAF-EAD8-4024-9BEA-BB1DE86CFCFA";
shapes = (
{
closed = 1;
nodes = (
(446,1374,l),
(118,1374,l),
(118,0,l),
(446,0,l)
);
},
{
closed = 1;
nodes = (
(837,0,l),
(1217,0,l),
(787,758,l),
(1179,1374,l),
(835,1374,l),
(456,734,l)
);
}
);
width = 1200;
},
{
anchors = (
{
name = bottom;
pos = (658,0);
},
{
name = top;
pos = (669,1374);
}
);
layerId = "B67F0F2D-EC95-4CB8-966E-23AE86958A69";
shapes = (
{
closed = 1;
nodes = (
(364,1374,l),
(237,1374,l),
(237,0,l),
(364,0,l)
);
},
{
closed = 1;
nodes = (
(993,0,l),
(1160,0,l),
(541,741,l),
(1122,1374,l),
(965,1374,l),
(374,734,l)
);
}
);
width = 1200;
}
);
tags = (
upper
);
unicode = 75;
},
{
glyphname = L;
lastChange = "2025-02-08 14:44:40 +0000";
layers = (
{
anchors = (
{
name = bottom;
pos = (635,0);
},
{
name = center;
pos = (932,764);
},
{
name = top;
pos = (350,1374);
},
{
name = topright;
pos = (614,1374);
}
);
layerId = "4B7A3BAF-EAD8-4024-9BEA-BB1DE86CFCFA";
shapes = (
{
closed = 1;
nodes = (
(1081,0,l),
(1115,259,l),
(514,259,l),
(514,1374,l),
(186,1374,l),
(186,0,l)
);
}
);
width = 1200;
},
{
anchors = (
{
name = bottom;
pos = (671,0);
},
{
name = center;
pos = (946,756);
},
{
name = top;
pos = (362,1374);
},
{
name = topright;
pos = (524,1374);
}
);
layerId = "B67F0F2D-EC95-4CB8-966E-23AE86958A69";
shapes = (
{
closed = 1;
nodes = (
(1045,0,l),
(1061,124,l),
(424,124,l),
(424,1374,l),
(296,1374,l),
(296,0,l)
);
}
);
width = 1200;
}
);
tags = (
upper
);
unicode = 76;
},
{
glyphname = Lslash;
lastChange = "2025-02-08 14:44:40 +0000";
layers = (
{
layerId = "4B7A3BAF-EAD8-4024-9BEA-BB1DE86CFCFA";
shapes = (
{
closed = 1;
nodes = (
(900,876,l),
(791,1047,l),
(18,571,l),
(125,397,l)
);
},
{
alignment = -1;
pos = (29,0);
ref = L;
}
);
width = 1200;
},
{
layerId = "B67F0F2D-EC95-4CB8-966E-23AE86958A69";
shapes = (
{
closed = 1;
nodes = (
(827,896,l),
(763,990,l),
(100,579,l),
(161,484,l)
);
},
{
alignment = -1;
pos = (-13,0);
ref = L;
}
);
width = 1200;
}
);
tags = (
upper
);
unicode = 321;
},
{
glyphname = M;
lastChange = "2025-02-08 14:44:40 +0000";
layers = (
{
anchors = (
{
name = bottom;
pos = (600,0);
},
{
name = bottomright;
pos = (1231,0);
},
{
name = top;
pos = (600,1374);
}
);
layerId = "4B7A3BAF-EAD8-4024-9BEA-BB1DE86CFCFA";
shapes = (
{
closed = 1;
nodes = (
(750,1374,l),
(604,487,l),
(450,1374,l),
(113,1374,l),
(35,0,l),
(316,0,l),
(326,581,ls),
(330,801,o),
(323,920,o),
(307,1095,c),
(475,234,l),
(723,234,l),
(879,1095,l),
(865,913,o),
(856,805,o),
(862,585,cs),
(879,0,l),
(1165,0,l),
(1087,1374,l)
);
}
);
width = 1200;
},
{
anchors = (
{
name = bottom;
pos = (600,0);
},
{
name = bottomright;
pos = (1090,0);
},
{
name = top;
pos = (600,1374);
}
);
layerId = "B67F0F2D-EC95-4CB8-966E-23AE86958A69";
shapes = (
{
closed = 1;
nodes = (
(837,1374,l),
(604,417,l),
(360,1374,l),
(147,1374,l),
(69,0,l),
(197,0,l),
(242,760,ls),
(251,918,o),
(249,1203,o),
(250,1251,c),
(523,250,l),
(675,250,l),
(930,1251,l),
(932,1203,o),
(937,940,o),
(949,757,cs),
(1000,0,l),
(1131,0,l),
(1053,1374,l)
);
}
);
width = 1200;
}
);
tags = (
upper
);
unicode = 77;
},
{
glyphname = N;
lastChange = "2025-02-08 14:44:40 +0000";
layers = (
{
anchors = (
{
name = bottom;
pos = (600,0);
},
{
name = top;
pos = (619,1374);
}
);
layerId = "4B7A3BAF-EAD8-4024-9BEA-BB1DE86CFCFA";
shapes = (
{
closed = 1;
nodes = (
(1096,0,l),
(1096,1374,l),
(817,1374,l),
(817,851,ls),
(817,604,o),
(845,403,o),
(867,277,c),
(513,1374,l),
(104,1374,l),
(104,0,l),
(383,0,l),
(383,515,ls),
(383,757,o),
(351,985,o),
(333,1104,c),
(698,0,l)
);
}
);
width = 1200;
},
{
anchors = (
{
name = bottom;
pos = (600,0);
},
{
name = top;
pos = (591,1374);
}
);
layerId = "B67F0F2D-EC95-4CB8-966E-23AE86958A69";
shapes = (
{
closed = 1;
nodes = (
(1014,0,l),
(1014,1374,l),
(888,1374,l),
(888,638,ls),
(888,391,o),
(907,163,o),
(903,127,c),
(369,1374,l),
(186,1374,l),
(186,0,l),
(312,0,l),
(312,740,ls),
(312,944,o),
(294,1197,o),
(297,1239,c),
(817,0,l)
);
}
);
width = 1200;
}
);
tags = (
upper
);
unicode = 78;
},
{
glyphname = O;
lastChange = "2025-02-08 14:44:40 +0000";
layers = (
{
anchors = (
{
name = bottom;
pos = (600,0);
},
{
name = top;
pos = (600,1374);
},
{
name = topleft;
pos = (189,1374);
}
);
layerId = "4B7A3BAF-EAD8-4024-9BEA-BB1DE86CFCFA";
shapes = (
{
closed = 1;
nodes = (
(1155,1133,o),
(963,1409,o),
(600,1409,cs),
(237,1409,o),
(45,1123,o),
(45,688,cs),
(45,242,o),
(237,-34,o),
(600,-34,cs),
(963,-34,o),
(1155,252,o),
(1155,688,cs)
);
},
{
closed = 1;
nodes = (
(819,355,o),
(760,206,o),
(600,206,cs),
(446,206,o),
(381,351,o),
(381,688,cs),
(381,1025,o),
(444,1170,o),
(600,1170,cs),
(756,1170,o),
(819,1025,o),
(819,688,cs)
);
}
);
width = 1200;
},
{
anchors = (
{
name = bottom;
pos = (600,0);
},
{
name = top;
pos = (600,1374);
},
{
name = topleft;
pos = (217,1374);
}
);
layerId = "B67F0F2D-EC95-4CB8-966E-23AE86958A69";
shapes = (
{
closed = 1;
nodes = (
(1093,1104,o),
(927,1393,o),
(600,1393,cs),
(273,1393,o),
(107,1094,o),
(107,682,cs),
(107,264,o),
(273,-20,o),
(600,-20,cs),
(927,-20,o),
(1093,274,o),
(1093,685,cs)
);
},
{
closed = 1;
nodes = (
(957,309,o),
(853,98,o),
(600,98,cs),
(353,98,o),
(243,308,o),
(243,682,cs),
(243,1057,o),
(345,1275,o),
(600,1275,cs),
(855,1275,o),
(957,1060,o),
(957,685,cs)
);
}
);
width = 1200;
}
);
tags = (
upper
);
unicode = 79;
},
{
glyphname = Oslash;
lastChange = "2025-02-08 14:44:40 +0000";
layers = (
{
anchors = (
{
name = bottom;
pos = (600,0);
},
{
name = top;
pos = (600,1374);
}
);
layerId = "4B7A3BAF-EAD8-4024-9BEA-BB1DE86CFCFA";
shapes = (
{
closed = 1;
nodes = (
(237,1409,o),
(45,1123,o),
(45,688,cs),
(45,242,o),
(256,-34,o),
(600,-34,cs),
(963,-34,o),
(1155,252,o),
(1155,688,cs),
(1155,1133,o),
(944,1409,o),
(600,1409,cs)
);
},
{
closed = 1;
nodes = (
(695,1374,l),
(681,1224,l),
(413,324,l),
(303,125,l),
(217,-151,l),
(439,-216,l),
(505,8,l),
(539,203,l),
(797,1076,l),
(907,1289,l),
(983,1527,l),
(761,1592,l)
);
},
{
closed = 1;
nodes = (
(768,1177,o),
(831,1032,o),
(831,688,cs),
(831,349,o),
(768,200,o),
(600,200,cs),
(434,200,o),
(369,345,o),
(369,688,cs),
(369,1031,o),
(436,1177,o),
(600,1177,cs)
);
}
);
width = 1200;
},
{
anchors = (
{
name = bottom;
pos = (600,0);
},
{
name = top;
pos = (600,1374);
}
);
layerId = "B67F0F2D-EC95-4CB8-966E-23AE86958A69";
shapes = (
{
closed = 1;
nodes = (
(273,1393,o),
(107,1094,o),
(107,682,cs),
(107,264,o),
(270,-20,o),
(600,-20,cs),
(927,-20,o),
(1093,274,o),
(1093,685,cs),
(1093,1104,o),
(930,1393,o),
(600,1393,cs)
);
},
{
closed = 1;
nodes = (
(737,1374,l),
(712,1277,l),
(379,120,l),
(348,54,l),
(271,-189,l),
(400,-221,l),
(471,11,l),
(479,73,l),
(822,1263,l),
(853,1317,l),
(932,1575,l),
(803,1606,l)
);
},
{
closed = 1;
nodes = (
(850,1272,o),
(952,1115,o),
(952,685,cs),
(952,312,o),
(850,101,o),
(600,101,cs),
(358,101,o),
(248,253,o),
(248,682,cs),
(248,1054,o),
(349,1272,o),
(600,1272,cs)
);
}
);
width = 1200;
}
);
tags = (
upper
);
unicode = 216;
},
{
glyphname = OE;
lastChange = "2025-02-08 14:44:40 +0000";
layers = (
{
anchors = (
{
name = bottom;
pos = (600,0);
},
{
name = top;
pos = (600,1374);
}
);
layerId = "4B7A3BAF-EAD8-4024-9BEA-BB1DE86CFCFA";
shapes = (
{
closed = 1;
nodes = (
(144,1409,o),
(19,1138,o),
(19,688,cs),
(19,228,o),
(144,-34,o),
(449,-34,cs),
(523,-34,o),
(574,-18,o),
(632,0,c),
(1193,0,l),
(1193,222,l),
(786,222,l),
(835,311,o),
(867,432,o),
(875,585,c),
(1117,585,l),
(1117,807,l),
(873,807,l),
(865,954,o),
(838,1070,o),
(796,1153,c),
(1159,1153,l),
(1193,1374,l),
(640,1374,l),
(574,1396,o),
(523,1409,o),
(449,1409,cs)
);
},
{
closed = 1;
nodes = (
(573,1187,o),
(608,1059,o),
(608,688,cs),
(608,328,o),
(567,188,o),
(451,188,cs),
(340,188,o),
(299,328,o),
(299,688,cs),
(299,1050,o),
(332,1187,o),
(451,1187,cs)
);
}
);
width = 1200;
},
{
anchors = (
{
name = bottom;
pos = (600,0);
},
{
name = top;
pos = (600,1374);
}
);
layerId = "B67F0F2D-EC95-4CB8-966E-23AE86958A69";
shapes = (
{
closed = 1;
nodes = (
(138,1393,o),
(-9,1145,o),
(-9,682,cs),
(-9,213,o),
(135,-20,o),
(415,-20,cs),
(458,-20,o),
(498,-12,o),
(539,0,c),
(1247,0,l),
(1247,117,l),
(676,117,l),
(767,213,o),
(822,378,o),
(827,639,c),
(1153,639,l),
(1153,756,l),
(828,756,l),
(817,1008,o),
(765,1167,o),
(683,1257,c),
(1207,1257,l),
(1224,1374,l),
(544,1374,l),
(501,1388,o),
(458,1393,o),
(415,1393,cs)
);
},
{
closed = 1;
nodes = (
(601,1274,o),
(684,1103,o),
(684,685,cs),
(684,264,o),
(598,98,o),
(415,98,cs),
(244,98,o),
(149,261,o),
(149,682,cs),
(149,1104,o),
(239,1274,o),
(415,1274,cs)
);
}
);
width = 1200;
}
);
tags = (
upper
);
unicode = 338;
},
{
glyphname = P;
lastChange = "2025-02-08 14:44:40 +0000";
layers = (
{
anchors = (
{
name = bottom;
pos = (600,0);
},
{
name = top;
pos = (600,1374);
},
{
name = topleft;
pos = (105,1374);
}
);
layerId = "4B7A3BAF-EAD8-4024-9BEA-BB1DE86CFCFA";
shapes = (
{
closed = 1;
nodes = (
(815,766,o),
(728,694,o),
(582,694,cs),
(453,694,l),
(453,1140,l),
(565,1140,ls),
(732,1140,o),
(815,1071,o),
(815,926,cs)
);
},
{
closed = 1;
nodes = (
(1153,1227,o),
(937,1374,o),
(561,1374,cs),
(125,1374,l),
(125,0,l),
(453,0,l),
(453,456,l),
(603,456,ls),
(930,456,o),
(1153,607,o),
(1153,927,cs)
);
}
);
width = 1200;
},
{
anchors = (
{
name = bottom;
pos = (600,0);
},
{
name = top;
pos = (600,1374);
},
{
name = topleft;
pos = (243,1374);
}
);
layerId = "B67F0F2D-EC95-4CB8-966E-23AE86958A69";
shapes = (
{
closed = 1;
nodes = (
(962,700,o),
(807,637,o),
(602,637,cs),
(391,637,l),
(391,1265,l),
(616,1265,ls),
(808,1265,o),
(962,1190,o),
(962,957,cs)
);
},
{
closed = 1;
nodes = (
(1102,1244,o),
(903,1374,o),
(589,1374,cs),
(263,1374,l),
(263,0,l),
(391,0,l),
(391,526,l),
(575,526,ls),
(880,526,o),
(1102,638,o),
(1102,960,cs)
);
}
);
width = 1200;
}
);
tags = (
upper
);
unicode = 80;
},
{
glyphname = Thorn;
lastChange = "2025-02-08 14:44:40 +0000";
layers = (
{
anchors = (
{
name = bottom;
pos = (600,0);
},
{
name = top;
pos = (600,1374);
}
);
layerId = "4B7A3BAF-EAD8-4024-9BEA-BB1DE86CFCFA";
shapes = (
{
closed = 1;
nodes = (
(119,1374,l),
(119,0,l),
(448,0,l),
(448,231,l),
(602,231,ls),
(945,231,o),
(1153,379,o),
(1153,702,cs),
(1153,1005,o),
(934,1152,o),
(559,1152,cs),
(448,1152,l),
(448,1374,l)
);
},
{
closed = 1;
nodes = (
(726,919,o),
(811,854,o),
(811,700,cs),
(811,529,o),
(724,467,o),
(581,467,cs),
(448,467,l),
(448,919,l),
(567,919,ls)
);
}
);
width = 1200;
},
{
anchors = (
{
name = bottom;
pos = (600,0);
},
{
name = top;
pos = (600,1374);
}
);
layerId = "B67F0F2D-EC95-4CB8-966E-23AE86958A69";
shapes = (
{
closed = 1;
nodes = (
(243,1374,l),
(243,0,l),
(369,0,l),
(369,264,l),
(579,264,ls),
(877,264,o),
(1099,391,o),
(1099,711,cs),
(1099,1005,o),
(911,1139,o),
(593,1139,cs),
(369,1139,l),
(369,1374,l)
);
},
{
closed = 1;
nodes = (
(819,1030,o),
(964,938,o),
(964,706,cs),
(964,445,o),
(817,374,o),
(615,374,cs),
(369,374,l),
(369,1030,l),
(618,1030,ls)
);
}
);
width = 1200;
}
);
tags = (
upper
);
unicode = 222;
},
{
glyphname = Q;
lastChange = "2025-02-08 14:44:40 +0000";
layers = (
{
anchors = (
{
name = bottom;
pos = (600,0);
},
{
name = top;
pos = (600,1374);
}
);
layerId = "4B7A3BAF-EAD8-4024-9BEA-BB1DE86CFCFA";
shapes = (
{
closed = 1;
nodes = (
(1149,1133,o),
(969,1409,o),
(606,1409,cs),
(243,1409,o),
(65,1123,o),
(65,688,cs),
(65,242,o),
(233,-28,o),
(580,-28,cs),
(822,-28,o),
(912,-137,o),
(1000,-343,c),
(1268,-252,l),
(1192,-30,o),
(1074,43,o),
(857,79,c),
(1077,190,o),
(1149,418,o),
(1149,688,cs)
);
},
{
closed = 1;
nodes = (
(807,355,o),
(766,206,o),
(606,206,cs),
(452,206,o),
(404,353,o),
(404,688,cs),
(404,1021,o),
(450,1168,o),
(606,1168,cs),
(764,1168,o),
(807,1023,o),
(807,688,cs)
);
}
);
width = 1200;
},
{
anchors = (
{
name = bottom;
pos = (600,0);
},
{
name = top;
pos = (600,1374);
}
);
layerId = "B67F0F2D-EC95-4CB8-966E-23AE86958A69";
shapes = (
{
closed = 1;
nodes = (
(1095,1104,o),
(924,1393,o),
(597,1393,cs),
(271,1393,o),
(99,1094,o),
(99,682,cs),
(99,264,o),
(272,-16,o),
(580,-16,cs),
(816,-16,o),
(921,-132,o),
(1003,-346,c),
(1160,-280,l),
(1096,-85,o),
(998,7,o),
(812,45,c),
(1020,163,o),
(1095,387,o),
(1095,685,cs)
);
},
{
closed = 1;
nodes = (
(963,309,o),
(850,98,o),
(597,98,cs),
(350,98,o),
(232,307,o),
(232,682,cs),
(232,1059,o),
(342,1276,o),
(597,1276,cs),
(851,1276,o),
(963,1061,o),
(963,685,cs)
);
}
);
width = 1200;
}
);
tags = (
upper
);
unicode = 81;
},
{
glyphname = R;
lastChange = "2025-02-08 14:44:40 +0000";
layers = (
{
anchors = (
{
name = bottom;
pos = (619,0);
},
{
name = top;
pos = (600,1374);
}
);
layerId = "4B7A3BAF-EAD8-4024-9BEA-BB1DE86CFCFA";
shapes = (
{
closed = 1;
nodes = (
(1123,1241,o),
(929,1374,o),
(552,1374,cs),
(116,1374,l),
(116,0,l),
(444,0,l),
(444,524,l),
(537,524,l),
(837,0,l),
(1208,0,l),
(845,579,l),
(1000,640,o),
(1123,759,o),
(1123,956,cs)
);
},
{
closed = 1;
nodes = (
(785,811,o),
(707,749,o),
(566,749,cs),
(444,749,l),
(444,1144,l),
(553,1144,ls),
(706,1144,o),
(785,1087,o),
(785,956,cs)
);
}
);
width = 1200;
},
{
anchors = (
{
name = bottom;
pos = (591,0);
},
{
name = top;
pos = (600,1374);
}
);
layerId = "B67F0F2D-EC95-4CB8-966E-23AE86958A69";
shapes = (
{
closed = 1;
nodes = (
(1061,1243,o),
(887,1374,o),
(558,1374,cs),
(229,1374,l),
(229,0,l),
(357,0,l),
(357,609,l),
(571,609,l),
(969,0,l),
(1129,0,l),
(707,619,l),
(907,660,o),
(1061,789,o),
(1061,999,cs)
);
},
{
closed = 1;
nodes = (
(920,795,o),
(795,719,o),
(580,719,cs),
(357,719,l),
(357,1264,l),
(584,1264,ls),
(814,1264,o),
(920,1188,o),
(920,999,cs)
);
}
);
width = 1200;
}
);
tags = (
upper
);
unicode = 82;
},
{
glyphname = S;
lastChange = "2025-02-08 14:44:40 +0000";
layers = (
{
anchors = (
{
name = bottom;
pos = (600,0);
},
{
name = top;
pos = (620,1374);
}
);
layerId = "4B7A3BAF-EAD8-4024-9BEA-BB1DE86CFCFA";
shapes = (
{
closed = 1;
nodes = (
(1136,655,o),
(981,765,o),
(718,846,cs),
(498,914,o),
(435,947,o),
(435,1035,cs),
(435,1122,o),
(518,1168,o),
(643,1168,cs),
(756,1168,o),
(866,1130,o),
(959,1054,c),
(1114,1231,l),
(995,1344,o),
(831,1409,o),
(617,1409,cs),
(330,1409,o),
(95,1262,o),
(95,1010,cs),
(95,800,o),
(218,679,o),
(546,579,cs),
(736,521,o),
(795,476,o),
(795,377,cs),
(795,271,o),
(701,210,o),
(564,210,cs),
(415,210,o),
(291,260,o),
(190,348,c),
(24,165,l),
(140,52,o),
(309,-34,o),
(572,-34,cs),
(925,-34,o),
(1136,145,o),
(1136,402,cs)
);
}
);
width = 1200;
},
{
anchors = (
{
name = bottom;
pos = (591,0);
},
{
name = top;
pos = (608,1374);
}
);
layerId = "B67F0F2D-EC95-4CB8-966E-23AE86958A69";
shapes = (
{
closed = 1;
nodes = (
(1054,640,o),
(857,723,o),
(657,779,cs),
(382,859,o),
(291,924,o),
(291,1053,cs),
(291,1204,o),
(428,1276,o),
(586,1276,cs),
(704,1276,o),
(823,1238,o),
(923,1148,c),
(1009,1242,l),
(895,1339,o),
(769,1393,o),
(586,1393,cs),
(330,1393,o),
(163,1245,o),
(163,1053,cs),
(163,831,o),
(349,739,o),
(605,665,cs),
(855,592,o),
(922,520,o),
(922,377,cs),
(922,185,o),
(752,97,o),
(576,97,cs),
(402,97,o),
(283,155,o),
(190,245,c),
(106,149,l),
(222,38,o),
(386,-20,o),
(569,-20,cs),
(880,-20,o),
(1054,143,o),
(1054,374,cs)
);
}
);
width = 1200;
}
);
tags = (
upper
);
unicode = 83;
},
{
color = 3;
glyphname = Germandbls;
lastChange = "2025-02-08 14:44:40 +0000";
layers = (
{
layerId = "B67F0F2D-EC95-4CB8-966E-23AE86958A69";
shapes = (
{
closed = 1;
nodes = (
(325,1403,o),
(171,1255,o),
(171,995,cs),
(171,11,l),
(291,11,l),
(291,991,ls),
(291,1205,o),
(401,1301,o),
(591,1301,cs),
(727,1301,o),
(839,1263,o),
(943,1215,c),
(559,795,l),
(559,697,l),
(861,681,o),
(1015,591,o),
(1015,383,cs),
(1015,191,o),
(903,91,o),
(719,91,cs),
(637,91,o),
(583,105,o),
(535,123,c),
(495,35,l),
(549,7,o),
(627,-11,o),
(725,-11,cs),
(977,-11,o),
(1141,137,o),
(1141,383,cs),
(1141,617,o),
(983,749,o),
(677,781,c),
(1055,1185,l),
(1055,1267,l),
(917,1345,o),
(763,1403,o),
(589,1403,cs)
);
}
);
width = 1200;
},
{
layerId = "4B7A3BAF-EAD8-4024-9BEA-BB1DE86CFCFA";
shapes = (
{
closed = 1;
nodes = (
(231,1425,o),
(65,1256,o),
(65,978,cs),
(65,17,l),
(393,17,l),
(393,986,ls),
(393,1124,o),
(451,1185,o),
(573,1185,cs),
(667,1185,o),
(748,1167,o),
(825,1140,c),
(549,812,l),
(549,639,l),
(779,623,o),
(879,552,o),
(879,412,cs),
(879,282,o),
(801,229,o),
(697,229,cs),
(643,229,o),
(605,239,o),
(573,253,c),
(477,37,l),
(539,5,o),
(629,-17,o),
(739,-17,cs),
(1003,-17,o),
(1221,126,o),
(1221,406,cs),
(1221,649,o),
(1064,760,o),
(833,796,c),
(1127,1135,l),
(1127,1284,l),
(964,1361,o),
(791,1425,o),
(553,1425,cs)
);
}
);
width = 1200;
}
);
tags = (
upper
);
unicode = 7838;
},
{
glyphname = T;
lastChange = "2025-02-08 14:44:40 +0000";
layers = (
{
anchors = (
{
name = bottom;
pos = (598,0);
},
{
name = bottomright;
pos = (782,0);
},
{
name = center;
pos = (600,688);
},
{
name = top;
pos = (598,1374);
}
);
layerId = "4B7A3BAF-EAD8-4024-9BEA-BB1DE86CFCFA";
shapes = (
{
closed = 1;
nodes = (
(1133,1123,l),
(1167,1374,l),
(45,1374,l),
(45,1123,l),
(434,1123,l),
(434,0,l),
(762,0,l),
(762,1123,l)
);
}
);
width = 1200;
},
{
anchors = (
{
name = bottom;
pos = (598,0);
},
{
name = bottomright;
pos = (680,0);
},
{
name = center;
pos = (600,688);
},
{
name = top;
pos = (598,1374);
}
);
layerId = "B67F0F2D-EC95-4CB8-966E-23AE86958A69";
shapes = (
{
closed = 1;
nodes = (
(1091,1256,l),
(1105,1374,l),
(90,1374,l),
(90,1256,l),
(533,1256,l),
(533,0,l),
(660,0,l),
(660,1256,l)
);
}
);
width = 1200;
}
);
tags = (
upper
);
unicode = 84;
},
{
glyphname = Tbar;
lastChange = "2025-02-08 14:44:40 +0000";
layers = (
{
layerId = "4B7A3BAF-EAD8-4024-9BEA-BB1DE86CFCFA";
shapes = (
{
closed = 1;
nodes = (
(997,621,l),
(997,806,l),
(201,806,l),
(201,621,l)
);
},
{
alignment = -1;
ref = T;
}
);
width = 1200;
},
{
layerId = "B67F0F2D-EC95-4CB8-966E-23AE86958A69";
shapes = (
{
closed = 1;
nodes = (
(932,721,l),
(932,841,l),
(263,841,l),
(263,721,l)
);
},
{
alignment = -1;
ref = T;
}
);
width = 1200;
}
);
tags = (
upper
);
unicode = 358;
},
{
glyphname = U;
lastChange = "2025-02-08 14:44:40 +0000";
layers = (
{
anchors = (
{
name = bottom;
pos = (600,0);
},
{
name = ogonek;
pos = (830,0);
},
{
name = top;
pos = (600,1374);
}
);
layerId = "4B7A3BAF-EAD8-4024-9BEA-BB1DE86CFCFA";
shapes = (
{
closed = 1;
nodes = (
(787,1374,l),
(787,584,ls),
(787,336,o),
(759,210,o),
(600,210,cs),
(441,210,o),
(413,336,o),
(413,584,cs),
(413,1374,l),
(84,1374,l),
(84,460,ls),
(84,167,o),
(254,-34,o),
(600,-34,cs),
(944,-34,o),
(1116,179,o),
(1116,460,cs),
(1116,1374,l)
);
}
);
width = 1200;
},
{
anchors = (
{
name = bottom;
pos = (600,0);
},
{
name = ogonek;
pos = (754,0);
},
{
name = top;
pos = (600,1374);
}
);
layerId = "B67F0F2D-EC95-4CB8-966E-23AE86958A69";
shapes = (
{
closed = 1;
nodes = (
(908,1374,l),
(908,397,ls),
(908,199,o),
(784,102,o),
(597,102,cs),
(413,102,o),
(289,199,o),
(289,397,cs),
(289,1374,l),
(163,1374,l),
(163,441,ls),
(163,168,o),
(333,-20,o),
(597,-20,cs),
(857,-20,o),
(1037,163,o),
(1037,441,cs),
(1037,1374,l)
);
}
);
width = 1200;
}
);
tags = (
upper
);
unicode = 85;
},
{
glyphname = V;
lastChange = "2025-02-08 14:44:40 +0000";
layers = (
{
anchors = (
{
name = bottom;
pos = (600,0);
},
{
name = top;
pos = (600,1374);
}
);
layerId = "4B7A3BAF-EAD8-4024-9BEA-BB1DE86CFCFA";
shapes = (
{
closed = 1;
nodes = (
(347,1374,l),
(-1,1374,l),
(397,0,l),
(803,0,l),
(1203,1374,l),
(867,1374,l),
(606,255,l)
);
}
);
width = 1200;
},
{
anchors = (
{
name = bottom;
pos = (600,0);
},
{
name = top;
pos = (600,1374);
}
);
layerId = "B67F0F2D-EC95-4CB8-966E-23AE86958A69";
shapes = (
{
closed = 1;
nodes = (
(203,1374,l),
(64,1374,l),
(544,0,l),
(656,0,l),
(1135,1374,l),
(1008,1374,l),
(603,180,l)
);
}
);
width = 1200;
}
);
tags = (
upper
);
unicode = 86;
},
{
glyphname = W;
lastChange = "2025-02-08 14:44:40 +0000";
layers = (
{
anchors = (
{
name = bottom;
pos = (600,0);
},
{
name = top;
pos = (600,1374);
}
);
layerId = "4B7A3BAF-EAD8-4024-9BEA-BB1DE86CFCFA";
shapes = (
{
closed = 1;
nodes = (
(921,1374,l),
(852,279,l),
(745,1216,l),
(463,1216,l),
(348,279,l),
(301,1374,l),
(-6,1374,l),
(144,0,l),
(491,0,l),
(602,982,l),
(703,0,l),
(1044,0,l),
(1206,1374,l)
);
}
);
width = 1200;
},
{
anchors = (
{
name = bottom;
pos = (600,0);
},
{
name = top;
pos = (600,1374);
}
);
layerId = "B67F0F2D-EC95-4CB8-966E-23AE86958A69";
shapes = (
{
closed = 1;
nodes = (
(1062,1374,l),
(869,164,l),
(697,1214,l),
(505,1214,l),
(325,164,l),
(148,1374,l),
(14,1374,l),
(220,0,l),
(420,0,l),
(593,1053,l),
(768,0,l),
(962,0,l),
(1186,1374,l)
);
}
);
width = 1200;
}
);
tags = (
upper
);
unicode = 87;
},
{
glyphname = X;
lastChange = "2025-02-08 14:44:40 +0000";
layers = (
{
anchors = (
{
name = bottom;
pos = (600,0);
},
{
name = bottomright;
pos = (1118,0);
},
{
name = top;
pos = (600,1374);
}
);
layerId = "4B7A3BAF-EAD8-4024-9BEA-BB1DE86CFCFA";
shapes = (
{
closed = 1;
nodes = (
(401,730,l),
(7,0,l),
(355,0,l),
(596,523,l),
(841,0,l),
(1194,0,l),
(792,744,l),
(1160,1374,l),
(814,1374,l),
(600,935,l),
(391,1374,l),
(38,1374,l)
);
}
);
width = 1200;
},
{
anchors = (
{
name = bottom;
pos = (600,0);
},
{
name = bottomright;
pos = (1025,0);
},
{
name = top;
pos = (600,1374);
}
);
layerId = "B67F0F2D-EC95-4CB8-966E-23AE86958A69";
shapes = (
{
closed = 1;
nodes = (
(522,733,l),
(78,0,l),
(217,0,l),
(596,650,l),
(968,0,l),
(1121,0,l),
(673,741,l),
(1070,1374,l),
(930,1374,l),
(600,820,l),
(270,1374,l),
(117,1374,l)
);
}
);
width = 1200;
}
);
tags = (
upper
);
unicode = 88;
},
{
glyphname = Y;
lastChange = "2025-02-08 14:44:40 +0000";
layers = (
{
anchors = (
{
name = bottom;
pos = (600,0);
},
{
name = top;
pos = (600,1374);
},
{
name = topleft;
pos = (-16,1374);
}
);
layerId = "4B7A3BAF-EAD8-4024-9BEA-BB1DE86CFCFA";
shapes = (
{
closed = 1;
nodes = (
(1216,1374,l),
(871,1374,l),
(606,784,l),
(343,1374,l),
(-16,1374,l),
(436,513,l),
(436,0,l),
(764,0,l),
(764,515,l)
);
}
);
width = 1200;
},
{
anchors = (
{
name = bottom;
pos = (600,0);
},
{
name = top;
pos = (609,1374);
},
{
name = topleft;
pos = (66,1374);
}
);
layerId = "B67F0F2D-EC95-4CB8-966E-23AE86958A69";
shapes = (
{
closed = 1;
nodes = (
(1134,1374,l),
(1003,1374,l),
(603,657,l),
(208,1374,l),
(66,1374,l),
(535,532,l),
(535,0,l),
(665,0,l),
(665,534,l)
);
}
);
width = 1200;
}
);
tags = (
upper
);
unicode = 89;
},
{
glyphname = Z;
lastChange = "2025-02-08 14:44:40 +0000";
layers = (
{
anchors = (
{
name = bottom;
pos = (600,0);
},
{
name = top;
pos = (626,1374);
}
);
layerId = "4B7A3BAF-EAD8-4024-9BEA-BB1DE86CFCFA";
shapes = (
{
closed = 1;
nodes = (
(1109,1127,l),
(1109,1374,l),
(150,1374,l),
(150,1121,l),
(736,1121,l),
(78,245,l),
(78,0,l),
(1090,0,l),
(1124,261,l),
(464,261,l)
);
}
);
width = 1200;
},
{
anchors = (
{
name = bottom;
pos = (600,0);
},
{
name = top;
pos = (640,1374);
}
);
layerId = "B67F0F2D-EC95-4CB8-966E-23AE86958A69";
shapes = (
{
closed = 1;
nodes = (
(1041,1263,l),
(1041,1374,l),
(234,1374,l),
(234,1257,l),
(911,1257,l),
(162,110,l),
(162,0,l),
(1017,0,l),
(1034,117,l),
(295,117,l)
);
}
);
width = 1200;
}
);
tags = (
upper
);
unicode = 90;
},
{
color = 3;
glyphname = F_l.liga.ss10;
lastChange = "2025-02-08 14:44:40 +0000";
layers = (
{
anchors = (
{
name = bottom;
pos = (-600,0);
},
{
name = center;
pos = (1116,766);
},
{
name = top;
pos = (-600,1374);
},
{
name = topright;
pos = (675,1475);
}
);
layerId = "B67F0F2D-EC95-4CB8-966E-23AE86958A69";
shapes = (
{
closed = 1;
nodes = (
(-905,1374,l),
(-905,0,l),
(-779,0,l),
(-779,632,l),
(-223,632,l),
(-223,743,l),
(-779,743,l),
(-779,1260,l),
(462,1260,l),
(462,238,ls),
(462,74,o),
(593,-20,o),
(759,-20,cs),
(857,-20,o),
(940,4,o),
(992,30,c),
(956,126,l),
(895,102,o),
(837,88,o),
(771,88,cs),
(664,88,o),
(586,129,o),
(586,238,cs),
(586,1374,l)
);
}
);
width = 1200;
},
{
anchors = (
{
name = bottom;
pos = (-600,0);
},
{
name = center;
pos = (1136,759);
},
{
name = top;
pos = (-600,1374);
},
{
name = topright;
pos = (754,1471);
}
);
layerId = "4B7A3BAF-EAD8-4024-9BEA-BB1DE86CFCFA";
shapes = (
{
closed = 1;
nodes = (
(-984,1374,l),
(-984,0,l),
(-655,0,l),
(-655,544,l),
(-169,544,l),
(-169,779,l),
(-655,779,l),
(-655,1140,l),
(378,1140,l),
(378,372,ls),
(378,125,o),
(494,-34,o),
(750,-34,cs),
(885,-34,o),
(985,-2,o),
(1057,36,c),
(981,247,l),
(937,229,o),
(885,215,o),
(831,215,cs),
(746,215,o),
(694,248,o),
(694,332,cs),
(694,1374,l)
);
}
);
width = 1200;
}
);
tags = (
upper
);
},
{
color = 3;
glyphname = T_l.liga.ss10;
lastChange = "2025-02-08 14:44:40 +0000";
layers = (
{
anchors = (
{
name = bottom;
pos = (-602,0);
},
{
name = bottomright;
pos = (-520,0);
},
{
name = center;
pos = (-600,688);
},
{
name = top;
pos = (-602,1374);
},
{
name = topright;
pos = (675,1475);
}
);
layerId = "B67F0F2D-EC95-4CB8-966E-23AE86958A69";
shapes = (
{
closed = 1;
nodes = (
(-1110,1374,l),
(-1110,1256,l),
(-667,1256,l),
(-667,0,l),
(-540,0,l),
(-540,1256,l),
(462,1256,l),
(462,238,ls),
(462,74,o),
(593,-20,o),
(759,-20,cs),
(857,-20,o),
(940,4,o),
(992,30,c),
(956,126,l),
(895,102,o),
(837,88,o),
(771,88,cs),
(664,88,o),
(586,129,o),
(586,238,cs),
(586,1374,l)
);
}
);
width = 1200;
},
{
anchors = (
{
name = bottom;
pos = (-602,0);
},
{
name = bottomright;
pos = (-418,0);
},
{
name = center;
pos = (-600,688);
},
{
name = top;
pos = (-602,1374);
},
{
name = topright;
pos = (754,1471);
}
);
layerId = "4B7A3BAF-EAD8-4024-9BEA-BB1DE86CFCFA";
shapes = (
{
closed = 1;
nodes = (
(-1155,1374,l),
(-1155,1123,l),
(-766,1123,l),
(-766,0,l),
(-438,0,l),
(-438,1123,l),
(378,1123,l),
(378,372,ls),
(378,125,o),
(494,-34,o),
(750,-34,cs),
(885,-34,o),
(985,-2,o),
(1057,36,c),
(981,247,l),
(937,229,o),
(885,215,o),
(831,215,cs),
(746,215,o),
(694,248,o),
(694,332,cs),
(694,1374,l)
);
}
);
width = 1200;
}
);
metricRight = l;
tags = (
upper
);
},
{
glyphname = a;
lastChange = "2025-02-08 14:45:07 +0000";
layers = (
{
anchors = (
{
name = bottom;
pos = (600,0);
},
{
name = ogonek;
pos = (1059,-30);
},
{
name = top;
pos = (586,1050);
}
);
layerId = "4B7A3BAF-EAD8-4024-9BEA-BB1DE86CFCFA";
shapes = (
{
closed = 1;
nodes = (
(1034,714,ls),
(1034,955,o),
(885,1085,o),
(570,1085,cs),
(452,1085,o),
(292,1058,o),
(156,1007,c),
(229,797,l),
(335,833,o),
(452,853,o),
(520,853,cs),
(657,853,o),
(730,801,o),
(730,692,cs),
(730,654,l),
(587,654,ls),
(259,654,o),
(70,524,o),
(70,297,cs),
(70,103,o),
(210,-34,o),
(429,-34,cs),
(560,-34,o),
(697,11,o),
(779,108,c),
(828,21,o),
(914,-18,o),
(1039,-30,c),
(1104,178,l),
(1054,196,o),
(1034,225,o),
(1034,304,cs)
);
},
{
closed = 1;
nodes = (
(448,192,o),
(396,239,o),
(396,319,cs),
(396,421,o),
(476,475,o),
(652,475,cs),
(730,475,l),
(730,307,l),
(691,233,o),
(606,192,o),
(538,192,cs)
);
}
);
width = 1200;
},
{
anchors = (
{
name = bottom;
pos = (600,0);
},
{
name = ogonek;
pos = (1008,-21);
},
{
name = top;
pos = (583,1050);
}
);
layerId = "B67F0F2D-EC95-4CB8-966E-23AE86958A69";
shapes = (
{
closed = 1;
nodes = (
(932,739,ls),
(932,937,o),
(804,1069,o),
(558,1069,cs),
(461,1069,o),
(361,1053,o),
(235,1006,c),
(271,904,l),
(380,943,o),
(469,957,o),
(540,957,cs),
(702,957,o),
(803,899,o),
(803,735,cs),
(803,633,l),
(644,633,ls),
(327,633,o),
(157,516,o),
(157,303,cs),
(157,107,o),
(283,-20,o),
(491,-20,cs),
(629,-20,o),
(742,32,o),
(815,130,c),
(840,34,o),
(908,-9,o),
(988,-21,c),
(1022,70,l),
(961,88,o),
(932,121,o),
(932,207,cs)
);
},
{
closed = 1;
nodes = (
(364,79,o),
(294,153,o),
(294,299,cs),
(294,443,o),
(380,538,o),
(629,538,cs),
(803,538,l),
(803,238,l),
(733,138,o),
(629,79,o),
(515,79,cs)
);
}
);
width = 1200;
}
);
tags = (
lower
);
unicode = 97;
},
{
glyphname = ae;
lastChange = "2025-02-08 14:45:07 +0000";
layers = (
{
anchors = (
{
name = top;
pos = (604,1050);
}
);
layerId = "4B7A3BAF-EAD8-4024-9BEA-BB1DE86CFCFA";
shapes = (
{
closed = 1;
nodes = (
(736,1085,o),
(652,1030,o),
(604,947,c),
(555,1030,o),
(475,1085,o),
(328,1085,cs),
(222,1085,o),
(141,1059,o),
(39,1015,c),
(110,843,l),
(189,880,o),
(233,892,o),
(297,892,cs),
(411,892,o),
(475,826,o),
(475,692,cs),
(475,647,l),
(393,647,ls),
(118,647,o),
(-12,524,o),
(-12,301,cs),
(-12,104,o),
(100,-34,o),
(286,-34,cs),
(422,-34,o),
(491,19,o),
(569,133,c),
(636,29,o),
(738,-34,o),
(888,-34,cs),
(1022,-34,o),
(1122,14,o),
(1199,79,c),
(1080,237,l),
(1023,196,o),
(970,173,o),
(906,173,cs),
(793,173,o),
(731,261,o),
(713,447,c),
(1194,447,l),
(1198,479,o),
(1200,510,o),
(1200,546,cs),
(1200,893,o),
(1106,1085,o),
(856,1085,cs)
);
},
{
closed = 1;
nodes = (
(475,418,o),
(477,352,o),
(483,293,c),
(443,214,o),
(400,172,o),
(343,172,cs),
(284,172,o),
(252,226,o),
(252,315,cs),
(252,417,o),
(300,477,o),
(432,477,cs),
(475,477,l)
);
},
{
closed = 1;
nodes = (
(938,888,o),
(960,803,o),
(962,617,c),
(713,617,l),
(721,822,o),
(762,888,o),
(845,888,cs)
);
}
);
width = 1200;
},
{
anchors = (
{
name = top;
pos = (621,1050);
}
);
layerId = "B67F0F2D-EC95-4CB8-966E-23AE86958A69";
shapes = (
{
closed = 1;
nodes = (
(738,1069,o),
(647,999,o),
(608,883,c),
(572,996,o),
(501,1069,o),
(345,1069,cs),
(265,1069,o),
(165,1043,o),
(81,1003,c),
(119,889,l),
(207,927,o),
(261,945,o),
(333,945,cs),
(450,945,o),
(517,885,o),
(517,735,cs),
(517,637,l),
(424,637,ls),
(141,637,o),
(-12,518,o),
(-12,301,cs),
(-12,106,o),
(109,-20,o),
(295,-20,cs),
(428,-20,o),
(507,32,o),
(592,179,c),
(668,42,o),
(757,-20,o),
(897,-20,cs),
(1005,-20,o),
(1085,20,o),
(1165,83,c),
(1100,185,l),
(1031,132,o),
(976,101,o),
(894,101,cs),
(745,101,o),
(677,215,o),
(659,469,c),
(1214,469,l),
(1216,493,o),
(1217,525,o),
(1217,561,cs),
(1217,872,o),
(1109,1069,o),
(873,1069,cs)
);
},
{
closed = 1;
nodes = (
(517,448,o),
(528,368,o),
(546,293,c),
(474,158,o),
(409,88,o),
(309,88,cs),
(211,88,o),
(144,162,o),
(144,309,cs),
(144,445,o),
(210,537,o),
(420,537,cs),
(517,537,l)
);
},
{
closed = 1;
nodes = (
(1020,947,o),
(1070,821,o),
(1075,589,c),
(659,589,l),
(679,852,o),
(739,947,o),
(870,947,cs)
);
}
);
width = 1200;
},
{
anchors = (
{
name = top;
pos = (621,1050);
}
);
associatedMasterId = "B67F0F2D-EC95-4CB8-966E-23AE86958A69";
layerId = "5CC65849-0E21-4176-99F6-BF640DD57E75";
name = "Mar 28 19, 14:59";
shapes = (
{
closed = 1;
nodes = (
(745,1069,o),
(655,999,o),
(621,883,c),
(583,996,o),
(509,1069,o),
(345,1069,cs),
(265,1069,o),
(165,1043,o),
(81,1003,c),
(119,889,l),
(207,927,o),
(261,945,o),
(333,945,cs),
(450,945,o),
(517,885,o),
(517,735,cs),
(517,637,l),
(424,637,ls),
(141,637,o),
(-12,518,o),
(-12,301,cs),
(-12,106,o),
(109,-20,o),
(295,-20,cs),
(428,-20,o),
(509,34,o),
(605,163,c),
(671,45,o),
(757,-20,o),
(897,-20,cs),
(1005,-20,o),
(1085,20,o),
(1165,83,c),
(1100,185,l),
(1031,132,o),
(976,101,o),
(894,101,cs),
(745,101,o),
(677,215,o),
(659,469,c),
(1214,469,l),
(1216,493,o),
(1217,525,o),
(1217,561,cs),
(1217,872,o),
(1109,1069,o),
(873,1069,cs)
);
},
{
closed = 1;
nodes = (
(517,448,o),
(528,368,o),
(551,302,c),
(471,161,o),
(409,88,o),
(309,88,cs),
(211,88,o),
(144,162,o),
(144,309,cs),
(144,445,o),
(210,537,o),
(420,537,cs),
(517,537,l)
);
},
{
closed = 1;
nodes = (
(1020,947,o),
(1070,821,o),
(1075,589,c),
(659,589,l),
(679,852,o),
(739,947,o),
(870,947,cs)
);
}
);
visible = 1;
width = 1200;
}
);
tags = (
lower
);
unicode = 230;
},
{
color = 4;
glyphname = b;
lastChange = "2025-02-08 14:45:07 +0000";
layers = (
{
anchors = (
{
name = bottom;
pos = (600,0);
},
{
name = top;
pos = (600,1467);
}
);
layerId = "4B7A3BAF-EAD8-4024-9BEA-BB1DE86CFCFA";
shapes = (
{
closed = 1;
nodes = (
(456,1500,l),
(140,1467,l),
(140,0,l),
(420,0,l),
(432,95,l),
(494,12,o),
(587,-34,o),
(695,-34,cs),
(971,-34,o),
(1120,204,o),
(1120,528,cs),
(1120,869,o),
(1001,1085,o),
(728,1085,cs),
(621,1085,o),
(523,1031,o),
(456,943,c)
);
},
{
closed = 1;
nodes = (
(543,196,o),
(496,229,o),
(456,291,c),
(456,732,l),
(501,805,o),
(556,852,o),
(628,852,cs),
(728,852,o),
(794,784,o),
(794,524,cs),
(794,289,o),
(724,196,o),
(612,196,cs)
);
}
);
width = 1200;
},
{
anchors = (
{
name = bottom;
pos = (600,0);
},
{
name = top;
pos = (600,1475);
}
);
layerId = "B67F0F2D-EC95-4CB8-966E-23AE86958A69";
shapes = (
{
closed = 1;
nodes = (
(343,1492,l),
(219,1475,l),
(219,0,l),
(327,0,l),
(339,113,l),
(412,21,o),
(506,-20,o),
(633,-20,cs),
(903,-20,o),
(1047,209,o),
(1047,525,cs),
(1047,851,o),
(936,1069,o),
(652,1069,cs),
(527,1069,o),
(423,1010,o),
(343,905,c)
);
},
{
closed = 1;
nodes = (
(501,88,o),
(403,146,o),
(343,236,c),
(343,780,l),
(403,868,o),
(503,963,o),
(634,963,cs),
(815,963,o),
(907,806,o),
(907,527,cs),
(907,234,o),
(800,88,o),
(606,88,cs)
);
}
);
width = 1200;
}
);
tags = (
lower
);
unicode = 98;
},
{
glyphname = c;
lastChange = "2025-02-08 14:45:07 +0000";
layers = (
{
anchors = (
{
name = bottom;
pos = (678,0);
},
{
name = bottomAttach;
pos = (678,0);
},
{
name = top;
pos = (688,1024);
}
);
layerId = "4B7A3BAF-EAD8-4024-9BEA-BB1DE86CFCFA";
shapes = (
{
closed = 1;
nodes = (
(568,215,o),
(467,287,o),
(467,518,cs),
(467,753,o),
(562,842,o),
(705,842,cs),
(792,842,o),
(873,812,o),
(944,764,c),
(1081,953,l),
(976,1040,o),
(853,1085,o),
(692,1085,cs),
(350,1085,o),
(137,846,o),
(137,518,cs),
(137,190,o),
(343,-34,o),
(686,-34,cs),
(851,-34,o),
(988,26,o),
(1081,105,c),
(940,305,l),
(863,252,o),
(790,215,o),
(703,215,cs)
);
}
);
width = 1200;
},
{
anchors = (
{
name = bottom;
pos = (678,0);
},
{
name = bottomAttach;
pos = (678,0);
},
{
name = top;
pos = (688,1036);
}
);
layerId = "B67F0F2D-EC95-4CB8-966E-23AE86958A69";
shapes = (
{
closed = 1;
nodes = (
(475,94,o),
(335,227,o),
(335,521,cs),
(335,811,o),
(475,959,o),
(669,959,cs),
(763,959,o),
(855,926,o),
(950,861,c),
(1016,950,l),
(918,1029,o),
(802,1069,o),
(675,1069,cs),
(367,1069,o),
(197,833,o),
(197,521,cs),
(197,192,o),
(368,-20,o),
(674,-20,cs),
(786,-20,o),
(927,26,o),
(1019,103,c),
(954,187,l),
(876,132,o),
(781,94,o),
(669,94,cs)
);
}
);
width = 1200;
}
);
tags = (
lower
);
unicode = 99;
},
{
glyphname = d;
lastChange = "2025-02-08 14:45:07 +0000";
layers = (
{
anchors = (
{
name = bottom;
pos = (600,0);
},
{
name = center;
pos = (600,526);
},
{
name = top;
pos = (600,1467);
},
{
name = topright;
pos = (1101,1467);
}
);
layerId = "4B7A3BAF-EAD8-4024-9BEA-BB1DE86CFCFA";
shapes = (
{
closed = 1;
nodes = (
(744,989,l),
(680,1052,o),
(597,1085,o),
(503,1085,cs),
(241,1085,o),
(80,851,o),
(80,528,cs),
(80,190,o),
(206,-34,o),
(470,-34,cs),
(610,-34,o),
(706,35,o),
(764,115,c),
(780,0,l),
(1060,0,l),
(1060,1467,l),
(744,1500,l)
);
},
{
closed = 1;
nodes = (
(653,854,o),
(700,823,o),
(744,770,c),
(744,318,l),
(699,245,o),
(642,198,o),
(570,198,cs),
(474,198,o),
(406,268,o),
(406,526,cs),
(406,761,o),
(478,854,o),
(588,854,cs)
);
}
);
width = 1200;
},
{
anchors = (
{
name = bottom;
pos = (600,0);
},
{
name = center;
pos = (600,526);
},
{
name = top;
pos = (600,1475);
},
{
name = topright;
pos = (1050,1475);
}
);
layerId = "B67F0F2D-EC95-4CB8-966E-23AE86958A69";
shapes = (
{
closed = 1;
nodes = (
(857,937,l),
(785,1024,o),
(691,1069,o),
(563,1069,cs),
(303,1069,o),
(153,836,o),
(153,522,cs),
(153,201,o),
(279,-20,o),
(557,-20,cs),
(666,-20,o),
(773,25,o),
(857,145,c),
(873,0,l),
(981,0,l),
(981,1475,l),
(857,1492,l)
);
},
{
closed = 1;
nodes = (
(701,962,o),
(796,907,o),
(857,813,c),
(857,267,l),
(797,177,o),
(706,88,o),
(573,88,cs),
(387,88,o),
(293,247,o),
(293,523,cs),
(293,813,o),
(399,962,o),
(594,962,cs)
);
}
);
width = 1200;
}
);
tags = (
lower
);
unicode = 100;
},
{
glyphname = dcroat;
lastChange = "2025-02-08 14:45:07 +0000";
layers = (
{
layerId = "4B7A3BAF-EAD8-4024-9BEA-BB1DE86CFCFA";
shapes = (
{
closed = 1;
nodes = (
(463,1357,l),
(463,1172,l),
(707,1172,l),
(1183,1172,l),
(1183,1357,l),
(1023,1357,l)
);
},
{
alignment = -1;
pos = (-37,0);
ref = d;
}
);
width = 1200;
},
{
layerId = "B67F0F2D-EC95-4CB8-966E-23AE86958A69";
shapes = (
{
closed = 1;
nodes = (
(502,1317,l),
(502,1198,l),
(874,1198,l),
(1155,1198,l),
(1155,1317,l),
(998,1317,l)
);
},
{
alignment = -1;
pos = (17,0);
ref = d;
}
);
width = 1200;
}
);
tags = (
lower
);
unicode = 273;
},
{
glyphname = eth;
lastChange = "2025-02-08 14:45:07 +0000";
layers = (
{
layerId = "4B7A3BAF-EAD8-4024-9BEA-BB1DE86CFCFA";
shapes = (
{
closed = 1;
nodes = (
(452,1038,l),
(563,1149,l),
(658,1081,o),
(731,989,o),
(777,854,c),
(706,919,o),
(629,953,o),
(509,953,cs),
(279,953,o),
(79,755,o),
(79,463,cs),
(79,148,o),
(301,-34,o),
(588,-34,cs),
(927,-34,o),
(1113,223,o),
(1113,547,cs),
(1113,901,o),
(1001,1167,o),
(741,1331,c),
(848,1437,l),
(686,1578,l),
(540,1428,l),
(456,1459,o),
(358,1483,o),
(248,1499,c),
(186,1294,l),
(253,1281,o),
(313,1266,o),
(368,1248,c),
(252,1130,l)
);
},
{
closed = 1;
nodes = (
(793,297,o),
(731,196,o),
(594,196,cs),
(477,196,o),
(401,275,o),
(401,466,cs),
(401,647,o),
(477,732,o),
(592,732,cs),
(670,732,o),
(740,703,o),
(791,648,c),
(793,603,o),
(793,556,o),
(793,507,cs)
);
}
);
width = 1200;
},
{
layerId = "B67F0F2D-EC95-4CB8-966E-23AE86958A69";
shapes = (
{
closed = 1;
nodes = (
(461,1067,l),
(631,1243,l),
(768,1143,o),
(869,991,o),
(904,812,c),
(826,907,o),
(715,961,o),
(574,961,cs),
(347,961,o),
(150,767,o),
(150,471,cs),
(150,156,o),
(349,-20,o),
(591,-20,cs),
(862,-20,o),
(1051,180,o),
(1051,519,cs),
(1051,909,o),
(944,1163,o),
(713,1326,c),
(842,1460,l),
(759,1533,l),
(622,1386,l),
(540,1433,o),
(440,1465,o),
(321,1493,c),
(291,1383,l),
(391,1362,o),
(471,1338,o),
(540,1302,c),
(365,1119,l)
);
},
{
closed = 1;
nodes = (
(925,245,o),
(788,88,o),
(585,88,cs),
(406,88,o),
(277,229,o),
(277,481,cs),
(277,740,o),
(423,852,o),
(578,852,cs),
(722,852,o),
(845,788,o),
(918,668,c),
(923,627,o),
(925,588,o),
(925,541,cs)
);
}
);
width = 1200;
}
);
tags = (
lower
);
unicode = 240;
},
{
glyphname = e;
lastChange = "2025-02-08 14:45:07 +0000";
layers = (
{
anchors = (
{
name = bottom;
pos = (600,0);
},
{
name = ogonek;
pos = (890,0);
},
{
name = top;
pos = (614,1050);
}
);
layerId = "4B7A3BAF-EAD8-4024-9BEA-BB1DE86CFCFA";
shapes = (
{
closed = 1;
nodes = (
(1102,433,l),
(1106,465,o),
(1108,510,o),
(1108,546,cs),
(1108,884,o),
(913,1085,o),
(610,1085,cs),
(276,1085,o),
(92,834,o),
(92,524,cs),
(92,198,o),
(279,-34,o),
(644,-34,cs),
(825,-34,o),
(969,26,o),
(1068,111,c),
(941,283,l),
(856,229,o),
(765,196,o),
(669,196,cs),
(534,196,o),
(435,263,o),
(414,433,c)
);
},
{
closed = 1;
nodes = (
(745,874,o),
(798,773,o),
(800,623,c),
(410,623,l),
(424,798,o),
(497,874,o),
(610,874,cs)
);
}
);
width = 1200;
},
{
anchors = (
{
name = bottom;
pos = (600,0);
},
{
name = ogonek;
pos = (797,0);
},
{
name = top;
pos = (623,1050);
}
);
layerId = "B67F0F2D-EC95-4CB8-966E-23AE86958A69";
shapes = (
{
closed = 1;
nodes = (
(1023,475,l),
(1024,496,o),
(1026,525,o),
(1026,561,cs),
(1026,874,o),
(874,1069,o),
(619,1069,cs),
(355,1069,o),
(176,844,o),
(176,524,cs),
(176,197,o),
(347,-20,o),
(638,-20,cs),
(754,-20,o),
(884,23,o),
(981,98,c),
(916,191,l),
(821,125,o),
(743,94,o),
(633,94,cs),
(461,94,o),
(314,211,o),
(309,475,c)
);
},
{
closed = 1;
nodes = (
(787,953,o),
(903,834,o),
(908,587,c),
(311,587,l),
(325,835,o),
(452,953,o),
(622,953,cs)
);
}
);
width = 1200;
}
);
tags = (
lower
);
unicode = 101;
},
{
glyphname = f;
lastChange = "2025-02-08 14:45:07 +0000";
layers = (
{
anchors = (
{
name = bottom;
pos = (534,0);
},
{
name = top;
pos = (740,1467);
}
);
layerId = "4B7A3BAF-EAD8-4024-9BEA-BB1DE86CFCFA";
shapes = (
{
closed = 1;
nodes = (
(528,1500,o),
(376,1342,o),
(376,1135,cs),
(376,984,l),
(153,984,l),
(153,766,l),
(376,766,l),
(376,0,l),
(690,0,l),
(690,766,l),
(1001,766,l),
(1036,984,l),
(690,984,l),
(690,1123,ls),
(690,1226,o),
(740,1268,o),
(865,1268,cs),
(941,1268,o),
(1019,1256,o),
(1093,1228,c),
(1180,1434,l),
(1083,1474,o),
(971,1500,o),
(816,1500,cs)
);
}
);
width = 1200;
},
{
anchors = (
{
name = bottom;
pos = (520,0);
},
{
name = top;
pos = (740,1475);
}
);
layerId = "B67F0F2D-EC95-4CB8-966E-23AE86958A69";
shapes = (
{
closed = 1;
nodes = (
(627,1492,o),
(458,1381,o),
(458,1191,cs),
(458,964,l),
(198,964,l),
(198,858,l),
(458,858,l),
(458,0,l),
(582,0,l),
(582,858,l),
(930,858,l),
(943,964,l),
(582,964,l),
(582,1199,ls),
(582,1321,o),
(664,1383,o),
(817,1383,cs),
(899,1383,o),
(977,1368,o),
(1042,1337,c),
(1087,1438,l),
(1007,1473,o),
(926,1492,o),
(825,1492,cs)
);
}
);
width = 1200;
}
);
tags = (
lower
);
unicode = 102;
},
{
glyphname = g;
lastChange = "2025-02-08 14:48:33 +0000";
layers = (
{
anchors = (
{
name = bottom;
pos = (600,-439);
},
{
name = top;
pos = (602,1050);
}
);
layerId = "4B7A3BAF-EAD8-4024-9BEA-BB1DE86CFCFA";
shapes = (
{
closed = 1;
nodes = (
(955,1145,o),
(821,1083,o),
(584,1083,cs),
(307,1083,o),
(109,937,o),
(109,700,cs),
(109,564,o),
(162,471,o),
(299,399,c),
(222,351,o),
(179,276,o),
(179,200,cs),
(179,87,o),
(277,-10,o),
(507,-10,cs),
(676,-10,ls),
(782,-10,o),
(830,-51,o),
(830,-113,cs),
(830,-180,o),
(784,-231,o),
(584,-231,cs),
(383,-231,o),
(342,-192,o),
(342,-101,c),
(62,-101,l),
(62,-308,o),
(168,-438,o),
(576,-438,cs),
(952,-438,o),
(1144,-306,o),
(1144,-91,cs),
(1144,84,o),
(986,213,o),
(739,213,cs),
(565,213,ls),
(463,213,o),
(448,245,o),
(448,277,cs),
(448,301,o),
(461,325,o),
(483,336,c),
(520,329,o),
(561,325,o),
(606,325,cs),
(881,325,o),
(1056,473,o),
(1056,677,cs),
(1056,813,o),
(983,891,o),
(851,947,c),
(984,947,o),
(1082,959,o),
(1157,989,c),
(1083,1220,l)
);
},
{
closed = 1;
nodes = (
(699,878,o),
(754,825,o),
(754,708,cs),
(754,587,o),
(697,526,o),
(592,526,cs),
(494,526,o),
(429,589,o),
(429,704,cs),
(429,813,o),
(492,878,o),
(592,878,cs)
);
}
);
width = 1200;
},
{
anchors = (
{
name = bottom;
pos = (600,-386);
},
{
name = top;
pos = (582,1050);
}
);
layerId = "B67F0F2D-EC95-4CB8-966E-23AE86958A69";
shapes = (
{
closed = 1;
nodes = (
(927,1097,o),
(849,1073,o),
(575,1070,cs),
(335,1070,o),
(171,916,o),
(171,711,cs),
(171,576,o),
(228,485,o),
(344,424,c),
(268,373,o),
(230,309,o),
(230,245,cs),
(230,143,o),
(308,51,o),
(476,51,cs),
(670,51,ls),
(814,51,o),
(932,-3,o),
(932,-114,cs),
(932,-243,o),
(813,-303,o),
(572,-303,cs),
(326,-303,o),
(266,-240,o),
(266,-108,c),
(152,-108,l),
(152,-324,o),
(261,-418,o),
(576,-418,cs),
(879,-418,o),
(1060,-310,o),
(1060,-106,cs),
(1060,51,o),
(899,173,o),
(697,173,cs),
(503,173,ls),
(392,173,o),
(355,213,o),
(355,268,cs),
(355,313,o),
(381,357,o),
(415,383,c),
(461,367,o),
(504,360,o),
(583,360,cs),
(824,360,o),
(963,510,o),
(963,719,cs),
(963,834,o),
(905,926,o),
(786,981,c),
(900,981,o),
(1000,982,o),
(1095,1009,c),
(1049,1145,l)
);
},
{
closed = 1;
nodes = (
(741,972,o),
(827,880,o),
(827,710,cs),
(827,545,o),
(739,446,o),
(578,446,cs),
(384,446,o),
(299,559,o),
(299,709,cs),
(299,859,o),
(382,972,o),
(572,972,cs)
);
}
);
width = 1200;
}
);
tags = (
lower
);
unicode = 103;
},
{
glyphname = h;
lastChange = "2025-02-08 14:45:07 +0000";
layers = (
{
anchors = (
{
name = bottom;
pos = (600,0);
},
{
name = center;
pos = (600,526);
},
{
name = top;
pos = (600,1467);
}
);
layerId = "4B7A3BAF-EAD8-4024-9BEA-BB1DE86CFCFA";
shapes = (
{
closed = 1;
nodes = (
(140,1467,l),
(140,0,l),
(456,0,l),
(456,726,l),
(516,805,o),
(575,852,o),
(642,852,cs),
(720,852,o),
(744,809,o),
(744,683,cs),
(744,0,l),
(1060,0,l),
(1060,772,ls),
(1060,970,o),
(957,1085,o),
(768,1085,cs),
(651,1085,o),
(545,1040,o),
(456,947,c),
(456,1498,l)
);
}
);
width = 1200;
},
{
anchors = (
{
name = bottom;
pos = (600,0);
},
{
name = center;
pos = (600,526);
},
{
name = top;
pos = (600,1475);
}
);
layerId = "B67F0F2D-EC95-4CB8-966E-23AE86958A69";
shapes = (
{
closed = 1;
nodes = (
(219,1472,l),
(219,0,l),
(343,0,l),
(343,777,l),
(397,860,o),
(518,966,o),
(654,966,cs),
(793,966,o),
(860,907,o),
(860,782,cs),
(860,0,l),
(984,0,l),
(984,760,ls),
(984,953,o),
(897,1069,o),
(686,1069,cs),
(560,1069,o),
(424,1009,o),
(343,895,c),
(343,1487,l)
);
}
);
width = 1200;
}
);
tags = (
lower
);
unicode = 104;
},
{
glyphname = hbar;
lastChange = "2025-02-08 14:45:07 +0000";
layers = (
{
layerId = "4B7A3BAF-EAD8-4024-9BEA-BB1DE86CFCFA";
shapes = (
{
closed = 1;
nodes = (
(140,1357,l),
(17,1357,l),
(17,1172,l),
(456,1172,l),
(737,1172,l),
(737,1357,l)
);
},
{
alignment = -1;
ref = h;
}
);
width = 1200;
},
{
layerId = "B67F0F2D-EC95-4CB8-966E-23AE86958A69";
shapes = (
{
closed = 1;
nodes = (
(219,1317,l),
(45,1317,l),
(45,1198,l),
(343,1198,l),
(698,1198,l),
(698,1317,l)
);
},
{
alignment = -1;
ref = h;
}
);
width = 1200;
}
);
tags = (
lower
);
unicode = 295;
},
{
glyphname = i;
lastChange = "2025-02-08 14:45:07 +0000";
layers = (
{
anchors = (
{
name = bottom;
pos = (600,0);
}
);
layerId = "4B7A3BAF-EAD8-4024-9BEA-BB1DE86CFCFA";
shapes = (
{
closed = 1;
nodes = (
(182,1050,l),
(182,835,l),
(473,835,l),
(473,216,l),
(172,216,l),
(172,0,l),
(1059,0,l),
(1059,216,l),
(789,216,l),
(789,1050,l)
);
},
{
closed = 1;
nodes = (
(487,1601,o),
(410,1524,o),
(410,1424,cs),
(410,1323,o),
(487,1246,o),
(598,1246,cs),
(707,1246,o),
(784,1324,o),
(784,1424,cs),
(784,1524,o),
(707,1601,o),
(598,1601,cs)
);
}
);
width = 1200;
},
{
anchors = (
{
name = bottom;
pos = (600,0);
}
);
layerId = "B67F0F2D-EC95-4CB8-966E-23AE86958A69";
shapes = (
{
closed = 1;
nodes = (
(272,1050,l),
(272,942,l),
(594,942,l),
(594,108,l),
(262,108,l),
(262,0,l),
(1023,0,l),
(1023,108,l),
(718,108,l),
(718,1050,l)
);
},
{
closed = 1;
nodes = (
(541,1525,o),
(500,1481,o),
(500,1426,cs),
(500,1367,o),
(541,1323,o),
(601,1323,cs),
(665,1323,o),
(705,1367,o),
(705,1426,cs),
(705,1481,o),
(665,1525,o),
(601,1525,cs)
);
}
);
width = 1200;
}
);
tags = (
lower
);
unicode = 105;
},
{
glyphname = idotless;
lastChange = "2025-02-08 14:45:07 +0000";
layers = (
{
anchors = (
{
name = ogonek;
pos = (809,0);
},
{
name = top;
pos = (598,1050);
}
);
layerId = "4B7A3BAF-EAD8-4024-9BEA-BB1DE86CFCFA";
shapes = (
{
closed = 1;
nodes = (
(182,1050,l),
(182,835,l),
(473,835,l),
(473,216,l),
(172,216,l),
(172,0,l),
(1059,0,l),
(1059,216,l),
(789,216,l),
(789,1050,l)
);
}
);
width = 1200;
},
{
anchors = (
{
name = ogonek;
pos = (738,0);
},
{
name = top;
pos = (604,1050);
}
);
layerId = "B67F0F2D-EC95-4CB8-966E-23AE86958A69";
shapes = (
{
closed = 1;
nodes = (
(272,1050,l),
(272,942,l),
(594,942,l),
(594,108,l),
(262,108,l),
(262,0,l),
(1023,0,l),
(1023,108,l),
(718,108,l),
(718,1050,l)
);
}
);
width = 1200;
}
);
tags = (
lower
);
unicode = 305;
},
{
glyphname = ij;
lastChange = "2025-02-08 14:45:07 +0000";
layers = (
{
layerId = "4B7A3BAF-EAD8-4024-9BEA-BB1DE86CFCFA";
shapes = (
{
closed = 1;
nodes = (
(81,1050,l),
(81,837,l),
(208,837,l),
(208,216,l),
(71,216,l),
(71,0,l),
(624,0,l),
(624,216,l),
(520,216,l),
(520,837,l),
(776,837,l),
(776,217,ls),
(776,-46,o),
(645,-127,o),
(385,-206,c),
(490,-438,l),
(871,-324,o),
(1090,-170,o),
(1090,244,cs),
(1090,1050,l)
);
},
{
closed = 1;
nodes = (
(255,1601,o),
(178,1524,o),
(178,1424,cs),
(178,1323,o),
(255,1246,o),
(364,1246,cs),
(475,1246,o),
(554,1324,o),
(554,1424,cs),
(554,1524,o),
(475,1601,o),
(364,1601,cs)
);
},
{
closed = 1;
nodes = (
(803,1601,o),
(723,1524,o),
(723,1424,cs),
(723,1323,o),
(803,1246,o),
(912,1246,cs),
(1021,1246,o),
(1100,1324,o),
(1100,1424,cs),
(1100,1524,o),
(1021,1601,o),
(912,1601,cs)
);
}
);
width = 1200;
},
{
layerId = "B67F0F2D-EC95-4CB8-966E-23AE86958A69";
shapes = (
{
closed = 1;
nodes = (
(115,1050,l),
(115,947,l),
(307,947,l),
(307,108,l),
(105,108,l),
(105,0,l),
(641,0,l),
(641,108,l),
(424,108,l),
(424,947,l),
(855,947,l),
(855,64,ls),
(855,-144,o),
(626,-246,o),
(456,-318,c),
(490,-418,l),
(741,-334,o),
(974,-184,o),
(974,69,cs),
(974,1050,l)
);
},
{
closed = 1;
nodes = (
(309,1525,o),
(268,1481,o),
(268,1426,cs),
(268,1367,o),
(309,1323,o),
(370,1323,cs),
(430,1323,o),
(472,1367,o),
(472,1426,cs),
(472,1481,o),
(430,1525,o),
(370,1525,cs)
);
},
{
closed = 1;
nodes = (
(831,1525,o),
(791,1481,o),
(791,1426,cs),
(791,1367,o),
(831,1323,o),
(892,1323,cs),
(953,1323,o),
(995,1367,o),
(995,1426,cs),
(995,1481,o),
(953,1525,o),
(892,1525,cs)
);
}
);
width = 1200;
}
);
tags = (
lower
);
unicode = 307;
},
{
glyphname = j;
lastChange = "2025-02-08 14:49:12 +0000";
layers = (
{
anchors = (
{
name = bottom;
pos = (600,-439);
},
{
name = top;
pos = (740,1050);
}
);
layerId = "4B7A3BAF-EAD8-4024-9BEA-BB1DE86CFCFA";
shapes = (
{
closed = 1;
nodes = (
(247,1050,l),
(247,835,l),
(629,835,l),
(629,288,ls),
(629,-18,o),
(461,-125,o),
(139,-198,c),
(189,-438,l),
(684,-342,o),
(945,-151,o),
(945,308,cs),
(945,1050,l)
);
},
{
closed = 1;
nodes = (
(629,1601,o),
(552,1524,o),
(552,1424,cs),
(552,1323,o),
(629,1246,o),
(740,1246,cs),
(849,1246,o),
(926,1324,o),
(926,1424,cs),
(926,1524,o),
(849,1601,o),
(740,1601,cs)
);
}
);
width = 1200;
},
{
anchors = (
{
name = bottom;
pos = (600,-386);
},
{
name = top;
pos = (734,1050);
}
);
layerId = "B67F0F2D-EC95-4CB8-966E-23AE86958A69";
shapes = (
{
closed = 1;
nodes = (
(295,1050,l),
(295,942,l),
(750,942,l),
(750,119,ls),
(750,-156,o),
(515,-276,o),
(207,-321,c),
(228,-418,l),
(631,-355,o),
(874,-192,o),
(874,128,cs),
(874,1050,l)
);
},
{
closed = 1;
nodes = (
(671,1525,o),
(631,1481,o),
(631,1426,cs),
(631,1367,o),
(671,1323,o),
(731,1323,cs),
(795,1323,o),
(836,1367,o),
(836,1426,cs),
(836,1481,o),
(795,1525,o),
(731,1525,cs)
);
}
);
width = 1200;
}
);
tags = (
lower
);
unicode = 106;
},
{
glyphname = dotlessj;
lastChange = "2025-02-08 14:45:07 +0000";
layers = (
{
anchors = (
{
name = top;
pos = (740,1050);
}
);
layerId = "4B7A3BAF-EAD8-4024-9BEA-BB1DE86CFCFA";
shapes = (
{
closed = 1;
nodes = (
(247,1050,l),
(247,835,l),
(629,835,l),
(629,288,ls),
(629,-18,o),
(461,-125,o),
(139,-198,c),
(189,-438,l),
(684,-342,o),
(945,-151,o),
(945,308,cs),
(945,1050,l)
);
}
);
width = 1200;
},
{
anchors = (
{
name = top;
pos = (734,1050);
}
);
layerId = "B67F0F2D-EC95-4CB8-966E-23AE86958A69";
shapes = (
{
closed = 1;
nodes = (
(295,1050,l),
(295,942,l),
(750,942,l),
(750,119,ls),
(750,-156,o),
(515,-276,o),
(207,-321,c),
(228,-418,l),
(631,-355,o),
(874,-192,o),
(874,128,cs),
(874,1050,l)
);
}
);
width = 1200;
}
);
tags = (
lower
);
unicode = 567;
},
{
glyphname = k;
lastChange = "2025-02-08 14:45:07 +0000";
layers = (
{
anchors = (
{
name = bottom;
pos = (600,0);
},
{
name = top;
pos = (600,1467);
}
);
layerId = "4B7A3BAF-EAD8-4024-9BEA-BB1DE86CFCFA";
shapes = (
{
closed = 1;
nodes = (
(817,1050,l),
(468,576,l),
(817,0,l),
(1177,0,l),
(799,586,l),
(1148,1050,l)
);
},
{
closed = 1;
nodes = (
(140,1467,l),
(140,0,l),
(456,0,l),
(456,1500,l)
);
}
);
width = 1200;
},
{
anchors = (
{
name = bottom;
pos = (614,0);
},
{
name = top;
pos = (600,1475);
}
);
layerId = "B67F0F2D-EC95-4CB8-966E-23AE86958A69";
shapes = (
{
closed = 1;
nodes = (
(879,1050,l),
(378,573,l),
(947,0,l),
(1126,0,l),
(553,575,l),
(1064,1050,l)
);
},
{
closed = 1;
nodes = (
(233,1475,l),
(233,0,l),
(357,0,l),
(357,1492,l)
);
}
);
width = 1200;
}
);
tags = (
lower
);
unicode = 107;
},
{
glyphname = kgreenlandic;
lastChange = "2025-02-08 14:45:07 +0000";
layers = (
{
anchors = (
{
name = bottom;
pos = (600,0);
},
{
name = top;
pos = (600,1050);
}
);
layerId = "4B7A3BAF-EAD8-4024-9BEA-BB1DE86CFCFA";
shapes = (
{
closed = 1;
nodes = (
(817,1050,l),
(468,545,l),
(816,0,l),
(1177,0,l),
(797,567,l),
(1148,1050,l)
);
},
{
closed = 1;
nodes = (
(140,1050,l),
(140,0,l),
(456,0,l),
(456,1050,l)
);
}
);
width = 1200;
},
{
anchors = (
{
name = bottom;
pos = (600,0);
},
{
name = top;
pos = (600,1050);
}
);
layerId = "B67F0F2D-EC95-4CB8-966E-23AE86958A69";
shapes = (
{
closed = 1;
nodes = (
(865,1050,l),
(363,569,l),
(932,0,l),
(1112,0,l),
(534,577,l),
(1049,1050,l)
);
},
{
closed = 1;
nodes = (
(219,1050,l),
(219,0,l),
(343,0,l),
(343,1050,l)
);
}
);
width = 1200;
}
);
tags = (
lower
);
unicode = 312;
},
{
glyphname = l;
lastChange = "2025-02-08 14:45:07 +0000";
layers = (
{
anchors = (
{
name = bottom;
pos = (710,0);
},
{
name = center;
pos = (1136,757);
},
{
name = middle;
pos = (536,757);
},
{
name = top;
pos = (512,1467);
},
{
name = topright;
pos = (754,1467);
}
);
layerId = "4B7A3BAF-EAD8-4024-9BEA-BB1DE86CFCFA";
shapes = (
{
closed = 1;
nodes = (
(65,1467,l),
(65,1252,l),
(378,1252,l),
(378,371,ls),
(378,125,o),
(494,-34,o),
(750,-34,cs),
(885,-34,o),
(985,-2,o),
(1057,36,c),
(981,246,l),
(938,229,o),
(886,215,o),
(831,215,cs),
(746,215,o),
(694,248,o),
(694,332,cs),
(694,1467,l)
);
}
);
width = 1200;
},
{
anchors = (
{
name = bottom;
pos = (724,0);
},
{
name = center;
pos = (1116,766);
},
{
name = middle;
pos = (524,766);
},
{
name = top;
pos = (535,1475);
},
{
name = topright;
pos = (675,1475);
}
);
layerId = "B67F0F2D-EC95-4CB8-966E-23AE86958A69";
shapes = (
{
closed = 1;
nodes = (
(136,1475,l),
(136,1367,l),
(462,1367,l),
(462,238,ls),
(462,74,o),
(593,-20,o),
(759,-20,cs),
(857,-20,o),
(940,4,o),
(992,30,c),
(956,126,l),
(895,102,o),
(837,88,o),
(771,88,cs),
(664,88,o),
(586,129,o),
(586,238,cs),
(586,1475,l)
);
}
);
width = 1200;
}
);
tags = (
lower
);
unicode = 108;
},
{
glyphname = m;
lastChange = "2025-02-08 14:45:07 +0000";
layers = (
{
anchors = (
{
name = bottom;
pos = (600,0);
},
{
name = top;
pos = (600,1050);
}
);
layerId = "4B7A3BAF-EAD8-4024-9BEA-BB1DE86CFCFA";
shapes = (
{
closed = 1;
nodes = (
(831,1085,o),
(755,1034,o),
(691,961,c),
(667,1046,o),
(608,1085,o),
(528,1085,cs),
(434,1085,o),
(372,1038,o),
(306,949,c),
(285,1050,l),
(53,1050,l),
(53,0,l),
(328,0,l),
(328,773,l),
(369,824,o),
(405,840,o),
(438,840,cs),
(481,840,o),
(491,813,o),
(491,741,cs),
(491,0,l),
(713,0,l),
(713,773,l),
(754,824,o),
(790,840,o),
(823,840,cs),
(866,840,o),
(876,813,o),
(876,741,cs),
(876,0,l),
(1147,0,l),
(1147,777,ls),
(1147,993,o),
(1076,1085,o),
(925,1085,cs)
);
}
);
width = 1200;
},
{
anchors = (
{
name = bottom;
pos = (600,0);
},
{
name = top;
pos = (600,1050);
}
);
layerId = "B67F0F2D-EC95-4CB8-966E-23AE86958A69";
shapes = (
{
closed = 1;
nodes = (
(774,1069,o),
(710,1011,o),
(655,926,c),
(619,1041,o),
(535,1069,o),
(455,1069,cs),
(347,1069,o),
(279,1001,o),
(224,923,c),
(217,1050,l),
(115,1050,l),
(115,0,l),
(235,0,l),
(235,828,l),
(297,929,o),
(366,971,o),
(441,971,cs),
(526,971,o),
(530,908,o),
(530,759,cs),
(530,0,l),
(668,0,l),
(668,828,l),
(730,929,o),
(802,971,o),
(874,971,cs),
(959,971,o),
(963,908,o),
(963,759,cs),
(963,0,l),
(1085,0,l),
(1085,783,ls),
(1085,1033,o),
(971,1069,o),
(886,1069,cs)
);
}
);
width = 1200;
}
);
tags = (
lower
);
unicode = 109;
},
{
glyphname = n;
lastChange = "2025-02-08 14:45:07 +0000";
layers = (
{
anchors = (
{
name = bottom;
pos = (602,0);
},
{
name = top;
pos = (602,1050);
}
);
layerId = "4B7A3BAF-EAD8-4024-9BEA-BB1DE86CFCFA";
shapes = (
{
closed = 1;
nodes = (
(456,0,l),
(456,734,l),
(516,809,o),
(575,852,o),
(642,852,cs),
(720,852,o),
(744,809,o),
(744,682,cs),
(744,0,l),
(1060,0,l),
(1060,772,ls),
(1060,970,o),
(949,1085,o),
(768,1085,cs),
(634,1085,o),
(532,1034,o),
(438,929,c),
(416,1050,l),
(140,1050,l),
(140,0,l)
);
}
);
width = 1200;
},
{
anchors = (
{
name = bottom;
pos = (602,0);
},
{
name = top;
pos = (599,1050);
}
);
layerId = "B67F0F2D-EC95-4CB8-966E-23AE86958A69";
shapes = (
{
closed = 1;
nodes = (
(343,0,l),
(343,774,l),
(397,858,o),
(515,966,o),
(656,966,cs),
(839,966,o),
(860,867,o),
(860,627,cs),
(860,0,l),
(984,0,l),
(984,760,ls),
(984,953,o),
(901,1069,o),
(686,1069,cs),
(568,1069,o),
(416,1006,o),
(333,897,c),
(323,1050,l),
(219,1050,l),
(219,0,l)
);
}
);
width = 1200;
}
);
tags = (
lower
);
unicode = 110;
},
{
glyphname = napostrophe;
lastChange = "2025-02-08 14:45:07 +0000";
layers = (
{
layerId = "4B7A3BAF-EAD8-4024-9BEA-BB1DE86CFCFA";
shapes = (
{
closed = 1;
nodes = (
(31,1510,o),
(-35,1442,o),
(-35,1362,cs),
(-35,1305,o),
(-7,1266,o),
(29,1238,c),
(-14,1058,l),
(143,1058,l),
(225,1216,ls),
(255,1274,o),
(271,1311,o),
(271,1362,cs),
(271,1447,o),
(206,1510,o),
(118,1510,cs)
);
},
{
alignment = -1;
pos = (39,0);
ref = n;
}
);
width = 1200;
},
{
layerId = "B67F0F2D-EC95-4CB8-966E-23AE86958A69";
shapes = (
{
closed = 1;
nodes = (
(76,1496,o),
(30,1458,o),
(30,1401,cs),
(30,1372,o),
(47,1343,o),
(71,1321,c),
(6,1067,l),
(89,1067,l),
(171,1244,ls),
(219,1346,o),
(226,1375,o),
(226,1401,cs),
(226,1455,o),
(183,1496,o),
(130,1496,cs)
);
},
{
alignment = -1;
pos = (11,0);
ref = n;
}
);
width = 1200;
}
);
tags = (
lower
);
unicode = 329;
},
{
glyphname = eng;
lastChange = "2025-02-08 14:45:07 +0000";
layers = (
{
layerId = "4B7A3BAF-EAD8-4024-9BEA-BB1DE86CFCFA";
shapes = (
{
closed = 1;
nodes = (
(1060,772,ls),
(1060,970,o),
(957,1085,o),
(768,1085,cs),
(643,1085,o),
(532,1034,o),
(438,929,c),
(416,1050,l),
(140,1050,l),
(140,0,l),
(456,0,l),
(456,726,l),
(516,805,o),
(575,852,o),
(642,852,cs),
(722,852,o),
(744,809,o),
(744,682,cs),
(744,101,ls),
(744,-89,o),
(664,-149,o),
(527,-208,c),
(637,-439,l),
(891,-337,o),
(1060,-226,o),
(1060,120,cs)
);
}
);
width = 1200;
},
{
layerId = "B67F0F2D-EC95-4CB8-966E-23AE86958A69";
shapes = (
{
closed = 1;
nodes = (
(984,760,ls),
(984,953,o),
(897,1069,o),
(686,1069,cs),
(563,1069,o),
(416,1006,o),
(333,897,c),
(323,1050,l),
(219,1050,l),
(219,0,l),
(343,0,l),
(343,777,l),
(397,860,o),
(518,966,o),
(654,966,cs),
(841,966,o),
(860,867,o),
(860,627,cs),
(860,30,ls),
(860,-211,o),
(797,-260,o),
(659,-325,c),
(708,-415,l),
(901,-326,o),
(984,-245,o),
(984,38,cs)
);
}
);
width = 1200;
}
);
tags = (
lower
);
unicode = 331;
},
{
glyphname = o;
lastChange = "2025-02-08 14:45:07 +0000";
layers = (
{
anchors = (
{
name = bottom;
pos = (600,0);
},
{
name = top;
pos = (600,1050);
}
);
layerId = "4B7A3BAF-EAD8-4024-9BEA-BB1DE86CFCFA";
shapes = (
{
closed = 1;
nodes = (
(275,1085,o),
(84,860,o),
(84,526,cs),
(84,173,o),
(275,-34,o),
(600,-34,cs),
(925,-34,o),
(1116,177,o),
(1116,528,cs),
(1116,864,o),
(927,1085,o),
(600,1085,cs)
);
},
{
closed = 1;
nodes = (
(729,852,o),
(790,753,o),
(790,528,cs),
(790,295,o),
(729,198,o),
(600,198,cs),
(471,198,o),
(410,295,o),
(410,526,cs),
(410,753,o),
(471,852,o),
(600,852,cs)
);
}
);
width = 1200;
},
{
anchors = (
{
name = bottom;
pos = (600,0);
},
{
name = top;
pos = (600,1050);
}
);
layerId = "B67F0F2D-EC95-4CB8-966E-23AE86958A69";
shapes = (
{
closed = 1;
nodes = (
(314,1069,o),
(166,844,o),
(166,523,cs),
(166,200,o),
(311,-20,o),
(600,-20,cs),
(886,-20,o),
(1034,213,o),
(1034,525,cs),
(1034,857,o),
(891,1069,o),
(603,1069,cs)
);
},
{
closed = 1;
nodes = (
(797,960,o),
(898,820,o),
(898,525,cs),
(898,232,o),
(797,90,o),
(600,90,cs),
(403,90,o),
(302,232,o),
(302,523,cs),
(302,820,o),
(406,960,o),
(603,960,cs)
);
}
);
width = 1200;
}
);
tags = (
lower
);
unicode = 111;
},
{
glyphname = oslash;
lastChange = "2025-02-08 14:45:07 +0000";
layers = (
{
anchors = (
{
name = top;
pos = (600,1050);
}
);
layerId = "4B7A3BAF-EAD8-4024-9BEA-BB1DE86CFCFA";
shapes = (
{
closed = 1;
nodes = (
(275,1085,o),
(84,860,o),
(84,526,cs),
(84,173,o),
(275,-34,o),
(600,-34,cs),
(925,-34,o),
(1116,177,o),
(1116,528,cs),
(1116,864,o),
(927,1085,o),
(600,1085,cs)
);
},
{
closed = 1;
nodes = (
(657,1065,l),
(643,892,l),
(432,243,l),
(322,65,l),
(231,-203,l),
(463,-271,l),
(543,-14,l),
(561,156,l),
(768,793,l),
(883,987,l),
(969,1244,l),
(739,1311,l)
);
},
{
closed = 1;
nodes = (
(755,859,o),
(796,779,o),
(796,528,cs),
(796,289,o),
(735,192,o),
(600,192,cs),
(445,192,o),
(404,270,o),
(404,526,cs),
(404,759,o),
(465,859,o),
(600,859,cs)
);
}
);
width = 1200;
},
{
anchors = (
{
name = top;
pos = (600,1050);
}
);
layerId = "B67F0F2D-EC95-4CB8-966E-23AE86958A69";
shapes = (
{
closed = 1;
nodes = (
(314,1069,o),
(166,844,o),
(166,523,cs),
(166,200,o),
(326,-20,o),
(600,-20,cs),
(886,-20,o),
(1034,213,o),
(1034,525,cs),
(1034,857,o),
(876,1069,o),
(603,1069,cs)
);
},
{
closed = 1;
nodes = (
(708,1049,l),
(691,991,l),
(426,128,l),
(395,60,l),
(302,-223,l),
(415,-257,l),
(492,6,l),
(522,97,l),
(788,963,l),
(812,1001,l),
(901,1270,l),
(787,1303,l)
);
},
{
closed = 1;
nodes = (
(786,957,o),
(895,837,o),
(895,525,cs),
(895,234,o),
(795,93,o),
(600,93,cs),
(414,93,o),
(305,214,o),
(305,523,cs),
(305,817,o),
(408,957,o),
(603,957,cs)
);
}
);
width = 1200;
}
);
tags = (
lower
);
unicode = 248;
},
{
glyphname = oe;
lastChange = "2025-02-08 14:45:07 +0000";
layers = (
{
layerId = "4B7A3BAF-EAD8-4024-9BEA-BB1DE86CFCFA";
shapes = (
{
closed = 1;
nodes = (
(743,1085,o),
(662,1018,o),
(610,921,c),
(562,1024,o),
(488,1085,o),
(352,1085,cs),
(96,1085,o),
(-16,859,o),
(-16,526,cs),
(-16,173,o),
(98,-34,o),
(352,-34,cs),
(482,-34,o),
(556,26,o),
(604,122,c),
(668,24,o),
(768,-34,o),
(908,-34,cs),
(1038,-34,o),
(1132,13,o),
(1211,79,c),
(1093,237,l),
(1035,196,o),
(986,173,o),
(924,173,cs),
(813,173,o),
(753,257,o),
(737,447,c),
(1207,447,l),
(1210,479,o),
(1212,510,o),
(1212,546,cs),
(1212,893,o),
(1122,1085,o),
(877,1085,cs)
);
},
{
closed = 1;
nodes = (
(449,852,o),
(481,765,o),
(481,528,cs),
(481,275,o),
(449,198,o),
(364,198,cs),
(277,198,o),
(246,279,o),
(246,526,cs),
(246,765,o),
(277,852,o),
(364,852,cs)
);
},
{
closed = 1;
nodes = (
(952,888,o),
(972,803,o),
(974,617,c),
(735,617,l),
(745,822,o),
(786,888,o),
(865,888,cs)
);
}
);
width = 1200;
},
{
layerId = "B67F0F2D-EC95-4CB8-966E-23AE86958A69";
shapes = (
{
closed = 1;
nodes = (
(750,1069,o),
(668,975,o),
(622,851,c),
(576,981,o),
(502,1069,o),
(329,1069,cs),
(96,1069,o),
(-2,844,o),
(-2,523,cs),
(-2,200,o),
(101,-20,o),
(329,-20,cs),
(494,-20,o),
(570,69,o),
(621,196,c),
(671,59,o),
(771,-20,o),
(920,-20,cs),
(1026,-20,o),
(1102,20,o),
(1183,83,c),
(1118,185,l),
(1048,132,o),
(998,101,o),
(918,101,cs),
(771,101,o),
(708,217,o),
(689,469,c),
(1232,469,l),
(1233,493,o),
(1235,525,o),
(1235,561,cs),
(1235,872,o),
(1134,1069,o),
(905,1069,cs)
);
},
{
closed = 1;
nodes = (
(494,963,o),
(546,817,o),
(546,525,cs),
(546,212,o),
(497,90,o),
(352,90,cs),
(209,90,o),
(153,224,o),
(153,523,cs),
(153,814,o),
(209,963,o),
(352,963,cs)
);
},
{
closed = 1;
nodes = (
(1045,947,o),
(1088,821,o),
(1093,589,c),
(690,589,l),
(709,852,o),
(769,947,o),
(901,947,cs)
);
}
);
width = 1200;
}
);
tags = (
lower
);
unicode = 339;
},
{
glyphname = p;
lastChange = "2025-02-08 14:45:07 +0000";
layers = (
{
anchors = (
{
name = bottom;
pos = (600,-439);
},
{
name = top;
pos = (600,1050);
}
);
layerId = "4B7A3BAF-EAD8-4024-9BEA-BB1DE86CFCFA";
shapes = (
{
closed = 1;
nodes = (
(628,1085,o),
(520,1042,o),
(434,933,c),
(420,1050,l),
(140,1050,l),
(140,-438,l),
(456,-406,l),
(456,76,l),
(520,4,o),
(603,-34,o),
(708,-34,cs),
(967,-34,o),
(1116,204,o),
(1116,528,cs),
(1116,869,o),
(1005,1085,o),
(728,1085,cs)
);
},
{
closed = 1;
nodes = (
(730,852,o),
(790,784,o),
(790,524,cs),
(790,289,o),
(724,198,o),
(612,198,cs),
(545,198,o),
(500,227,o),
(456,291,c),
(456,732,l),
(501,805,o),
(556,852,o),
(630,852,cs)
);
}
);
width = 1200;
},
{
anchors = (
{
name = bottom;
pos = (600,-386);
},
{
name = top;
pos = (600,1050);
}
);
layerId = "B67F0F2D-EC95-4CB8-966E-23AE86958A69";
shapes = (
{
closed = 1;
nodes = (
(520,1069,o),
(410,1002,o),
(335,895,c),
(321,1050,l),
(219,1050,l),
(219,-418,l),
(343,-401,l),
(343,105,l),
(415,21,o),
(511,-20,o),
(629,-20,cs),
(907,-20,o),
(1034,209,o),
(1034,525,cs),
(1034,851,o),
(937,1069,o),
(655,1069,cs)
);
},
{
closed = 1;
nodes = (
(817,963,o),
(898,806,o),
(898,527,cs),
(898,234,o),
(803,93,o),
(609,93,cs),
(500,93,o),
(401,149,o),
(343,236,c),
(343,780,l),
(403,868,o),
(503,963,o),
(633,963,cs)
);
}
);
width = 1200;
}
);
metricLeft = b;
tags = (
lower
);
unicode = 112;
},
{
glyphname = thorn;
lastChange = "2025-02-08 14:45:07 +0000";
layers = (
{
anchors = (
{
name = bottom;
pos = (600,-439);
},
{
name = top;
pos = (600,1467);
}
);
layerId = "4B7A3BAF-EAD8-4024-9BEA-BB1DE86CFCFA";
shapes = (
{
closed = 1;
nodes = (
(140,1467,l),
(140,-438,l),
(456,-406,l),
(456,76,l),
(520,4,o),
(603,-34,o),
(708,-34,cs),
(967,-34,o),
(1116,204,o),
(1116,528,cs),
(1116,869,o),
(1005,1085,o),
(728,1085,cs),
(617,1085,o),
(521,1035,o),
(456,945,c),
(456,1500,l)
);
},
{
closed = 1;
nodes = (
(730,852,o),
(790,784,o),
(790,524,cs),
(790,289,o),
(724,198,o),
(612,198,cs),
(545,198,o),
(500,227,o),
(456,291,c),
(456,732,l),
(501,805,o),
(556,852,o),
(630,852,cs)
);
}
);
width = 1200;
},
{
anchors = (
{
name = bottom;
pos = (600,-386);
},
{
name = top;
pos = (600,1475);
}
);
layerId = "B67F0F2D-EC95-4CB8-966E-23AE86958A69";
shapes = (
{
closed = 1;
nodes = (
(219,1475,l),
(219,-418,l),
(343,-401,l),
(343,105,l),
(415,21,o),
(511,-20,o),
(629,-20,cs),
(907,-20,o),
(1034,209,o),
(1034,525,cs),
(1034,851,o),
(937,1069,o),
(655,1069,cs),
(534,1069,o),
(424,1014,o),
(343,913,c),
(343,1492,l)
);
},
{
closed = 1;
nodes = (
(817,963,o),
(898,806,o),
(898,527,cs),
(898,234,o),
(803,93,o),
(609,93,cs),
(500,93,o),
(401,149,o),
(343,236,c),
(343,780,l),
(403,868,o),
(503,963,o),
(633,963,cs)
);
}
);
width = 1200;
}
);
tags = (
lower
);
unicode = 254;
},
{
glyphname = q;
lastChange = "2025-02-08 14:45:07 +0000";
layers = (
{
anchors = (
{
name = bottom;
pos = (600,-439);
},
{
name = top;
pos = (600,1050);
}
);
layerId = "4B7A3BAF-EAD8-4024-9BEA-BB1DE86CFCFA";
shapes = (
{
closed = 1;
nodes = (
(237,1085,o),
(84,851,o),
(84,528,cs),
(84,188,o),
(199,-34,o),
(472,-34,cs),
(598,-34,o),
(682,16,o),
(744,87,c),
(744,-406,l),
(1060,-438,l),
(1060,1050,l),
(784,1050,l),
(770,967,l),
(706,1044,o),
(613,1085,o),
(509,1085,cs)
);
},
{
closed = 1;
nodes = (
(657,854,o),
(702,823,o),
(744,770,c),
(744,318,l),
(699,242,o),
(644,200,o),
(572,200,cs),
(474,200,o),
(410,268,o),
(410,526,cs),
(410,761,o),
(476,854,o),
(592,854,cs)
);
}
);
width = 1200;
},
{
anchors = (
{
name = bottom;
pos = (600,-386);
},
{
name = top;
pos = (600,1050);
}
);
layerId = "B67F0F2D-EC95-4CB8-966E-23AE86958A69";
shapes = (
{
closed = 1;
nodes = (
(302,1069,o),
(166,836,o),
(166,522,cs),
(166,196,o),
(267,-20,o),
(554,-20,cs),
(665,-20,o),
(775,28,o),
(857,146,c),
(857,-401,l),
(981,-418,l),
(981,1050,l),
(877,1050,l),
(863,926,l),
(790,1019,o),
(693,1069,o),
(560,1069,cs)
);
},
{
closed = 1;
nodes = (
(699,962,o),
(798,907,o),
(857,813,c),
(857,267,l),
(796,177,o),
(699,92,o),
(569,92,cs),
(387,92,o),
(302,247,o),
(302,523,cs),
(302,813,o),
(397,962,o),
(589,962,cs)
);
}
);
width = 1200;
}
);
tags = (
lower
);
unicode = 113;
},
{
glyphname = r;
lastChange = "2025-02-08 14:45:07 +0000";
layers = (
{
anchors = (
{
name = bottom;
pos = (448,0);
},
{
name = top;
pos = (650,1050);
}
);
layerId = "4B7A3BAF-EAD8-4024-9BEA-BB1DE86CFCFA";
shapes = (
{
closed = 1;
nodes = (
(816,0,l),
(816,212,l),
(606,212,l),
(606,509,l),
(661,680,o),
(769,805,o),
(908,805,cs),
(955,805,o),
(991,799,o),
(1030,789,c),
(1126,1050,l),
(1076,1070,o),
(1023,1082,o),
(951,1082,cs),
(780,1082,o),
(665,994,o),
(589,814,c),
(531,1050,l),
(150,1050,l),
(150,841,l),
(290,841,l),
(290,212,l),
(150,212,l),
(150,0,l)
);
},
{
closed = 1;
nodes = (
(1067,609,l),
(1126,1050,l),
(916,1050,l),
(869,918,l),
(869,609,l)
);
}
);
width = 1200;
},
{
anchors = (
{
name = bottom;
pos = (462,0);
},
{
name = top;
pos = (664,1050);
}
);
layerId = "B67F0F2D-EC95-4CB8-966E-23AE86958A69";
shapes = (
{
closed = 1;
nodes = (
(740,0,l),
(740,104,l),
(524,104,l),
(524,592,l),
(599,841,o),
(715,952,o),
(885,952,cs),
(930,952,o),
(960,946,o),
(1007,933,c),
(1042,1050,l),
(994,1062,o),
(955,1071,o),
(900,1071,cs),
(704,1071,o),
(600,969,o),
(518,798,c),
(495,1050,l),
(229,1050,l),
(229,945,l),
(400,945,l),
(400,104,l),
(229,104,l),
(229,0,l)
);
},
{
closed = 1;
nodes = (
(1028,720,l),
(1042,1050,l),
(916,1050,l),
(908,925,l),
(908,720,l)
);
}
);
width = 1200;
}
);
tags = (
lower
);
unicode = 114;
},
{
glyphname = s;
lastChange = "2025-02-08 14:45:07 +0000";
layers = (
{
anchors = (
{
name = bottom;
pos = (602,0);
},
{
name = top;
pos = (626,1050);
}
);
layerId = "4B7A3BAF-EAD8-4024-9BEA-BB1DE86CFCFA";
shapes = (
{
closed = 1;
nodes = (
(441,192,o),
(335,240,o),
(254,302,c),
(95,125,l),
(204,30,o),
(362,-34,o),
(568,-34,cs),
(838,-34,o),
(1070,83,o),
(1070,314,cs),
(1070,521,o),
(934,589,o),
(733,646,cs),
(521,706,o),
(479,727,o),
(479,781,cs),
(479,835,o),
(528,861,o),
(631,861,cs),
(733,861,o),
(837,826,o),
(926,772,c),
(1052,957,l),
(948,1032,o),
(811,1085,o),
(622,1085,cs),
(323,1085,o),
(161,947,o),
(161,760,cs),
(161,574,o),
(295,489,o),
(489,437,cs),
(702,380,o),
(742,356,o),
(742,289,cs),
(742,224,o),
(671,192,o),
(566,192,cs)
);
}
);
width = 1200;
},
{
anchors = (
{
name = bottom;
pos = (590,0);
},
{
name = top;
pos = (612,1050);
}
);
layerId = "B67F0F2D-EC95-4CB8-966E-23AE86958A69";
shapes = (
{
closed = 1;
nodes = (
(433,93,o),
(322,138,o),
(240,208,c),
(163,117,l),
(247,44,o),
(371,-20,o),
(556,-20,cs),
(768,-20,o),
(983,61,o),
(983,283,cs),
(983,477,o),
(846,550,o),
(640,605,cs),
(426,662,o),
(352,699,o),
(352,804,cs),
(352,893,o),
(418,959,o),
(603,959,cs),
(748,959,o),
(835,918,o),
(912,864,c),
(970,956,l),
(887,1018,o),
(766,1069,o),
(602,1069,cs),
(383,1069,o),
(221,967,o),
(221,794,cs),
(221,612,o),
(363,552,o),
(589,497,cs),
(815,442,o),
(844,383,o),
(844,280,cs),
(844,168,o),
(736,93,o),
(557,93,cs)
);
}
);
width = 1200;
}
);
tags = (
lower
);
unicode = 115;
},
{
glyphname = germandbls;
lastChange = "2025-02-08 14:45:07 +0000";
layers = (
{
layerId = "4B7A3BAF-EAD8-4024-9BEA-BB1DE86CFCFA";
shapes = (
{
closed = 1;
nodes = (
(278,1500,o),
(120,1332,o),
(120,1050,cs),
(120,0,l),
(436,0,l),
(436,1064,ls),
(436,1208,o),
(475,1280,o),
(574,1280,cs),
(640,1280,o),
(681,1244,o),
(681,1178,cs),
(681,1036,o),
(530,977,o),
(530,799,cs),
(530,540,o),
(829,546,o),
(829,330,cs),
(829,253,o),
(790,209,o),
(712,209,cs),
(676,209,o),
(638,220,o),
(599,239,c),
(498,27,l),
(567,-10,o),
(650,-34,o),
(752,-34,cs),
(983,-34,o),
(1155,99,o),
(1155,332,cs),
(1155,677,o),
(806,704,o),
(806,854,cs),
(806,975,o),
(987,1013,o),
(987,1192,cs),
(987,1364,o),
(841,1500,o),
(582,1500,cs)
);
}
);
width = 1200;
},
{
layerId = "B67F0F2D-EC95-4CB8-966E-23AE86958A69";
shapes = (
{
closed = 1;
nodes = (
(362,1492,o),
(213,1351,o),
(213,1068,cs),
(213,0,l),
(337,0,l),
(337,1079,ls),
(337,1303,o),
(433,1383,o),
(597,1383,cs),
(765,1383,o),
(811,1270,o),
(811,1195,cs),
(811,1045,o),
(553,1040,o),
(553,845,cs),
(553,583,o),
(979,589,o),
(979,322,cs),
(979,161,o),
(883,85,o),
(732,85,cs),
(667,85,o),
(591,107,o),
(539,138,c),
(481,51,l),
(551,4,o),
(633,-20,o),
(740,-20,cs),
(932,-20,o),
(1104,103,o),
(1104,333,cs),
(1104,667,o),
(687,675,o),
(687,855,cs),
(687,980,o),
(927,1012,o),
(927,1212,cs),
(927,1380,o),
(787,1492,o),
(596,1492,cs)
);
}
);
width = 1200;
}
);
tags = (
lower
);
unicode = 223;
},
{
glyphname = t;
lastChange = "2025-02-08 14:45:07 +0000";
layers = (
{
anchors = (
{
name = bottom;
pos = (721,0);
},
{
name = center;
pos = (600,526);
},
{
name = top;
pos = (496,1289);
},
{
name = topright;
pos = (709,1605);
}
);
layerId = "4B7A3BAF-EAD8-4024-9BEA-BB1DE86CFCFA";
shapes = (
{
closed = 1;
nodes = (
(991,262,l),
(940,234,o),
(878,215,o),
(805,215,cs),
(700,215,o),
(654,255,o),
(654,359,cs),
(654,833,l),
(965,833,l),
(996,1050,l),
(654,1050,l),
(654,1315,l),
(338,1277,l),
(338,1050,l),
(115,1050,l),
(115,833,l),
(338,833,l),
(338,360,ls),
(338,117,o),
(470,-34,o),
(748,-34,cs),
(895,-34,o),
(1013,8,o),
(1096,62,c)
);
}
);
width = 1200;
},
{
anchors = (
{
name = bottom;
pos = (749,0);
},
{
name = center;
pos = (600,526);
},
{
name = top;
pos = (482,1304);
},
{
name = topright;
pos = (641,1471);
}
);
layerId = "B67F0F2D-EC95-4CB8-966E-23AE86958A69";
shapes = (
{
closed = 1;
nodes = (
(966,139,l),
(907,108,o),
(840,88,o),
(760,88,cs),
(604,88,o),
(544,157,o),
(544,278,cs),
(544,946,l),
(897,946,l),
(914,1050,l),
(544,1050,l),
(544,1307,l),
(420,1292,l),
(420,1050,l),
(172,1050,l),
(172,946,l),
(420,946,l),
(420,275,ls),
(420,106,o),
(546,-20,o),
(757,-20,cs),
(841,-20,o),
(951,5,o),
(1020,50,c)
);
}
);
width = 1200;
}
);
tags = (
lower
);
unicode = 116;
},
{
glyphname = tbar;
lastChange = "2025-02-08 14:45:07 +0000";
layers = (
{
layerId = "4B7A3BAF-EAD8-4024-9BEA-BB1DE86CFCFA";
shapes = (
{
closed = 1;
nodes = (
(338,714,l),
(139,714,l),
(139,516,l),
(654,516,l),
(963,516,l),
(963,714,l)
);
},
{
alignment = -1;
ref = t;
}
);
width = 1200;
},
{
layerId = "B67F0F2D-EC95-4CB8-966E-23AE86958A69";
shapes = (
{
closed = 1;
nodes = (
(420,699,l),
(193,699,l),
(193,591,l),
(544,591,l),
(901,591,l),
(901,699,l)
);
},
{
alignment = -1;
ref = t;
}
);
width = 1200;
}
);
tags = (
lower
);
unicode = 359;
},
{
glyphname = u;
lastChange = "2025-02-08 14:45:07 +0000";
layers = (
{
anchors = (
{
name = ogonek;
pos = (1080,0);
},
{
name = top;
pos = (600,1050);
}
);
layerId = "4B7A3BAF-EAD8-4024-9BEA-BB1DE86CFCFA";
shapes = (
{
closed = 1;
nodes = (
(140,1050,l),
(140,293,ls),
(140,93,o),
(238,-34,o),
(444,-34,cs),
(571,-34,o),
(698,19,o),
(770,122,c),
(784,0,l),
(1060,0,l),
(1060,1050,l),
(744,1050,l),
(744,312,l),
(701,244,o),
(630,200,o),
(564,200,cs),
(496,200,o),
(456,231,o),
(456,332,cs),
(456,1050,l)
);
}
);
width = 1200;
},
{
anchors = (
{
name = ogonek;
pos = (1001,0);
},
{
name = top;
pos = (600,1050);
}
);
layerId = "B67F0F2D-EC95-4CB8-966E-23AE86958A69";
shapes = (
{
closed = 1;
nodes = (
(219,1050,l),
(219,284,ls),
(219,91,o),
(320,-20,o),
(523,-20,cs),
(645,-20,o),
(777,40,o),
(863,147,c),
(877,0,l),
(981,0,l),
(981,1050,l),
(857,1050,l),
(857,267,l),
(796,171,o),
(671,84,o),
(541,84,cs),
(403,84,o),
(343,150,o),
(343,299,cs),
(343,1050,l)
);
}
);
width = 1200;
}
);
tags = (
lower
);
unicode = 117;
},
{
glyphname = v;
lastChange = "2025-02-08 14:45:07 +0000";
layers = (
{
anchors = (
{
name = bottom;
pos = (600,0);
},
{
name = top;
pos = (600,1050);
}
);
layerId = "4B7A3BAF-EAD8-4024-9BEA-BB1DE86CFCFA";
shapes = (
{
closed = 1;
nodes = (
(822,1050,l),
(606,241,l),
(399,1050,l),
(58,1050,l),
(416,0,l),
(788,0,l),
(1142,1050,l)
);
}
);
width = 1200;
},
{
anchors = (
{
name = bottom;
pos = (600,0);
},
{
name = top;
pos = (600,1050);
}
);
layerId = "B67F0F2D-EC95-4CB8-966E-23AE86958A69";
shapes = (
{
closed = 1;
nodes = (
(930,1050,l),
(603,126,l),
(269,1050,l),
(140,1050,l),
(526,0,l),
(669,0,l),
(1060,1050,l)
);
}
);
width = 1200;
}
);
tags = (
lower
);
unicode = 118;
},
{
glyphname = w;
lastChange = "2025-02-08 14:45:07 +0000";
layers = (
{
anchors = (
{
name = bottom;
pos = (600,0);
},
{
name = top;
pos = (600,1050);
}
);
layerId = "4B7A3BAF-EAD8-4024-9BEA-BB1DE86CFCFA";
shapes = (
{
closed = 1;
nodes = (
(1193,1050,l),
(914,1050,l),
(843,197,l),
(743,918,l),
(477,918,l),
(365,197,l),
(296,1050,l),
(7,1050,l),
(164,0,l),
(507,0,l),
(602,705,l),
(693,0,l),
(1042,0,l)
);
}
);
width = 1200;
},
{
anchors = (
{
name = bottom;
pos = (600,0);
},
{
name = top;
pos = (600,1050);
}
);
layerId = "B67F0F2D-EC95-4CB8-966E-23AE86958A69";
shapes = (
{
closed = 1;
nodes = (
(1157,1050,l),
(1027,1050,l),
(874,76,l),
(698,916,l),
(519,916,l),
(334,76,l),
(180,1050,l),
(43,1050,l),
(246,0,l),
(445,0,l),
(608,790,l),
(758,0,l),
(963,0,l)
);
}
);
width = 1200;
}
);
tags = (
lower
);
unicode = 119;
},
{
glyphname = x;
lastChange = "2025-02-08 14:45:07 +0000";
layers = (
{
anchors = (
{
name = bottom;
pos = (600,0);
},
{
name = bottomright;
pos = (1036,0);
},
{
name = top;
pos = (600,1050);
}
);
layerId = "4B7A3BAF-EAD8-4024-9BEA-BB1DE86CFCFA";
shapes = (
{
closed = 1;
nodes = (
(588,391,l),
(798,0,l),
(1156,0,l),
(790,564,l),
(1102,1050,l),
(766,1050,l),
(602,715,l),
(432,1050,l),
(78,1050,l),
(408,552,l),
(44,0,l),
(386,0,l)
);
}
);
width = 1200;
},
{
anchors = (
{
name = bottom;
pos = (600,0);
},
{
name = bottomright;
pos = (963,0);
},
{
name = top;
pos = (600,1050);
}
);
layerId = "B67F0F2D-EC95-4CB8-966E-23AE86958A69";
shapes = (
{
closed = 1;
nodes = (
(597,468,l),
(908,0,l),
(1069,0,l),
(674,561,l),
(1023,1050,l),
(874,1050,l),
(602,643,l),
(336,1050,l),
(183,1050,l),
(527,555,l),
(131,0,l),
(278,0,l)
);
}
);
width = 1200;
}
);
tags = (
lower
);
unicode = 120;
},
{
glyphname = y;
lastChange = "2025-02-08 14:45:07 +0000";
layers = (
{
anchors = (
{
name = bottom;
pos = (600,-439);
},
{
name = top;
pos = (600,1050);
}
);
layerId = "4B7A3BAF-EAD8-4024-9BEA-BB1DE86CFCFA";
shapes = (
{
closed = 1;
nodes = (
(820,1050,l),
(596,202,l),
(390,1050,l),
(56,1050,l),
(393,0,l),
(501,0,l),
(443,-135,o),
(368,-193,o),
(159,-218,c),
(195,-440,l),
(518,-423,o),
(696,-279,o),
(790,0,cs),
(1144,1050,l)
);
}
);
width = 1200;
},
{
anchors = (
{
name = bottom;
pos = (600,-386);
},
{
name = top;
pos = (600,1050);
}
);
layerId = "B67F0F2D-EC95-4CB8-966E-23AE86958A69";
shapes = (
{
closed = 1;
nodes = (
(928,1050,l),
(608,106,l),
(277,1050,l),
(143,1050,l),
(520,0,l),
(561,0,l),
(505,-171,o),
(447,-269,o),
(227,-309,c),
(249,-417,l),
(515,-385,o),
(614,-203,o),
(682,-9,cs),
(1057,1050,l)
);
}
);
width = 1200;
}
);
tags = (
lower
);
unicode = 121;
},
{
glyphname = z;
lastChange = "2025-02-08 14:45:07 +0000";
layers = (
{
anchors = (
{
name = bottom;
pos = (600,0);
},
{
name = top;
pos = (614,1050);
}
);
layerId = "4B7A3BAF-EAD8-4024-9BEA-BB1DE86CFCFA";
shapes = (
{
closed = 1;
nodes = (
(1039,828,l),
(1039,1050,l),
(188,1050,l),
(188,813,l),
(671,813,l),
(144,223,l),
(144,0,l),
(1019,0,l),
(1049,239,l),
(517,239,l)
);
}
);
width = 1200;
},
{
anchors = (
{
name = bottom;
pos = (600,0);
},
{
name = top;
pos = (623,1050);
}
);
layerId = "B67F0F2D-EC95-4CB8-966E-23AE86958A69";
shapes = (
{
closed = 1;
nodes = (
(977,948,l),
(977,1050,l),
(270,1050,l),
(270,932,l),
(824,932,l),
(223,99,l),
(223,0,l),
(962,0,l),
(981,115,l),
(379,115,l)
);
}
);
width = 1200;
}
);
tags = (
lower
);
unicode = 122;
},
{
color = 3;
glyphname = a.cv01;
lastChange = "2025-02-08 14:45:07 +0000";
layers = (
{
anchors = (
{
name = bottom;
pos = (600,0);
},
{
name = ogonek;
pos = (1058,-21);
},
{
name = top;
pos = (583,1050);
}
);
layerId = "B67F0F2D-EC95-4CB8-966E-23AE86958A69";
shapes = (
{
closed = 1;
nodes = (
(857,937,l),
(785,1024,o),
(691,1069,o),
(563,1069,cs),
(303,1069,o),
(153,836,o),
(153,522,cs),
(153,201,o),
(279,-20,o),
(557,-20,cs),
(666,-20,o),
(773,25,o),
(857,145,c),
(879,48,o),
(949,-8,o),
(1038,-21,c),
(1072,70,l),
(1014,81,o),
(984,125,o),
(981,197,c),
(981,1050,l),
(873,1050,l)
);
},
{
closed = 1;
nodes = (
(701,962,o),
(796,907,o),
(857,813,c),
(857,267,l),
(797,177,o),
(706,88,o),
(573,88,cs),
(387,88,o),
(293,247,o),
(293,523,cs),
(293,813,o),
(399,962,o),
(594,962,cs)
);
}
);
width = 1200;
},
{
anchors = (
{
name = bottom;
pos = (600,0);
},
{
name = ogonek;
pos = (1085,-30);
},
{
name = top;
pos = (586,1050);
}
);
layerId = "4B7A3BAF-EAD8-4024-9BEA-BB1DE86CFCFA";
shapes = (
{
closed = 1;
nodes = (
(764,989,l),
(700,1052,o),
(597,1085,o),
(503,1085,cs),
(241,1085,o),
(80,851,o),
(80,528,cs),
(80,190,o),
(206,-34,o),
(470,-34,cs),
(610,-34,o),
(706,35,o),
(764,115,c),
(846,10,o),
(986,-22,o),
(1065,-30,c),
(1130,178,l),
(1083,190,o),
(1062,228,o),
(1060,282,c),
(1060,1050,l),
(780,1050,l)
);
},
{
closed = 1;
nodes = (
(653,854,o),
(700,823,o),
(744,770,c),
(744,318,l),
(699,245,o),
(642,198,o),
(570,198,cs),
(474,198,o),
(406,268,o),
(406,526,cs),
(406,761,o),
(478,854,o),
(588,854,cs)
);
}
);
width = 1200;
}
);
tags = (
lower
);
},
{
color = 3;
glyphname = g.cv02;
lastChange = "2025-02-08 14:45:07 +0000";
layers = (
{
anchors = (
{
name = bottom;
pos = (600,0);
},
{
name = top;
pos = (583,1050);
}
);
layerId = "B67F0F2D-EC95-4CB8-966E-23AE86958A69";
shapes = (
{
closed = 1;
nodes = (
(857,937,l),
(785,1024,o),
(691,1069,o),
(563,1069,cs),
(303,1069,o),
(153,836,o),
(153,522,cs),
(153,201,o),
(279,-20,o),
(557,-20,cs),
(666,-20,o),
(773,25,o),
(857,145,c),
(857,30,ls),
(857,-192,o),
(734,-306,o),
(565,-306,cs),
(370,-306,o),
(303,-237,o),
(243,-178,c),
(163,-263,l),
(252,-329,o),
(325,-418,o),
(563,-418,cs),
(773,-418,o),
(991,-264,o),
(985,21,cs),
(981,197,l),
(981,1050,l),
(873,1050,l)
);
},
{
closed = 1;
nodes = (
(701,962,o),
(796,907,o),
(857,813,c),
(857,267,l),
(797,177,o),
(706,88,o),
(573,88,cs),
(387,88,o),
(293,247,o),
(293,523,cs),
(293,813,o),
(399,962,o),
(594,962,cs)
);
}
);
width = 1200;
},
{
anchors = (
{
name = bottom;
pos = (600,0);
},
{
name = top;
pos = (602,1050);
}
);
layerId = "4B7A3BAF-EAD8-4024-9BEA-BB1DE86CFCFA";
shapes = (
{
closed = 1;
nodes = (
(764,989,l),
(700,1052,o),
(597,1085,o),
(503,1085,cs),
(241,1085,o),
(80,851,o),
(80,528,cs),
(80,190,o),
(206,-34,o),
(470,-34,cs),
(610,-34,o),
(706,35,o),
(764,115,c),
(764,18,ls),
(764,-30,o),
(724,-202,o),
(518,-197,cs),
(404,-194,o),
(328,-147,o),
(260,-72,c),
(78,-233,l),
(218,-396,o),
(398,-438,o),
(540,-438,cs),
(641,-438,o),
(1060,-389,o),
(1060,35,cs),
(1060,282,l),
(1060,1050,l),
(780,1050,l)
);
},
{
closed = 1;
nodes = (
(653,854,o),
(700,823,o),
(744,770,c),
(744,318,l),
(699,245,o),
(642,198,o),
(570,198,cs),
(474,198,o),
(406,268,o),
(406,526,cs),
(406,761,o),
(478,854,o),
(588,854,cs)
);
}
);
width = 1200;
}
);
tags = (
lower
);
},
{
color = 3;
glyphname = idotless.cv03;
lastChange = "2025-02-08 14:45:07 +0000";
layers = (
{
anchors = (
{
name = ogonek;
pos = (682,0);
},
{
name = top;
pos = (600,1050);
}
);
layerId = "B67F0F2D-EC95-4CB8-966E-23AE86958A69";
shapes = (
{
closed = 1;
nodes = (
(538,1050,l),
(538,0,l),
(662,0,l),
(662,1050,l)
);
}
);
width = 1200;
},
{
anchors = (
{
name = ogonek;
pos = (779,0);
},
{
name = top;
pos = (600,1050);
}
);
layerId = "4B7A3BAF-EAD8-4024-9BEA-BB1DE86CFCFA";
shapes = (
{
closed = 1;
nodes = (
(442,1050,l),
(442,0,l),
(758,0,l),
(758,1050,l)
);
}
);
width = 1200;
}
);
tags = (
lower
);
},
{
color = 3;
glyphname = idotless.cv04;
lastChange = "2025-02-08 14:45:07 +0000";
layers = (
{
anchors = (
{
name = ogonek;
pos = (738,0);
},
{
name = top;
pos = (604,1050);
}
);
layerId = "B67F0F2D-EC95-4CB8-966E-23AE86958A69";
shapes = (
{
closed = 1;
nodes = (
(272,1050,l),
(272,942,l),
(594,942,l),
(594,0,l),
(718,0,l),
(718,1050,l)
);
}
);
width = 1200;
},
{
anchors = (
{
name = ogonek;
pos = (809,0);
},
{
name = top;
pos = (598,1050);
}
);
layerId = "4B7A3BAF-EAD8-4024-9BEA-BB1DE86CFCFA";
shapes = (
{
closed = 1;
nodes = (
(182,1050,l),
(182,835,l),
(473,835,l),
(473,0,l),
(789,0,l),
(789,1050,l)
);
}
);
width = 1200;
}
);
tags = (
lower
);
},
{
color = 3;
glyphname = idotless.cv05;
lastChange = "2025-02-08 14:45:07 +0000";
layers = (
{
anchors = (
{
name = ogonek;
pos = (738,0);
},
{
name = top;
pos = (604,1050);
}
);
layerId = "B67F0F2D-EC95-4CB8-966E-23AE86958A69";
shapes = (
{
closed = 1;
nodes = (
(272,1050,l),
(272,942,l),
(594,942,l),
(594,0,l),
(1023,0,l),
(1023,108,l),
(718,108,l),
(718,1050,l)
);
}
);
width = 1200;
},
{
anchors = (
{
name = ogonek;
pos = (809,0);
},
{
name = top;
pos = (598,1050);
}
);
layerId = "4B7A3BAF-EAD8-4024-9BEA-BB1DE86CFCFA";
shapes = (
{
closed = 1;
nodes = (
(182,1050,l),
(182,835,l),
(473,835,l),
(473,0,l),
(1059,0,l),
(1059,216,l),
(789,216,l),
(789,1050,l)
);
}
);
width = 1200;
}
);
tags = (
lower
);
},
{
color = 3;
glyphname = idotless.cv06;
lastChange = "2025-02-08 14:45:07 +0000";
layers = (
{
anchors = (
{
name = bottom;
pos = (856,0);
},
{
name = top;
pos = (667,1050);
}
);
layerId = "B67F0F2D-EC95-4CB8-966E-23AE86958A69";
shapes = (
{
closed = 1;
nodes = (
(268,1050,l),
(268,942,l),
(594,942,l),
(594,238,ls),
(594,74,o),
(725,-20,o),
(891,-20,cs),
(989,-20,o),
(1072,4,o),
(1124,30,c),
(1088,126,l),
(1027,102,o),
(969,88,o),
(903,88,cs),
(796,88,o),
(718,129,o),
(718,238,cs),
(718,1050,l)
);
}
);
width = 1200;
},
{
anchors = (
{
name = bottom;
pos = (805,0);
},
{
name = top;
pos = (607,1050);
}
);
layerId = "4B7A3BAF-EAD8-4024-9BEA-BB1DE86CFCFA";
shapes = (
{
closed = 1;
nodes = (
(160,1050,l),
(160,835,l),
(473,835,l),
(473,371,ls),
(473,125,o),
(589,-34,o),
(845,-34,cs),
(980,-34,o),
(1080,-2,o),
(1152,36,c),
(1076,246,l),
(1033,229,o),
(981,215,o),
(926,215,cs),
(841,215,o),
(789,248,o),
(789,332,cs),
(789,1050,l)
);
}
);
width = 1200;
}
);
tags = (
lower
);
},
{
color = 3;
glyphname = l.cv07;
lastChange = "2025-02-08 14:45:07 +0000";
layers = (
{
anchors = (
{
name = bottom;
pos = (600,0);
},
{
name = center;
pos = (1116,766);
},
{
name = middle;
pos = (600,766);
},
{
name = top;
pos = (611,1475);
},
{
name = topright;
pos = (751,1475);
}
);
layerId = "B67F0F2D-EC95-4CB8-966E-23AE86958A69";
shapes = (
{
closed = 1;
nodes = (
(538,1475,l),
(538,0,l),
(662,0,l),
(662,1475,l)
);
}
);
width = 1200;
},
{
anchors = (
{
name = bottom;
pos = (600,0);
},
{
name = center;
pos = (1136,757);
},
{
name = middle;
pos = (600,757);
},
{
name = top;
pos = (600,1467);
},
{
name = topright;
pos = (818,1467);
}
);
layerId = "4B7A3BAF-EAD8-4024-9BEA-BB1DE86CFCFA";
shapes = (
{
closed = 1;
nodes = (
(442,1467,l),
(442,0,l),
(758,0,l),
(758,1467,l)
);
}
);
width = 1200;
}
);
tags = (
lower
);
},
{
color = 3;
glyphname = l.cv08;
lastChange = "2025-02-08 14:45:07 +0000";
layers = (
{
anchors = (
{
name = bottom;
pos = (800,0);
},
{
name = center;
pos = (1116,766);
},
{
name = middle;
pos = (600,766);
},
{
name = top;
pos = (611,1475);
},
{
name = topright;
pos = (751,1475);
}
);
layerId = "B67F0F2D-EC95-4CB8-966E-23AE86958A69";
shapes = (
{
closed = 1;
nodes = (
(212,1475,l),
(212,1367,l),
(538,1367,l),
(538,0,l),
(662,0,l),
(662,1475,l)
);
}
);
width = 1200;
},
{
anchors = (
{
name = bottom;
pos = (600,0);
},
{
name = center;
pos = (1136,757);
},
{
name = middle;
pos = (600,757);
},
{
name = top;
pos = (576,1467);
},
{
name = topright;
pos = (818,1467);
}
);
layerId = "4B7A3BAF-EAD8-4024-9BEA-BB1DE86CFCFA";
shapes = (
{
closed = 1;
nodes = (
(129,1467,l),
(129,1252,l),
(442,1252,l),
(442,0,l),
(758,0,l),
(758,1467,l)
);
}
);
width = 1200;
}
);
tags = (
lower
);
},
{
color = 3;
glyphname = l.cv09;
lastChange = "2025-02-08 14:45:07 +0000";
layers = (
{
anchors = (
{
name = bottom;
pos = (724,0);
},
{
name = center;
pos = (1116,766);
},
{
name = middle;
pos = (524,766);
},
{
name = top;
pos = (535,1475);
},
{
name = topright;
pos = (675,1475);
}
);
layerId = "B67F0F2D-EC95-4CB8-966E-23AE86958A69";
shapes = (
{
closed = 1;
nodes = (
(136,1475,l),
(136,1367,l),
(462,1367,l),
(462,0,l),
(942,0,l),
(942,108,l),
(586,108,l),
(586,1475,l)
);
}
);
width = 1200;
},
{
anchors = (
{
name = bottom;
pos = (710,0);
},
{
name = center;
pos = (1136,757);
},
{
name = middle;
pos = (536,757);
},
{
name = top;
pos = (512,1467);
},
{
name = topright;
pos = (754,1467);
}
);
layerId = "4B7A3BAF-EAD8-4024-9BEA-BB1DE86CFCFA";
shapes = (
{
closed = 1;
nodes = (
(65,1467,l),
(65,1252,l),
(378,1252,l),
(378,0,l),
(1057,0,l),
(1057,216,l),
(694,216,l),
(694,1467,l)
);
}
);
width = 1200;
}
);
tags = (
lower
);
},
{
color = 3;
glyphname = l.cv10;
lastChange = "2025-02-08 14:45:07 +0000";
layers = (
{
anchors = (
{
name = bottom;
pos = (656,0);
},
{
name = center;
pos = (1116,766);
},
{
name = middle;
pos = (656,766);
},
{
name = top;
pos = (667,1475);
},
{
name = topright;
pos = (807,1475);
}
);
layerId = "B67F0F2D-EC95-4CB8-966E-23AE86958A69";
shapes = (
{
closed = 1;
nodes = (
(272,1475,l),
(272,1367,l),
(594,1367,l),
(594,108,l),
(262,108,l),
(262,0,l),
(1023,0,l),
(1023,108,l),
(718,108,l),
(718,1475,l)
);
}
);
width = 1200;
},
{
anchors = (
{
name = bottom;
pos = (631,0);
},
{
name = center;
pos = (1136,757);
},
{
name = middle;
pos = (631,757);
},
{
name = top;
pos = (607,1467);
},
{
name = topright;
pos = (849,1467);
}
);
layerId = "4B7A3BAF-EAD8-4024-9BEA-BB1DE86CFCFA";
shapes = (
{
closed = 1;
nodes = (
(182,1467,l),
(182,1252,l),
(473,1252,l),
(473,216,l),
(172,216,l),
(172,0,l),
(1059,0,l),
(1059,216,l),
(789,216,l),
(789,1467,l)
);
}
);
width = 1200;
}
);
tags = (
lower
);
},
{
glyphname = x.multiply;
lastChange = "2025-02-08 14:45:07 +0000";
layers = (
{
layerId = "4B7A3BAF-EAD8-4024-9BEA-BB1DE86CFCFA";
shapes = (
{
closed = 1;
nodes = (
(600,814,l),
(335,1078,l),
(161,904,l),
(430,645,l),
(161,381,l),
(335,208,l),
(600,475,l),
(865,208,l),
(1039,381,l),
(770,645,l),
(1039,904,l),
(865,1078,l)
);
}
);
width = 1200;
},
{
layerId = "B67F0F2D-EC95-4CB8-966E-23AE86958A69";
shapes = (
{
closed = 1;
nodes = (
(600,738,l),
(290,1041,l),
(203,954,l),
(512,649,l),
(203,340,l),
(290,253,l),
(600,561,l),
(904,253,l),
(991,340,l),
(688,649,l),
(991,954,l),
(904,1041,l)
);
}
);
width = 1200;
}
);
tags = (
lower
);
},
{
color = 3;
glyphname = r.ss01;
lastChange = "2025-02-08 14:45:07 +0000";
layers = (
{
anchors = (
{
name = bottom;
pos = (462,0);
},
{
name = top;
pos = (664,1050);
}
);
layerId = "B67F0F2D-EC95-4CB8-966E-23AE86958A69";
shapes = (
{
closed = 1;
nodes = (
(740,0,l),
(740,104,l),
(524,104,l),
(524,592,l),
(599,841,o),
(715,952,o),
(885,952,cs),
(930,952,o),
(960,946,o),
(1007,933,c),
(1042,1050,l),
(994,1062,o),
(955,1071,o),
(900,1071,cs),
(704,1071,o),
(600,969,o),
(518,798,c),
(495,1050,l),
(229,1050,l),
(229,945,l),
(400,945,l),
(400,104,l),
(229,104,l),
(229,0,l)
);
}
);
width = 1200;
},
{
anchors = (
{
name = bottom;
pos = (448,0);
},
{
name = top;
pos = (650,1050);
}
);
layerId = "4B7A3BAF-EAD8-4024-9BEA-BB1DE86CFCFA";
shapes = (
{
closed = 1;
nodes = (
(816,0,l),
(816,212,l),
(606,212,l),
(606,509,l),
(661,680,o),
(769,805,o),
(908,805,cs),
(955,805,o),
(991,799,o),
(1030,789,c),
(1126,1050,l),
(1076,1070,o),
(1023,1082,o),
(951,1082,cs),
(780,1082,o),
(665,994,o),
(589,814,c),
(531,1050,l),
(150,1050,l),
(150,841,l),
(290,841,l),
(290,212,l),
(150,212,l),
(150,0,l)
);
}
);
width = 1200;
}
);
tags = (
lower
);
},
{
color = 3;
export = 0;
glyphname = r.001;
lastChange = "2025-02-08 14:45:07 +0000";
layers = (
{
anchors = (
{
name = bottom;
pos = (448,0);
},
{
name = top;
pos = (650,1050);
}
);
layerId = "4B7A3BAF-EAD8-4024-9BEA-BB1DE86CFCFA";
shapes = (
{
closed = 1;
nodes = (
(606,0,l),
(606,509,l),
(661,680,o),
(769,805,o),
(908,805,cs),
(955,805,o),
(991,799,o),
(1030,789,c),
(1126,1050,l),
(1076,1070,o),
(1023,1082,o),
(951,1082,cs),
(780,1082,o),
(665,994,o),
(589,814,c),
(531,1050,l),
(150,1050,l),
(150,841,l),
(290,841,l),
(290,0,l)
);
},
{
closed = 1;
nodes = (
(1067,609,l),
(1126,1050,l),
(916,1050,l),
(869,917,l),
(869,609,l)
);
}
);
width = 1200;
},
{
anchors = (
{
name = bottom;
pos = (462,0);
},
{
name = top;
pos = (636,1050);
}
);
layerId = "B67F0F2D-EC95-4CB8-966E-23AE86958A69";
shapes = (
{
closed = 1;
nodes = (
(524,0,l),
(524,592,l),
(599,841,o),
(715,952,o),
(885,952,cs),
(930,952,o),
(960,946,o),
(1007,933,c),
(1042,1050,l),
(994,1062,o),
(955,1071,o),
(900,1071,cs),
(704,1071,o),
(600,969,o),
(518,798,c),
(495,1050,l),
(229,1050,l),
(229,945,l),
(400,945,l),
(400,0,l)
);
},
{
closed = 1;
nodes = (
(1028,720,l),
(1042,1050,l),
(916,1050,l),
(908,978,l),
(908,720,l)
);
}
);
width = 1200;
}
);
tags = (
lower
);
},
{
color = 3;
glyphname = i.salt_low;
lastChange = "2025-02-08 14:45:07 +0000";
layers = (
{
anchors = (
{
name = bottom;
pos = (600,0);
}
);
layerId = "B67F0F2D-EC95-4CB8-966E-23AE86958A69";
shapes = (
{
closed = 1;
nodes = (
(272,964,l),
(272,858,l),
(594,858,l),
(594,108,l),
(262,108,l),
(262,0,l),
(1023,0,l),
(1023,108,l),
(718,108,l),
(718,964,l)
);
},
{
closed = 1;
nodes = (
(541,1445,o),
(500,1401,o),
(500,1346,cs),
(500,1287,o),
(541,1243,o),
(601,1243,cs),
(665,1243,o),
(705,1287,o),
(705,1346,cs),
(705,1401,o),
(665,1445,o),
(601,1445,cs)
);
}
);
width = 1200;
},
{
anchors = (
{
name = bottom;
pos = (600,0);
}
);
layerId = "4B7A3BAF-EAD8-4024-9BEA-BB1DE86CFCFA";
shapes = (
{
closed = 1;
nodes = (
(182,984,l),
(182,766,l),
(473,766,l),
(473,216,l),
(172,216,l),
(172,0,l),
(1059,0,l),
(1059,216,l),
(789,216,l),
(789,984,l)
);
},
{
closed = 1;
nodes = (
(487,1553,o),
(410,1476,o),
(410,1375,cs),
(410,1275,o),
(487,1197,o),
(598,1197,cs),
(707,1197,o),
(784,1275,o),
(784,1375,cs),
(784,1476,o),
(707,1553,o),
(598,1553,cs)
);
}
);
width = 1200;
}
);
tags = (
lower
);
},
{
color = 3;
glyphname = j.salt_low;
lastChange = "2025-02-08 14:45:07 +0000";
layers = (
{
anchors = (
{
name = bottom;
pos = (600,-386);
},
{
name = top;
pos = (734,1050);
}
);
layerId = "B67F0F2D-EC95-4CB8-966E-23AE86958A69";
shapes = (
{
closed = 1;
nodes = (
(295,964,l),
(295,858,l),
(750,858,l),
(750,119,ls),
(750,-156,o),
(515,-276,o),
(207,-321,c),
(228,-418,l),
(631,-355,o),
(874,-192,o),
(874,128,cs),
(874,964,l)
);
},
{
closed = 1;
nodes = (
(671,1445,o),
(631,1401,o),
(631,1346,cs),
(631,1287,o),
(671,1243,o),
(731,1243,cs),
(795,1243,o),
(836,1287,o),
(836,1346,cs),
(836,1401,o),
(795,1445,o),
(731,1445,cs)
);
}
);
width = 1200;
},
{
anchors = (
{
name = bottom;
pos = (600,-439);
},
{
name = top;
pos = (740,1050);
}
);
layerId = "4B7A3BAF-EAD8-4024-9BEA-BB1DE86CFCFA";
shapes = (
{
closed = 1;
nodes = (
(247,984,l),
(247,766,l),
(629,766,l),
(629,288,ls),
(629,-18,o),
(461,-125,o),
(139,-198,c),
(189,-438,l),
(684,-342,o),
(945,-151,o),
(945,308,cs),
(945,984,l)
);
},
{
closed = 1;
nodes = (
(629,1553,o),
(552,1476,o),
(552,1375,cs),
(552,1275,o),
(629,1197,o),
(740,1197,cs),
(849,1197,o),
(926,1275,o),
(926,1375,cs),
(926,1476,o),
(849,1553,o),
(740,1553,cs)
);
}
);
width = 1200;
}
);
tags = (
lower
);
},
{
color = 3;
glyphname = l.salt_low;
lastChange = "2025-02-08 14:45:07 +0000";
layers = (
{
anchors = (
{
name = bottom;
pos = (724,0);
},
{
name = center;
pos = (1116,766);
},
{
name = top;
pos = (535,1374);
},
{
name = topright;
pos = (675,1374);
}
);
layerId = "B67F0F2D-EC95-4CB8-966E-23AE86958A69";
shapes = (
{
closed = 1;
nodes = (
(136,1374,l),
(136,1256,l),
(462,1256,l),
(462,238,ls),
(462,74,o),
(593,-20,o),
(759,-20,cs),
(857,-20,o),
(940,4,o),
(992,30,c),
(956,126,l),
(895,102,o),
(837,88,o),
(771,88,cs),
(664,88,o),
(586,129,o),
(586,238,cs),
(586,1374,l)
);
}
);
width = 1200;
},
{
anchors = (
{
name = bottom;
pos = (710,0);
},
{
name = center;
pos = (1136,757);
},
{
name = top;
pos = (512,1371);
},
{
name = topright;
pos = (754,1371);
}
);
layerId = "4B7A3BAF-EAD8-4024-9BEA-BB1DE86CFCFA";
shapes = (
{
closed = 1;
nodes = (
(65,1371,l),
(65,1120,l),
(378,1120,l),
(378,371,ls),
(378,125,o),
(494,-34,o),
(750,-34,cs),
(885,-34,o),
(985,-2,o),
(1057,36,c),
(981,246,l),
(938,229,o),
(886,215,o),
(831,215,cs),
(746,215,o),
(694,248,o),
(694,332,cs),
(694,1371,l)
);
}
);
width = 1200;
}
);
tags = (
lower
);
},
{
color = 3;
glyphname = w_w_w.liga;
lastChange = "2025-02-08 14:45:07 +0000";
layers = (
{
anchors = (
{
name = bottom;
pos = (-1800,0);
},
{
name = top;
pos = (-1800,1050);
}
);
layerId = "4B7A3BAF-EAD8-4024-9BEA-BB1DE86CFCFA";
shapes = (
{
closed = 1;
nodes = (
(688,197,l),
(577,918,l),
(311,918,l),
(191,197,l),
(53,918,l),
(-213,918,l),
(-326,197,l),
(-469,918,l),
(-723,918,l),
(-866,197,l),
(-979,918,l),
(-1245,918,l),
(-1384,197,l),
(-1503,918,l),
(-1769,918,l),
(-1880,197,l),
(-1950,1050,l),
(-2239,1050,l),
(-2082,0,l),
(-1739,0,l),
(-1636,705,l),
(-1512,0,l),
(-1244,0,l),
(-1116,705,l),
(-992,0,l),
(-724,0,l),
(-596,705,l),
(-468,0,l),
(-200,0,l),
(-76,705,l),
(52,0,l),
(319,0,l),
(444,705,l),
(547,0,l),
(890,0,l),
(1047,1050,l),
(758,1050,l)
);
}
);
width = 1200;
},
{
anchors = (
{
name = bottom;
pos = (-1800,0);
},
{
name = top;
pos = (-1800,1050);
}
);
layerId = "B67F0F2D-EC95-4CB8-966E-23AE86958A69";
shapes = (
{
closed = 1;
nodes = (
(711,76,l),
(541,916,l),
(362,916,l),
(152,76,l),
(11,916,l),
(-174,916,l),
(-340,76,l),
(-497,916,l),
(-681,916,l),
(-852,76,l),
(-1018,916,l),
(-1203,916,l),
(-1372,76,l),
(-1539,916,l),
(-1718,916,l),
(-1903,76,l),
(-2058,1050,l),
(-2194,1050,l),
(-1992,0,l),
(-1793,0,l),
(-1633,790,l),
(-1498,0,l),
(-1256,0,l),
(-1113,790,l),
(-975,0,l),
(-741,0,l),
(-593,790,l),
(-459,0,l),
(-217,0,l),
(-88,790,l),
(35,0,l),
(268,0,l),
(447,790,l),
(592,0,l),
(800,0,l),
(990,1050,l),
(866,1050,l)
);
}
);
width = 1200;
}
);
tags = (
lower
);
},
{
color = 3;
glyphname = f_i.liga.ss10;
lastChange = "2025-02-08 14:45:07 +0000";
layers = (
{
anchors = (
{
name = bottom;
pos = (-680,0);
},
{
name = top;
pos = (-460,1475);
}
);
layerId = "B67F0F2D-EC95-4CB8-966E-23AE86958A69";
shapes = (
{
closed = 1;
nodes = (
(-618,964,l),
(-618,1199,ls),
(-618,1321,o),
(-536,1383,o),
(-383,1383,cs),
(-301,1383,o),
(-223,1368,o),
(-158,1337,c),
(-113,1438,l),
(-193,1473,o),
(-274,1492,o),
(-375,1492,cs),
(-573,1492,o),
(-742,1381,o),
(-742,1191,cs),
(-742,964,l),
(-1002,964,l),
(-1002,858,l),
(-742,858,l),
(-742,0,l),
(-618,0,l),
(-618,858,l),
(594,856,l),
(594,108,l),
(262,108,l),
(262,0,l),
(1023,0,l),
(1023,108,l),
(718,108,l),
(718,964,l)
);
},
{
closed = 1;
nodes = (
(541,1445,o),
(500,1401,o),
(500,1346,cs),
(500,1287,o),
(541,1243,o),
(601,1243,cs),
(665,1243,o),
(705,1287,o),
(705,1346,cs),
(705,1401,o),
(665,1445,o),
(601,1445,cs)
);
}
);
width = 1200;
},
{
anchors = (
{
name = bottom;
pos = (-666,0);
},
{
name = top;
pos = (-460,1467);
}
);
layerId = "4B7A3BAF-EAD8-4024-9BEA-BB1DE86CFCFA";
shapes = (
{
closed = 1;
nodes = (
(-510,984,l),
(-510,1123,ls),
(-510,1226,o),
(-460,1268,o),
(-335,1268,cs),
(-259,1268,o),
(-181,1256,o),
(-107,1228,c),
(-20,1434,l),
(-113,1473,o),
(-228,1500,o),
(-384,1500,cs),
(-672,1500,o),
(-824,1342,o),
(-824,1135,cs),
(-824,984,l),
(-1047,984,l),
(-1047,766,l),
(-824,766,l),
(-824,0,l),
(-510,0,l),
(-510,766,l),
(473,769,l),
(473,216,l),
(172,216,l),
(172,0,l),
(1059,0,l),
(1059,216,l),
(789,216,l),
(789,984,l)
);
},
{
closed = 1;
nodes = (
(487,1603,o),
(410,1526,o),
(410,1425,cs),
(410,1325,o),
(487,1247,o),
(598,1247,cs),
(707,1247,o),
(784,1325,o),
(784,1425,cs),
(784,1526,o),
(707,1603,o),
(598,1603,cs)
);
}
);
width = 1200;
}
);
tags = (
lower
);
},
{
color = 3;
glyphname = f_j.liga.ss10;
lastChange = "2025-02-08 14:45:07 +0000";
layers = (
{
anchors = (
{
name = bottom;
pos = (600,-386);
},
{
name = top;
pos = (-460,1475);
}
);
layerId = "B67F0F2D-EC95-4CB8-966E-23AE86958A69";
shapes = (
{
closed = 1;
nodes = (
(-618,964,l),
(-618,1199,ls),
(-618,1321,o),
(-536,1383,o),
(-383,1383,cs),
(-301,1383,o),
(-223,1368,o),
(-158,1337,c),
(-113,1438,l),
(-193,1473,o),
(-274,1492,o),
(-375,1492,cs),
(-573,1492,o),
(-742,1381,o),
(-742,1191,cs),
(-742,964,l),
(-1002,964,l),
(-1002,858,l),
(-742,858,l),
(-742,0,l),
(-618,0,l),
(-618,858,l),
(750,858,l),
(750,119,ls),
(750,-156,o),
(515,-276,o),
(207,-321,c),
(228,-418,l),
(631,-355,o),
(874,-192,o),
(874,128,cs),
(874,964,l)
);
},
{
closed = 1;
nodes = (
(671,1444,o),
(631,1400,o),
(631,1345,cs),
(631,1286,o),
(671,1242,o),
(731,1242,cs),
(795,1242,o),
(836,1286,o),
(836,1345,cs),
(836,1400,o),
(795,1444,o),
(731,1444,cs)
);
}
);
width = 1200;
},
{
anchors = (
{
name = bottom;
pos = (600,-439);
},
{
name = top;
pos = (-460,1467);
}
);
layerId = "4B7A3BAF-EAD8-4024-9BEA-BB1DE86CFCFA";
shapes = (
{
closed = 1;
nodes = (
(-510,984,l),
(-510,1123,ls),
(-510,1226,o),
(-460,1268,o),
(-335,1268,cs),
(-259,1268,o),
(-181,1256,o),
(-107,1228,c),
(-20,1434,l),
(-113,1473,o),
(-228,1500,o),
(-384,1500,cs),
(-672,1500,o),
(-824,1342,o),
(-824,1135,cs),
(-824,984,l),
(-1047,984,l),
(-1047,766,l),
(-824,766,l),
(-824,0,l),
(-510,0,l),
(-510,766,l),
(629,766,l),
(629,288,ls),
(629,-18,o),
(461,-125,o),
(139,-198,c),
(189,-438,l),
(684,-342,o),
(945,-151,o),
(945,308,cs),
(945,984,l)
);
},
{
closed = 1;
nodes = (
(629,1522,o),
(552,1445,o),
(552,1345,cs),
(552,1245,o),
(629,1167,o),
(740,1167,cs),
(849,1167,o),
(926,1245,o),
(926,1345,cs),
(926,1445,o),
(849,1522,o),
(740,1522,cs)
);
}
);
width = 1200;
}
);
metricRight = j;
tags = (
lower
);
},
{
color = 3;
glyphname = f_l.liga.ss10;
lastChange = "2025-02-08 14:45:07 +0000";
layers = (
{
anchors = (
{
name = bottom;
pos = (-680,0);
},
{
name = center;
pos = (1116,766);
},
{
name = top;
pos = (-460,1475);
},
{
name = topright;
pos = (675,1475);
}
);
layerId = "B67F0F2D-EC95-4CB8-966E-23AE86958A69";
shapes = (
{
closed = 1;
nodes = (
(-375,1477,l),
(-573,1477,o),
(-742,1366,o),
(-742,1176,cs),
(-742,964,l),
(-1002,964,l),
(-1002,858,l),
(-742,858,l),
(-742,0,l),
(-618,0,l),
(-618,858,l),
(-270,858,l),
(-257,964,l),
(-618,964,l),
(-618,1184,ls),
(-618,1306,o),
(-536,1368,o),
(-383,1368,c),
(462,1369,l),
(462,238,ls),
(462,74,o),
(593,-20,o),
(759,-20,cs),
(857,-20,o),
(940,4,o),
(992,30,c),
(956,126,l),
(895,102,o),
(837,88,o),
(771,88,cs),
(664,88,o),
(586,129,o),
(586,238,cs),
(586,1477,l)
);
}
);
width = 1200;
},
{
anchors = (
{
name = bottom;
pos = (-666,0);
},
{
name = center;
pos = (1136,757);
},
{
name = top;
pos = (-460,1467);
},
{
name = topright;
pos = (754,1467);
}
);
layerId = "4B7A3BAF-EAD8-4024-9BEA-BB1DE86CFCFA";
shapes = (
{
closed = 1;
nodes = (
(-384,1467,ls),
(-672,1467,o),
(-824,1309,o),
(-824,1102,cs),
(-824,984,l),
(-1047,984,l),
(-1047,766,l),
(-824,766,l),
(-824,0,l),
(-510,0,l),
(-510,766,l),
(-199,766,l),
(-164,984,l),
(-510,984,l),
(-510,1090,ls),
(-510,1194,o),
(-460,1235,o),
(-335,1235,c),
(378,1235,l),
(378,371,ls),
(378,125,o),
(494,-34,o),
(750,-34,cs),
(885,-34,o),
(985,-2,o),
(1057,36,c),
(981,246,l),
(938,229,o),
(886,215,o),
(831,215,cs),
(746,215,o),
(694,248,o),
(694,332,cs),
(694,1467,l)
);
}
);
width = 1200;
}
);
metricRight = l;
tags = (
lower
);
},
{
color = 3;
glyphname = f_t.liga.ss10;
lastChange = "2025-02-08 14:45:07 +0000";
layers = (
{
anchors = (
{
name = bottom;
pos = (-680,0);
},
{
name = center;
pos = (600,526);
},
{
name = top;
pos = (-460,1475);
},
{
name = topright;
pos = (641,1471);
}
);
layerId = "B67F0F2D-EC95-4CB8-966E-23AE86958A69";
shapes = (
{
closed = 1;
nodes = (
(-618,964,l),
(-618,1199,ls),
(-618,1321,o),
(-536,1383,o),
(-383,1383,cs),
(-301,1383,o),
(-223,1368,o),
(-158,1337,c),
(-113,1438,l),
(-193,1473,o),
(-274,1492,o),
(-375,1492,cs),
(-573,1492,o),
(-742,1381,o),
(-742,1191,cs),
(-742,964,l),
(-1002,964,l),
(-1002,858,l),
(-742,858,l),
(-742,0,l),
(-618,0,l),
(-618,858,l),
(420,858,l),
(420,275,ls),
(420,106,o),
(546,-20,o),
(757,-20,cs),
(841,-20,o),
(951,5,o),
(1020,50,c),
(966,139,l),
(907,108,o),
(840,88,o),
(760,88,cs),
(604,88,o),
(544,157,o),
(544,278,cs),
(544,858,l),
(897,858,l),
(914,964,l),
(544,964,l),
(544,1307,l),
(420,1292,l),
(420,964,l)
);
}
);
width = 1200;
},
{
anchors = (
{
name = bottom;
pos = (-666,0);
},
{
name = center;
pos = (600,526);
},
{
name = top;
pos = (-460,1467);
},
{
name = topright;
pos = (709,1605);
}
);
layerId = "4B7A3BAF-EAD8-4024-9BEA-BB1DE86CFCFA";
shapes = (
{
closed = 1;
nodes = (
(-510,984,l),
(-510,1123,ls),
(-510,1226,o),
(-460,1268,o),
(-335,1268,cs),
(-259,1268,o),
(-181,1256,o),
(-107,1228,c),
(-20,1434,l),
(-113,1473,o),
(-228,1500,o),
(-384,1500,cs),
(-672,1500,o),
(-824,1342,o),
(-824,1135,cs),
(-824,984,l),
(-1047,984,l),
(-1047,766,l),
(-824,766,l),
(-824,0,l),
(-510,0,l),
(-510,766,l),
(338,766,l),
(338,360,ls),
(338,117,o),
(470,-34,o),
(748,-34,cs),
(895,-34,o),
(1013,8,o),
(1096,62,c),
(991,262,l),
(940,234,o),
(878,215,o),
(805,215,cs),
(700,215,o),
(654,255,o),
(654,359,cs),
(654,766,l),
(965,766,l),
(996,984,l),
(654,984,l),
(654,1315,l),
(338,1277,l),
(338,984,l)
);
}
);
width = 1200;
}
);
metricRight = t;
tags = (
lower
);
},
{
color = 3;
export = 0;
glyphname = fi;
lastChange = "2025-02-08 14:45:07 +0000";
layers = (
{
layerId = "4B7A3BAF-EAD8-4024-9BEA-BB1DE86CFCFA";
shapes = (
{
closed = 1;
nodes = (
(1184,216,l),
(1056,216,l),
(1056,1050,l),
(478,1050,l),
(478,1123,ls),
(478,1226,o),
(528,1268,o),
(655,1268,cs),
(731,1268,o),
(809,1256,o),
(883,1228,c),
(968,1434,l),
(877,1473,o),
(762,1500,o),
(604,1500,cs),
(318,1500,o),
(175,1342,o),
(175,1135,cs),
(175,1050,l),
(21,1050,l),
(21,831,l),
(175,831,l),
(175,0,l),
(478,0,l),
(478,831,l),
(752,831,l),
(752,216,l),
(630,216,l),
(630,0,l),
(1184,0,l)
);
}
);
width = 1200;
},
{
layerId = "B67F0F2D-EC95-4CB8-966E-23AE86958A69";
shapes = (
{
closed = 1;
nodes = (
(1170,108,l),
(963,108,l),
(963,1050,l),
(365,1050,l),
(365,1199,ls),
(365,1321,o),
(446,1383,o),
(604,1383,cs),
(686,1383,o),
(764,1368,o),
(829,1337,c),
(875,1438,l),
(794,1473,o),
(713,1492,o),
(613,1492,cs),
(414,1492,o),
(235,1381,o),
(235,1191,cs),
(235,1050,l),
(46,1050,l),
(46,944,l),
(235,944,l),
(235,0,l),
(365,0,l),
(365,944,l),
(834,944,l),
(834,108,l),
(627,108,l),
(627,0,l),
(1170,0,l)
);
}
);
width = 1200;
}
);
tags = (
lower
);
unicode = 64257;
},
{
color = 3;
export = 0;
glyphname = fl;
lastChange = "2025-02-08 14:45:07 +0000";
layers = (
{
layerId = "4B7A3BAF-EAD8-4024-9BEA-BB1DE86CFCFA";
shapes = (
{
closed = 1;
nodes = (
(1152,232,l),
(1130,223,o),
(1104,215,o),
(1079,215,cs),
(1035,215,o),
(1006,238,o),
(1006,310,cs),
(1006,1498,l),
(790,1467,l),
(727,1486,o),
(656,1500,o),
(579,1500,cs),
(304,1500,o),
(154,1342,o),
(154,1135,cs),
(154,1050,l),
(12,1050,l),
(12,831,l),
(154,831,l),
(154,0,l),
(458,0,l),
(458,831,l),
(591,831,l),
(624,1050,l),
(458,1050,l),
(458,1123,ls),
(458,1226,o),
(501,1274,o),
(610,1274,cs),
(643,1274,o),
(673,1270,o),
(702,1262,c),
(702,283,ls),
(702,73,o),
(814,-34,o),
(1008,-34,cs),
(1092,-34,o),
(1160,-16,o),
(1214,6,c)
);
}
);
width = 1200;
},
{
layerId = "B67F0F2D-EC95-4CB8-966E-23AE86958A69";
shapes = (
{
closed = 1;
nodes = (
(1158,113,l),
(1116,96,o),
(1084,88,o),
(1040,88,cs),
(970,88,o),
(927,119,o),
(927,219,cs),
(927,1487,l),
(799,1455,l),
(738,1478,o),
(683,1492,o),
(607,1492,cs),
(403,1492,o),
(227,1381,o),
(227,1191,cs),
(227,1050,l),
(32,1050,l),
(32,944,l),
(227,944,l),
(227,0,l),
(356,0,l),
(356,944,l),
(619,944,l),
(636,1050,l),
(356,1050,l),
(356,1199,ls),
(356,1321,o),
(441,1380,o),
(607,1380,cs),
(671,1380,o),
(735,1373,o),
(798,1357,c),
(798,220,ls),
(798,48,o),
(904,-20,o),
(1028,-20,cs),
(1109,-20,o),
(1151,-2,o),
(1200,23,c)
);
}
);
width = 1200;
}
);
tags = (
lower
);
unicode = 64258;
},
{
glyphname = ordfeminine;
lastChange = "2020-04-05 21:58:44 +0000";
layers = (
{
layerId = "4B7A3BAF-EAD8-4024-9BEA-BB1DE86CFCFA";
shapes = (
{
closed = 1;
nodes = (
(490,1517,o),
(365,1498,o),
(243,1456,c),
(308,1275,l),
(402,1307,o),
(492,1321,o),
(542,1321,cs),
(661,1321,o),
(707,1299,o),
(707,1204,cs),
(707,1179,l),
(601,1179,ls),
(323,1179,o),
(167,1068,o),
(167,886,cs),
(167,722,o),
(289,608,o),
(473,608,cs),
(579,608,o),
(675,650,o),
(741,728,c),
(781,656,o),
(848,624,o),
(963,612,c),
(1025,788,l),
(983,802,o),
(965,826,o),
(965,884,cs),
(965,1212,ls),
(965,1410,o),
(859,1517,o),
(582,1517,cs)
);
},
{
closed = 1;
nodes = (
(200,216,l),
(200,0,l),
(1027,0,l),
(1027,216,l)
);
},
{
closed = 1;
nodes = (
(707,889,l),
(669,831,o),
(610,794,o),
(552,794,cs),
(487,794,o),
(452,829,o),
(452,896,cs),
(452,976,o),
(505,1015,o),
(644,1015,cs),
(707,1015,l)
);
}
);
width = 1200;
},
{
layerId = "B67F0F2D-EC95-4CB8-966E-23AE86958A69";
shapes = (
{
closed = 1;
nodes = (
(490,1492,o),
(393,1478,o),
(277,1433,c),
(317,1335,l),
(414,1369,o),
(504,1383,o),
(562,1383,cs),
(689,1383,o),
(769,1333,o),
(769,1216,cs),
(769,1145,l),
(649,1145,ls),
(380,1145,o),
(215,1054,o),
(215,877,cs),
(215,719,o),
(337,617,o),
(518,617,cs),
(618,617,o),
(720,659,o),
(786,734,c),
(812,659,o),
(862,624,o),
(935,615,c),
(965,704,l),
(921,718,o),
(897,744,o),
(897,805,cs),
(897,1221,ls),
(897,1387,o),
(788,1492,o),
(579,1492,cs)
);
},
{
closed = 1;
nodes = (
(214,132,l),
(214,0,l),
(988,0,l),
(988,132,l)
);
},
{
closed = 1;
nodes = (
(769,832,l),
(714,760,o),
(630,715,o),
(543,715,cs),
(422,715,o),
(350,772,o),
(350,884,cs),
(350,988,o),
(437,1049,o),
(638,1049,cs),
(769,1049,l)
);
}
);
width = 1200;
}
);
unicode = 170;
},
{
glyphname = ordmasculine;
lastChange = "2020-04-05 21:58:44 +0000";
layers = (
{
layerId = "4B7A3BAF-EAD8-4024-9BEA-BB1DE86CFCFA";
shapes = (
{
closed = 1;
nodes = (
(325,1517,o),
(157,1322,o),
(157,1064,cs),
(157,792,o),
(323,608,o),
(600,608,cs),
(875,608,o),
(1043,794,o),
(1043,1064,cs),
(1043,1324,o),
(875,1517,o),
(600,1517,cs)
);
},
{
closed = 1;
nodes = (
(187,216,l),
(187,0,l),
(1013,0,l),
(1013,216,l)
);
},
{
closed = 1;
nodes = (
(703,1321,o),
(766,1249,o),
(766,1064,cs),
(766,877,o),
(703,806,o),
(600,806,cs),
(497,806,o),
(434,877,o),
(434,1064,cs),
(434,1249,o),
(497,1321,o),
(600,1321,cs)
);
}
);
width = 1200;
},
{
layerId = "B67F0F2D-EC95-4CB8-966E-23AE86958A69";
shapes = (
{
closed = 1;
nodes = (
(361,1492,o),
(202,1316,o),
(202,1055,cs),
(202,789,o),
(359,617,o),
(600,617,cs),
(839,617,o),
(995,797,o),
(995,1055,cs),
(995,1327,o),
(841,1492,o),
(600,1492,cs)
);
},
{
closed = 1;
nodes = (
(215,132,l),
(215,0,l),
(988,0,l),
(988,132,l)
);
},
{
closed = 1;
nodes = (
(760,1383,o),
(859,1277,o),
(859,1055,cs),
(859,832,o),
(760,724,o),
(600,724,cs),
(440,724,o),
(338,832,o),
(338,1055,cs),
(338,1277,o),
(440,1383,o),
(600,1383,cs)
);
}
);
width = 1200;
}
);
unicode = 186;
},
{
glyphname = nmod;
lastChange = "2020-04-05 21:58:44 +0000";
layers = (
{
layerId = "4B7A3BAF-EAD8-4024-9BEA-BB1DE86CFCFA";
shapes = (
{
closed = 1;
nodes = (
(631,1446,o),
(571,1426,o),
(517,1356,c),
(507,1426,l),
(303,1426,l),
(303,756,l),
(533,756,l),
(533,1209,l),
(565,1251,o),
(593,1276,o),
(626,1276,cs),
(657,1276,o),
(668,1251,o),
(668,1185,c),
(668,756,l),
(897,756,l),
(897,1240,l),
(897,1372,o),
(825,1446,o),
(701,1446,cs)
);
}
);
width = 1200;
},
{
layerId = "B67F0F2D-EC95-4CB8-966E-23AE86958A69";
shapes = (
{
closed = 1;
nodes = (
(592,1446,o),
(509,1414,o),
(455,1350,c),
(450,1435,l),
(345,1435,l),
(345,756,l),
(462,756,l),
(462,1245,l),
(497,1293,o),
(565,1349,o),
(632,1349,cs),
(728,1349,o),
(741,1293,o),
(741,1157,c),
(741,756,l),
(858,756,l),
(858,1240,l),
(858,1369,o),
(800,1446,o),
(653,1446,cs)
);
}
);
width = 1200;
}
);
unicode = 8319;
},
{
glyphname = "Be-cy";
lastChange = "2025-02-08 14:44:40 +0000";
layers = (
{
anchors = (
{
name = bottom;
pos = (600,0);
},
{
name = top;
pos = (600,1374);
}
);
layerId = "4B7A3BAF-EAD8-4024-9BEA-BB1DE86CFCFA";
shapes = (
{
closed = 1;
nodes = (
(114,1374,l),
(114,0,l),
(599,0,ls),
(910,0,o),
(1137,152,o),
(1137,452,cs),
(1137,741,o),
(931,880,o),
(581,880,cs),
(442,880,l),
(442,1125,l),
(954,1125,l),
(986,1374,l)
);
},
{
closed = 1;
nodes = (
(721,644,o),
(801,581,o),
(801,450,cs),
(801,303,o),
(717,245,o),
(564,245,cs),
(442,245,l),
(442,644,l),
(560,644,ls)
);
}
);
width = 1200;
},
{
anchors = (
{
name = bottom;
pos = (600,0);
},
{
name = top;
pos = (600,1374);
}
);
layerId = "B67F0F2D-EC95-4CB8-966E-23AE86958A69";
shapes = (
{
closed = 1;
nodes = (
(227,1374,l),
(227,0,l),
(537,0,ls),
(849,0,o),
(1069,102,o),
(1069,421,cs),
(1069,711,o),
(866,827,o),
(539,827,cs),
(355,827,l),
(355,1261,l),
(954,1261,l),
(966,1374,l)
);
},
{
closed = 1;
nodes = (
(778,719,o),
(933,644,o),
(933,419,cs),
(933,162,o),
(777,110,o),
(576,110,cs),
(355,110,l),
(355,719,l),
(577,719,ls)
);
}
);
width = 1200;
}
);
tags = (
upper
);
unicode = 1041;
},
{
glyphname = "Ge-cy";
lastChange = "2025-02-08 14:44:40 +0000";
layers = (
{
anchors = (
{
name = bottom;
pos = (344,0);
},
{
name = bottomright;
pos = (567,0);
},
{
name = top;
pos = (665,1374);
}
);
layerId = "4B7A3BAF-EAD8-4024-9BEA-BB1DE86CFCFA";
shapes = (
{
closed = 1;
nodes = (
(180,1374,l),
(180,0,l),
(508,0,l),
(508,1117,l),
(1086,1117,l),
(1117,1374,l)
);
}
);
width = 1200;
},
{
anchors = (
{
name = bottom;
pos = (364,0);
},
{
name = bottomright;
pos = (429,0);
},
{
name = top;
pos = (707,1374);
}
);
layerId = "B67F0F2D-EC95-4CB8-966E-23AE86958A69";
shapes = (
{
closed = 1;
nodes = (
(299,1374,l),
(299,0,l),
(426,0,l),
(426,1253,l),
(1066,1253,l),
(1081,1374,l)
);
}
);
width = 1200;
}
);
tags = (
upper
);
unicode = 1043;
},
{
glyphname = "Gheupturn-cy";
lastChange = "2025-02-08 14:44:40 +0000";
layers = (
{
layerId = "4B7A3BAF-EAD8-4024-9BEA-BB1DE86CFCFA";
shapes = (
{
closed = 1;
nodes = (
(815,1681,l),
(815,1354,l),
(1117,1374,l),
(1117,1681,l)
);
},
{
alignment = -1;
ref = "Ge-cy";
}
);
width = 1200;
},
{
layerId = "B67F0F2D-EC95-4CB8-966E-23AE86958A69";
shapes = (
{
closed = 1;
nodes = (
(950,1661,l),
(950,1354,l),
(1081,1374,l),
(1081,1661,l)
);
},
{
alignment = -1;
ref = "Ge-cy";
}
);
width = 1200;
}
);
tags = (
upper
);
unicode = 1168;
},
{
glyphname = "Ghestroke-cy";
lastChange = "2025-02-08 14:44:40 +0000";
layers = (
{
layerId = "4B7A3BAF-EAD8-4024-9BEA-BB1DE86CFCFA";
shapes = (
{
closed = 1;
nodes = (
(231,859,l),
(76,859,l),
(76,663,l),
(559,663,l),
(843,663,l),
(843,859,l)
);
},
{
alignment = -1;
locked = 1;
pos = (50,0);
ref = "Ge-cy";
}
);
width = 1200;
},
{
layerId = "B67F0F2D-EC95-4CB8-966E-23AE86958A69";
shapes = (
{
closed = 1;
nodes = (
(363,866,l),
(149,866,l),
(149,752,l),
(491,752,l),
(815,752,l),
(815,866,l)
);
},
{
alignment = -1;
locked = 1;
pos = (64,0);
ref = "Ge-cy";
}
);
width = 1200;
}
);
tags = (
upper
);
unicode = 1170;
},
{
glyphname = "Ghemiddlehook-cy";
lastChange = "2025-02-08 14:44:40 +0000";
layers = (
{
anchors = (
{
name = bottom;
pos = (600,-440);
},
{
name = top;
pos = (600,1374);
}
);
layerId = "4B7A3BAF-EAD8-4024-9BEA-BB1DE86CFCFA";
shapes = (
{
closed = 1;
nodes = (
(87,1374,l),
(412,1125,l),
(932,1125,l),
(971,1374,l)
);
},
{
alignment = -1;
pos = (-19,0);
ref = "Shha-cy";
},
{
alignment = -1;
pos = (341,0);
ref = hookHELPER.case;
}
);
width = 1200;
},
{
anchors = (
{
name = bottom;
pos = (600,-386);
},
{
name = top;
pos = (600,1374);
}
);
layerId = "B67F0F2D-EC95-4CB8-966E-23AE86958A69";
shapes = (
{
closed = 1;
nodes = (
(240,1374,l),
(322,1261,l),
(912,1261,l),
(929,1374,l)
);
},
{
alignment = -1;
pos = (9,0);
ref = "Shha-cy";
},
{
alignment = -1;
pos = (587,0);
ref = hookHELPER.case;
}
);
width = 1200;
}
);
tags = (
upper
);
unicode = 1172;
},
{
glyphname = "De-cy";
lastChange = "2025-02-08 14:44:40 +0000";
layers = (
{
anchors = (
{
name = bottom;
pos = (600,-440);
},
{
name = top;
pos = (600,1374);
}
);
layerId = "4B7A3BAF-EAD8-4024-9BEA-BB1DE86CFCFA";
shapes = (
{
closed = 1;
nodes = (
(278,1374,l),
(237,944,ls),
(192,474,o),
(147,337,o),
(59,243,c),
(230,0,l),
(903,-2,l),
(1049,243,l),
(1049,1374,l)
);
},
{
closed = 1;
nodes = (
(749,243,l),
(316,243,l),
(445,349,o),
(499,511,o),
(538,976,cs),
(552,1143,l),
(749,1143,l)
);
},
{
alignment = -1;
pos = (371,0);
ref = "descStraight-cy.case";
},
{
alignment = -1;
pos = (763,0);
ref = "descStraight-cy.case";
scale = (-1,1);
}
);
width = 1200;
},
{
anchors = (
{
name = bottom;
pos = (600,-386);
},
{
name = top;
pos = (600,1374);
}
);
layerId = "B67F0F2D-EC95-4CB8-966E-23AE86958A69";
shapes = (
{
closed = 1;
nodes = (
(354,1374,l),
(299,990,ls),
(212,368,o),
(209,228,o),
(93,116,c),
(154,0,l),
(974,1,l),
(1021,116,l),
(1021,1374,l)
);
},
{
closed = 1;
nodes = (
(881,116,l),
(234,116,l),
(353,227,o),
(364,385,o),
(436,966,cs),
(470,1253,l),
(881,1253,l)
);
},
{
alignment = -1;
pos = (433,0);
ref = "descStraight-cy.case";
},
{
alignment = -1;
pos = (695,0);
ref = "descStraight-cy.case";
scale = (-1,1);
}
);
width = 1200;
}
);
tags = (
upper
);
unicode = 1044;
},
{
glyphname = "Zhe-cy";
lastChange = "2025-02-08 14:44:40 +0000";
layers = (
{
anchors = (
{
name = bottom;
pos = (600,0);
},
{
name = bottomright;
pos = (1165,0);
},
{
name = top;
pos = (600,1374);
}
);
layerId = "4B7A3BAF-EAD8-4024-9BEA-BB1DE86CFCFA";
shapes = (
{
closed = 1;
nodes = (
(501,0,l),
(699,0,l),
(699,634,l),
(755,634,l),
(912,0,l),
(1195,0,l),
(981,751,l),
(1175,1374,l),
(906,1374,l),
(753,797,l),
(699,797,l),
(699,1374,l),
(501,1374,l),
(501,797,l),
(447,797,l),
(294,1374,l),
(25,1374,l),
(219,751,l),
(5,0,l),
(284,0,l),
(441,634,l),
(501,634,l)
);
}
);
width = 1200;
},
{
anchors = (
{
name = bottom;
pos = (600,0);
},
{
name = bottomright;
pos = (1100,0);
},
{
name = top;
pos = (600,1374);
}
);
layerId = "B67F0F2D-EC95-4CB8-966E-23AE86958A69";
shapes = (
{
closed = 1;
nodes = (
(529,0,l),
(671,0,l),
(671,657,l),
(812,657,l),
(1031,0,l),
(1170,0,l),
(916,721,l),
(1139,1374,l),
(1005,1374,l),
(813,792,l),
(671,792,l),
(671,1374,l),
(529,1374,l),
(529,792,l),
(387,792,l),
(198,1374,l),
(61,1374,l),
(284,721,l),
(30,0,l),
(165,0,l),
(387,657,l),
(529,657,l)
);
}
);
width = 1200;
}
);
tags = (
upper
);
unicode = 1046;
},
{
glyphname = "Ze-cy";
lastChange = "2025-02-08 14:44:40 +0000";
layers = (
{
anchors = (
{
name = bottom;
pos = (574,0);
},
{
name = top;
pos = (578,1374);
}
);
layerId = "4B7A3BAF-EAD8-4024-9BEA-BB1DE86CFCFA";
shapes = (
{
closed = 1;
nodes = (
(360,1409,o),
(184,1349,o),
(49,1231,c),
(208,1065,l),
(295,1134,o),
(407,1172,o),
(533,1172,cs),
(677,1172,o),
(761,1111,o),
(761,1011,cs),
(761,899,o),
(668,844,o),
(531,844,cs),
(338,844,l),
(301,611,l),
(531,611,ls),
(697,611,o),
(797,546,o),
(797,407,cs),
(797,282,o),
(696,206,o),
(535,206,cs),
(397,206,o),
(279,250,o),
(182,330,c),
(14,162,l),
(135,37,o),
(314,-34,o),
(540,-34,cs),
(912,-34,o),
(1125,137,o),
(1125,392,cs),
(1125,595,o),
(984,709,o),
(768,731,c),
(968,771,o),
(1083,874,o),
(1083,1043,cs),
(1083,1259,o),
(879,1409,o),
(566,1409,cs)
);
}
);
width = 1200;
},
{
anchors = (
{
name = bottom;
pos = (591,0);
},
{
name = top;
pos = (601,1374);
}
);
layerId = "B67F0F2D-EC95-4CB8-966E-23AE86958A69";
shapes = (
{
closed = 1;
nodes = (
(390,1393,o),
(248,1337,o),
(111,1225,c),
(191,1140,l),
(299,1225,o),
(405,1280,o),
(567,1280,cs),
(742,1280,o),
(885,1204,o),
(885,1043,cs),
(885,871,o),
(726,800,o),
(567,800,cs),
(352,800,l),
(337,679,l),
(585,679,ls),
(774,679,o),
(924,599,o),
(924,401,cs),
(924,215,o),
(795,98,o),
(563,98,cs),
(412,98,o),
(286,154,o),
(176,250,c),
(87,176,l),
(206,50,o),
(375,-20,o),
(560,-20,cs),
(871,-20,o),
(1068,170,o),
(1068,413,cs),
(1068,629,o),
(902,739,o),
(745,752,c),
(886,769,o),
(1021,868,o),
(1021,1038,cs),
(1021,1247,o),
(845,1393,o),
(560,1393,cs)
);
}
);
width = 1200;
}
);
tags = (
upper
);
unicode = 1047;
},
{
glyphname = "Ii-cy";
lastChange = "2025-02-08 14:44:40 +0000";
layers = (
{
anchors = (
{
name = bottom;
pos = (600,0);
},
{
name = bottomright;
pos = (1116,0);
},
{
name = top;
pos = (600,1374);
}
);
layerId = "4B7A3BAF-EAD8-4024-9BEA-BB1DE86CFCFA";
shapes = (
{
closed = 1;
nodes = (
(472,0,l),
(849,1085,l),
(820,915,o),
(796,719,o),
(796,452,cs),
(796,0,l),
(1096,0,l),
(1096,1374,l),
(734,1374,l),
(349,286,l),
(379,453,o),
(404,627,o),
(404,912,cs),
(404,1374,l),
(104,1374,l),
(104,0,l)
);
}
);
width = 1200;
},
{
anchors = (
{
name = bottom;
pos = (600,0);
},
{
name = bottomright;
pos = (1034,0);
},
{
name = top;
pos = (600,1374);
}
);
layerId = "B67F0F2D-EC95-4CB8-966E-23AE86958A69";
shapes = (
{
closed = 1;
nodes = (
(370,0,l),
(903,1247,l),
(893,1135,o),
(880,960,o),
(880,768,cs),
(880,0,l),
(1014,0,l),
(1014,1374,l),
(833,1374,l),
(298,114,l),
(314,262,o),
(320,380,o),
(320,611,cs),
(320,1374,l),
(186,1374,l),
(186,0,l)
);
}
);
width = 1200;
}
);
tags = (
upper
);
unicode = 1048;
},
{
glyphname = "Ka-cy";
lastChange = "2025-02-08 14:44:40 +0000";
layers = (
{
anchors = (
{
name = bottom;
pos = (600,0);
},
{
name = bottomright;
pos = (1140,0);
},
{
name = top;
pos = (648,1374);
}
);
layerId = "4B7A3BAF-EAD8-4024-9BEA-BB1DE86CFCFA";
shapes = (
{
closed = 1;
nodes = (
(859,0,l),
(1217,0,l),
(826,751,l),
(1179,1374,l),
(860,1374,l),
(553,835,l),
(432,835,l),
(432,1374,l),
(104,1374,l),
(104,0,l),
(432,0,l),
(432,597,l),
(557,597,l)
);
}
);
width = 1200;
},
{
anchors = (
{
name = bottom;
pos = (600,0);
},
{
name = bottomright;
pos = (1050,0);
},
{
name = top;
pos = (636,1374);
}
);
layerId = "B67F0F2D-EC95-4CB8-966E-23AE86958A69";
shapes = (
{
closed = 1;
nodes = (
(994,0,l),
(1160,0,l),
(625,721,l),
(1122,1374,l),
(973,1374,l),
(517,784,l),
(342,784,l),
(342,1374,l),
(214,1374,l),
(214,0,l),
(342,0,l),
(342,665,l),
(512,665,l)
);
}
);
width = 1200;
}
);
tags = (
upper
);
unicode = 1050;
},
{
glyphname = "El-cy";
lastChange = "2025-02-08 14:44:40 +0000";
layers = (
{
anchors = (
{
name = bottom;
pos = (600,0);
},
{
name = bottomright;
pos = (1116,0);
},
{
name = top;
pos = (600,1374);
}
);
layerId = "4B7A3BAF-EAD8-4024-9BEA-BB1DE86CFCFA";
shapes = (
{
closed = 1;
nodes = (
(264,1374,l),
(223,937,ls),
(169,358,o),
(107,273,o),
(-25,176,c),
(104,-40,l),
(381,91,o),
(467,246,o),
(530,912,cs),
(550,1124,l),
(768,1124,l),
(768,0,l),
(1096,0,l),
(1096,1374,l)
);
}
);
width = 1200;
},
{
anchors = (
{
name = bottom;
pos = (600,0);
},
{
name = bottomright;
pos = (1034,0);
},
{
name = top;
pos = (600,1374);
}
);
layerId = "B67F0F2D-EC95-4CB8-966E-23AE86958A69";
shapes = (
{
closed = 1;
nodes = (
(360,1374,l),
(271,719,ls),
(197,203,o),
(122,155,o),
(46,86,c),
(107,-17,l),
(257,104,o),
(332,164,o),
(414,792,cs),
(471,1255,l),
(887,1255,l),
(887,0,l),
(1014,0,l),
(1014,1374,l)
);
}
);
width = 1200;
}
);
tags = (
upper
);
unicode = 1051;
},
{
glyphname = "Pe-cy";
lastChange = "2025-02-08 14:44:40 +0000";
layers = (
{
anchors = (
{
name = bottom;
pos = (600,0);
},
{
name = bottomright;
pos = (1116,0);
},
{
name = top;
pos = (600,1374);
}
);
layerId = "4B7A3BAF-EAD8-4024-9BEA-BB1DE86CFCFA";
shapes = (
{
closed = 1;
nodes = (
(1096,0,l),
(1096,1374,l),
(104,1374,l),
(104,0,l),
(432,0,l),
(432,1122,l),
(768,1122,l),
(768,0,l)
);
}
);
width = 1200;
},
{
anchors = (
{
name = bottom;
pos = (600,0);
},
{
name = bottomright;
pos = (1034,0);
},
{
name = top;
pos = (600,1374);
}
);
layerId = "B67F0F2D-EC95-4CB8-966E-23AE86958A69";
shapes = (
{
closed = 1;
nodes = (
(1014,0,l),
(1014,1374,l),
(186,1374,l),
(186,0,l),
(313,0,l),
(313,1253,l),
(887,1253,l),
(887,0,l)
);
}
);
width = 1200;
}
);
tags = (
upper
);
unicode = 1055;
},
{
glyphname = "U-cy";
lastChange = "2025-02-08 14:44:40 +0000";
layers = (
{
anchors = (
{
name = bottom;
pos = (600,0);
},
{
name = top;
pos = (620,1374);
}
);
layerId = "4B7A3BAF-EAD8-4024-9BEA-BB1DE86CFCFA";
shapes = (
{
closed = 1;
nodes = (
(883,1374,l),
(622,550,l),
(329,1374,l),
(-10,1374,l),
(420,363,l),
(526,363,l),
(464,256,o),
(382,210,o),
(169,190,c),
(213,-34,l),
(590,-4,o),
(726,115,o),
(863,468,cs),
(1215,1374,l)
);
}
);
width = 1200;
},
{
anchors = (
{
name = bottom;
pos = (600,0);
},
{
name = top;
pos = (620,1374);
}
);
guides = (
{
angle = 246.7784;
pos = (822,923);
}
);
layerId = "B67F0F2D-EC95-4CB8-966E-23AE86958A69";
shapes = (
{
closed = 1;
nodes = (
(1015,1374,l),
(628,472,l),
(205,1374,l),
(72,1374,l),
(533,383,l),
(591,383,l),
(508,189,o),
(439,126,o),
(231,94,c),
(252,-20,l),
(517,19,o),
(618,136,o),
(702,327,cs),
(1144,1374,l)
);
}
);
width = 1200;
}
);
tags = (
upper
);
unicode = 1059;
},
{
glyphname = "Ef-cy";
lastChange = "2025-02-08 14:44:40 +0000";
layers = (
{
anchors = (
{
name = bottom;
pos = (600,0);
},
{
name = top;
pos = (600,1374);
}
);
layerId = "4B7A3BAF-EAD8-4024-9BEA-BB1DE86CFCFA";
shapes = (
{
closed = 1;
nodes = (
(487,1447,l),
(487,1301,l),
(161,1279,o),
(8,1081,o),
(8,694,cs),
(8,309,o),
(163,95,o),
(487,76,c),
(487,-77,l),
(713,-77,l),
(713,76,l),
(1035,96,o),
(1192,311,o),
(1192,694,cs),
(1192,1081,o),
(1037,1279,o),
(713,1301,c),
(713,1447,l)
);
},
{
closed = 1;
nodes = (
(506,255,l),
(356,271,o),
(315,400,o),
(315,694,cs),
(315,991,o),
(364,1109,o),
(506,1124,c)
);
},
{
closed = 1;
nodes = (
(838,1109,o),
(885,991,o),
(885,694,cs),
(885,400,o),
(844,271,o),
(694,255,c),
(694,1124,l)
);
}
);
width = 1200;
},
{
anchors = (
{
name = bottom;
pos = (600,0);
},
{
name = top;
pos = (600,1374);
}
);
layerId = "B67F0F2D-EC95-4CB8-966E-23AE86958A69";
shapes = (
{
closed = 1;
nodes = (
(523,1428,l),
(523,1321,l),
(189,1296,o),
(31,1087,o),
(31,691,cs),
(31,275,o),
(211,70,o),
(523,59,c),
(523,-52,l),
(677,-52,l),
(677,59,l),
(987,73,o),
(1169,277,o),
(1169,691,cs),
(1169,1087,o),
(1012,1296,o),
(677,1321,c),
(677,1428,l)
);
},
{
closed = 1;
nodes = (
(520,172,l),
(277,190,o),
(168,341,o),
(168,691,cs),
(168,1066,o),
(285,1202,o),
(520,1206,c)
);
},
{
closed = 1;
nodes = (
(914,1202,o),
(1032,1066,o),
(1032,691,cs),
(1032,341,o),
(923,190,o),
(680,172,c),
(680,1206,l)
);
}
);
width = 1200;
}
);
tags = (
upper
);
unicode = 1060;
},
{
glyphname = "Che-cy";
lastChange = "2025-02-08 14:44:40 +0000";
layers = (
{
anchors = (
{
name = bottom;
pos = (600,0);
},
{
name = bottomleft;
pos = (748,0);
},
{
name = bottomright;
pos = (1116,0);
},
{
name = top;
pos = (572,1374);
}
);
layerId = "4B7A3BAF-EAD8-4024-9BEA-BB1DE86CFCFA";
shapes = (
{
closed = 1;
nodes = (
(49,1374,l),
(49,860,ls),
(49,552,o),
(209,391,o),
(481,391,cs),
(609,391,o),
(712,433,o),
(793,500,c),
(786,722,l),
(741,675,o),
(681,634,o),
(571,634,cs),
(434,634,o),
(377,698,o),
(377,871,cs),
(377,1374,l)
);
},
{
closed = 1;
nodes = (
(768,1374,l),
(768,0,l),
(1096,0,l),
(1096,1374,l)
);
}
);
width = 1200;
},
{
anchors = (
{
name = bottom;
pos = (600,0);
},
{
name = bottomleft;
pos = (867,0);
},
{
name = bottomright;
pos = (1034,0);
},
{
name = top;
pos = (581,1374);
}
);
layerId = "B67F0F2D-EC95-4CB8-966E-23AE86958A69";
shapes = (
{
closed = 1;
nodes = (
(117,1374,l),
(117,839,ls),
(117,611,o),
(277,452,o),
(509,452,cs),
(680,452,o),
(776,499,o),
(931,619,c),
(905,731,l),
(829,647,o),
(712,577,o),
(537,577,cs),
(355,577,o),
(245,667,o),
(245,855,cs),
(245,1374,l)
);
},
{
closed = 1;
nodes = (
(887,1374,l),
(887,0,l),
(1014,0,l),
(1014,1374,l)
);
}
);
width = 1200;
}
);
tags = (
upper
);
unicode = 1063;
},
{
glyphname = "Sha-cy";
lastChange = "2025-02-08 14:44:40 +0000";
layers = (
{
anchors = (
{
name = bottom;
pos = (600,0);
},
{
name = bottomright;
pos = (1149,0);
},
{
name = top;
pos = (600,1374);
}
);
layerId = "4B7A3BAF-EAD8-4024-9BEA-BB1DE86CFCFA";
shapes = (
{
closed = 1;
nodes = (
(870,1374,l),
(870,224,l),
(715,224,l),
(715,1374,l),
(485,1374,l),
(485,224,l),
(330,224,l),
(330,1374,l),
(71,1374,l),
(71,0,l),
(1129,0,l),
(1129,1374,l)
);
}
);
width = 1200;
},
{
anchors = (
{
name = bottom;
pos = (600,0);
},
{
name = bottomright;
pos = (1121,0);
},
{
name = top;
pos = (600,1374);
}
);
layerId = "B67F0F2D-EC95-4CB8-966E-23AE86958A69";
shapes = (
{
closed = 1;
nodes = (
(966,1374,l),
(966,122,l),
(667,122,l),
(667,1374,l),
(533,1374,l),
(533,122,l),
(234,122,l),
(234,1374,l),
(99,1374,l),
(99,0,l),
(1101,0,l),
(1101,1374,l)
);
}
);
width = 1200;
}
);
tags = (
upper
);
unicode = 1064;
},
{
color = 3;
glyphname = "Dzhe-cy";
lastChange = "2025-02-08 14:44:40 +0000";
layers = (
{
layerId = "4B7A3BAF-EAD8-4024-9BEA-BB1DE86CFCFA";
shapes = (
{
closed = 1;
nodes = (
(480,-347,l),
(720,-347,l),
(768,155,l),
(432,155,l)
);
},
{
ref = "TseHelper-cy";
}
);
width = 1200;
},
{
layerId = "B67F0F2D-EC95-4CB8-966E-23AE86958A69";
shapes = (
{
closed = 1;
nodes = (
(550,-278,l),
(650,-278,l),
(664,61,l),
(536,61,l)
);
},
{
ref = "TseHelper-cy";
}
);
width = 1200;
}
);
tags = (
upper
);
unicode = 1039;
},
{
glyphname = "Softsign-cy";
lastChange = "2025-02-08 14:44:40 +0000";
layers = (
{
anchors = (
{
name = bottom;
pos = (600,0);
},
{
name = top;
pos = (600,1374);
}
);
layerId = "4B7A3BAF-EAD8-4024-9BEA-BB1DE86CFCFA";
shapes = (
{
closed = 1;
nodes = (
(110,1374,l),
(110,0,l),
(595,0,ls),
(930,0,o),
(1153,150,o),
(1153,467,cs),
(1153,771,o),
(935,912,o),
(574,912,cs),
(438,912,l),
(438,1374,l)
);
},
{
closed = 1;
nodes = (
(733,678,o),
(815,613,o),
(815,465,cs),
(815,307,o),
(729,239,o),
(574,239,cs),
(438,239,l),
(438,678,l),
(563,678,ls)
);
}
);
width = 1200;
},
{
anchors = (
{
name = bottom;
pos = (600,0);
},
{
name = top;
pos = (600,1374);
}
);
layerId = "B67F0F2D-EC95-4CB8-966E-23AE86958A69";
shapes = (
{
closed = 1;
nodes = (
(212,1374,l),
(212,0,l),
(564,0,ls),
(866,0,o),
(1088,115,o),
(1088,435,cs),
(1088,729,o),
(890,851,o),
(568,851,cs),
(339,851,l),
(339,1374,l)
);
},
{
closed = 1;
nodes = (
(793,742,o),
(947,664,o),
(947,433,cs),
(947,166,o),
(791,112,o),
(597,112,cs),
(339,112,l),
(339,742,l),
(602,742,ls)
);
}
);
width = 1200;
}
);
tags = (
upper
);
unicode = 1068;
},
{
glyphname = "Yeru-cy";
lastChange = "2025-02-08 14:44:40 +0000";
layers = (
{
anchors = (
{
name = bottom;
pos = (600,0);
},
{
name = top;
pos = (600,1374);
}
);
layerId = "4B7A3BAF-EAD8-4024-9BEA-BB1DE86CFCFA";
shapes = (
{
closed = 1;
nodes = (
(43,1374,l),
(43,0,l),
(333,0,ls),
(637,0,o),
(837,143,o),
(837,469,cs),
(837,770,o),
(650,917,o),
(329,917,cs),
(310,917,l),
(310,1374,l)
);
},
{
closed = 1;
nodes = (
(490,696,o),
(557,622,o),
(557,467,cs),
(557,281,o),
(477,226,o),
(337,226,cs),
(310,226,l),
(310,696,l),
(357,696,ls)
);
},
{
closed = 1;
nodes = (
(890,1374,l),
(890,0,l),
(1157,0,l),
(1157,1374,l)
);
}
);
width = 1200;
},
{
anchors = (
{
name = bottom;
pos = (600,0);
},
{
name = top;
pos = (600,1374);
}
);
layerId = "B67F0F2D-EC95-4CB8-966E-23AE86958A69";
shapes = (
{
closed = 1;
nodes = (
(68,1374,l),
(68,0,l),
(378,0,ls),
(694,0,o),
(868,144,o),
(868,434,cs),
(868,697,o),
(714,848,o),
(374,848,cs),
(217,848,l),
(217,1374,l)
);
},
{
closed = 1;
nodes = (
(603,742,o),
(713,637,o),
(713,432,cs),
(713,203,o),
(601,113,o),
(399,113,cs),
(217,113,l),
(217,742,l),
(391,742,ls)
);
},
{
closed = 1;
nodes = (
(983,1374,l),
(983,0,l),
(1132,0,l),
(1132,1374,l)
);
}
);
width = 1200;
}
);
tags = (
upper
);
unicode = 1067;
},
{
glyphname = "Hardsign-cy";
lastChange = "2025-02-08 14:44:40 +0000";
layers = (
{
layerId = "4B7A3BAF-EAD8-4024-9BEA-BB1DE86CFCFA";
shapes = (
{
closed = 1;
nodes = (
(-6,1374,l),
(-6,1135,l),
(182,1135,l),
(182,0,l),
(618,0,ls),
(944,0,o),
(1174,144,o),
(1174,467,cs),
(1174,771,o),
(956,912,o),
(595,912,cs),
(490,912,l),
(490,1374,l)
);
},
{
closed = 1;
nodes = (
(759,684,o),
(840,613,o),
(840,465,cs),
(840,287,o),
(734,234,o),
(559,234,cs),
(490,234,l),
(490,684,l),
(584,684,ls)
);
}
);
width = 1200;
},
{
layerId = "B67F0F2D-EC95-4CB8-966E-23AE86958A69";
shapes = (
{
closed = 1;
nodes = (
(3,1374,l),
(3,1248,l),
(261,1248,l),
(261,0,l),
(635,0,ls),
(941,0,o),
(1160,114,o),
(1160,435,cs),
(1160,729,o),
(962,851,o),
(640,851,cs),
(397,851,l),
(397,1374,l)
);
},
{
closed = 1;
nodes = (
(868,739,o),
(1023,664,o),
(1023,433,cs),
(1023,172,o),
(876,115,o),
(691,115,cs),
(397,115,l),
(397,739,l),
(680,739,ls)
);
}
);
width = 1200;
}
);
tags = (
upper
);
unicode = 1066;
},
{
glyphname = "Lje-cy";
lastChange = "2025-02-08 14:44:40 +0000";
layers = (
{
anchors = (
{
name = bottom;
pos = (600,0);
},
{
name = top;
pos = (600,1374);
}
);
layerId = "4B7A3BAF-EAD8-4024-9BEA-BB1DE86CFCFA";
shapes = (
{
closed = 1;
nodes = (
(122,1374,l),
(82,643,ls),
(61,265,o),
(27,196,o),
(-29,148,c),
(88,-40,l),
(244,64,o),
(315,141,o),
(337,602,cs),
(364,1167,l),
(478,1167,l),
(478,0,l),
(730,0,ls),
(1016,0,o),
(1200,146,o),
(1200,467,cs),
(1200,769,o),
(1028,912,o),
(728,912,c),
(728,1374,l)
);
},
{
closed = 1;
nodes = (
(879,706,o),
(930,618,o),
(930,465,cs),
(930,306,o),
(881,211,o),
(758,211,cs),
(728,211,l),
(728,706,l),
(748,706,ls)
);
}
);
width = 1200;
},
{
anchors = (
{
name = bottom;
pos = (600,0);
},
{
name = top;
pos = (600,1374);
}
);
layerId = "B67F0F2D-EC95-4CB8-966E-23AE86958A69";
shapes = (
{
closed = 1;
nodes = (
(221,1374,l),
(155,621,ls),
(121,224,o),
(75,149,o),
(13,75,c),
(94,-17,l),
(201,70,o),
(253,128,o),
(295,625,cs),
(347,1251,l),
(557,1251,l),
(557,0,l),
(724,0,ls),
(1019,0,o),
(1200,119,o),
(1200,435,cs),
(1200,724,o),
(1040,851,o),
(705,851,c),
(705,1374,l)
);
},
{
closed = 1;
nodes = (
(936,738,o),
(1046,664,o),
(1046,433,cs),
(1046,166,o),
(929,119,o),
(735,119,cs),
(705,119,l),
(705,738,l),
(739,738,ls)
);
}
);
width = 1200;
}
);
tags = (
upper
);
unicode = 1033;
},
{
glyphname = "Nje-cy";
lastChange = "2025-02-08 14:44:40 +0000";
layers = (
{
anchors = (
{
name = bottom;
pos = (600,0);
},
{
name = top;
pos = (600,1374);
}
);
layerId = "4B7A3BAF-EAD8-4024-9BEA-BB1DE86CFCFA";
shapes = (
{
closed = 1;
nodes = (
(482,1374,l),
(482,862,l),
(314,862,l),
(314,1374,l),
(57,1374,l),
(57,0,l),
(314,0,l),
(314,636,l),
(482,636,l),
(482,0,l),
(720,0,ls),
(1039,0,o),
(1200,151,o),
(1200,450,cs),
(1200,731,o),
(1022,858,o),
(739,862,c),
(739,1374,l)
);
},
{
closed = 1;
nodes = (
(879,642,o),
(936,592,o),
(936,448,cs),
(936,293,o),
(887,226,o),
(750,226,cs),
(739,226,l),
(739,642,l),
(750,642,ls)
);
}
);
width = 1200;
},
{
anchors = (
{
name = bottom;
pos = (600,0);
},
{
name = top;
pos = (600,1374);
}
);
layerId = "B67F0F2D-EC95-4CB8-966E-23AE86958A69";
shapes = (
{
closed = 1;
nodes = (
(555,1374,l),
(555,815,l),
(235,815,l),
(235,1374,l),
(91,1374,l),
(91,0,l),
(235,0,l),
(235,714,l),
(555,714,l),
(555,0,l),
(729,0,ls),
(1008,0,o),
(1200,100,o),
(1200,417,cs),
(1200,695,o),
(1042,817,o),
(700,815,c),
(700,1374,l)
);
},
{
closed = 1;
nodes = (
(936,712,o),
(1044,639,o),
(1044,415,cs),
(1044,151,o),
(926,108,o),
(738,110,cs),
(700,110,l),
(700,711,l),
(738,711,ls)
);
}
);
width = 1200;
}
);
tags = (
upper
);
unicode = 1034;
},
{
glyphname = "E-cy";
lastChange = "2025-02-08 14:44:40 +0000";
layers = (
{
anchors = (
{
name = bottom;
pos = (600,0);
},
{
name = top;
pos = (600,1374);
}
);
layerId = "4B7A3BAF-EAD8-4024-9BEA-BB1DE86CFCFA";
shapes = (
{
closed = 1;
nodes = (
(345,1409,o),
(67,1150,o),
(67,690,cs),
(67,218,o),
(327,-34,o),
(708,-34,cs),
(927,-34,o),
(1078,48,o),
(1179,145,c),
(1034,321,l),
(953,264,o),
(866,214,o),
(730,214,cs),
(550,214,o),
(417,328,o),
(401,577,c),
(914,577,l),
(914,829,l),
(401,829,l),
(421,1065,o),
(562,1172,o),
(737,1172,cs),
(842,1172,o),
(923,1135,o),
(1006,1079,c),
(1160,1257,l),
(1042,1350,o),
(915,1409,o),
(716,1409,cs)
);
}
);
width = 1200;
},
{
anchors = (
{
name = bottom;
pos = (600,0);
},
{
name = top;
pos = (600,1374);
}
);
layerId = "B67F0F2D-EC95-4CB8-966E-23AE86958A69";
shapes = (
{
closed = 1;
nodes = (
(399,1393,o),
(129,1151,o),
(129,687,cs),
(129,229,o),
(375,-20,o),
(708,-20,cs),
(899,-20,o),
(1029,51,o),
(1108,123,c),
(1031,217,l),
(969,156,o),
(869,95,o),
(710,95,cs),
(471,95,o),
(279,254,o),
(263,651,c),
(905,651,l),
(905,764,l),
(269,764,l),
(297,1149,o),
(489,1280,o),
(709,1280,cs),
(815,1280,o),
(921,1251,o),
(1018,1180,c),
(1087,1265,l),
(984,1348,o),
(873,1393,o),
(702,1393,cs)
);
}
);
width = 1200;
}
);
tags = (
upper
);
unicode = 1028;
},
{
glyphname = "Ereversed-cy";
lastChange = "2025-02-08 14:44:40 +0000";
layers = (
{
anchors = (
{
name = bottom;
pos = (600,0);
},
{
name = top;
pos = (557,1366);
}
);
layerId = "4B7A3BAF-EAD8-4024-9BEA-BB1DE86CFCFA";
shapes = (
{
closed = 1;
nodes = (
(317,1409,o),
(171,1342,o),
(44,1238,c),
(196,1065,l),
(270,1119,o),
(362,1172,o),
(493,1172,cs),
(670,1172,o),
(775,1077,o),
(787,819,c),
(274,819,l),
(274,587,l),
(787,587,l),
(777,317,o),
(660,214,o),
(483,214,cs),
(356,214,o),
(269,254,o),
(180,318,c),
(28,141,l),
(141,30,o),
(298,-34,o),
(485,-34,cs),
(864,-34,o),
(1121,206,o),
(1121,696,cs),
(1121,1164,o),
(897,1409,o),
(520,1409,cs)
);
}
);
width = 1200;
},
{
anchors = (
{
name = bottom;
pos = (600,0);
},
{
name = top;
pos = (585,1378);
}
);
layerId = "B67F0F2D-EC95-4CB8-966E-23AE86958A69";
shapes = (
{
closed = 1;
nodes = (
(351,1393,o),
(213,1311,o),
(117,1225,c),
(196,1143,l),
(282,1214,o),
(379,1280,o),
(541,1280,cs),
(772,1280,o),
(910,1141,o),
(931,768,c),
(297,768,l),
(297,647,l),
(931,647,l),
(912,271,o),
(779,95,o),
(519,95,cs),
(391,95,o),
(287,141,o),
(192,233,c),
(101,156,l),
(201,53,o),
(353,-20,o),
(533,-20,cs),
(861,-20,o),
(1064,231,o),
(1064,708,cs),
(1064,1171,o),
(861,1393,o),
(543,1393,cs)
);
}
);
width = 1200;
}
);
tags = (
upper
);
unicode = 1069;
},
{
glyphname = "Tshe-cy";
lastChange = "2025-02-08 14:44:40 +0000";
layers = (
{
layerId = "4B7A3BAF-EAD8-4024-9BEA-BB1DE86CFCFA";
shapes = (
{
closed = 1;
nodes = (
(-16,1374,l),
(-16,1141,l),
(261,1141,l),
(261,0,l),
(568,0,l),
(568,634,l),
(605,669,o),
(653,698,o),
(720,698,cs),
(818,698,o),
(857,652,o),
(857,529,cs),
(857,0,l),
(1163,0,l),
(1163,500,ls),
(1163,789,o),
(1039,934,o),
(805,934,cs),
(708,934,o),
(633,900,o),
(568,846,c),
(568,1141,l),
(847,1141,l),
(881,1374,l)
);
}
);
width = 1200;
},
{
layerId = "B67F0F2D-EC95-4CB8-966E-23AE86958A69";
shapes = (
{
closed = 1;
nodes = (
(-7,1374,l),
(-7,1257,l),
(329,1257,l),
(329,0,l),
(463,0,l),
(463,643,l),
(519,693,o),
(602,762,o),
(743,762,cs),
(923,762,o),
(989,675,o),
(989,465,cs),
(989,0,l),
(1124,0,l),
(1124,490,ls),
(1124,747,o),
(1011,887,o),
(769,887,cs),
(635,887,o),
(539,833,o),
(463,759,c),
(463,1257,l),
(796,1257,l),
(810,1374,l)
);
}
);
width = 1200;
}
);
tags = (
upper
);
unicode = 1035;
},
{
glyphname = "Iu-cy";
lastChange = "2025-02-08 14:44:40 +0000";
layers = (
{
anchors = (
{
name = bottom;
pos = (600,0);
},
{
name = top;
pos = (600,1374);
}
);
layerId = "4B7A3BAF-EAD8-4024-9BEA-BB1DE86CFCFA";
shapes = (
{
closed = 1;
nodes = (
(526,1409,o),
(422,1195,o),
(406,821,c),
(313,821,l),
(313,1374,l),
(63,1374,l),
(63,0,l),
(313,0,l),
(313,599,l),
(404,599,l),
(414,186,o),
(509,-34,o),
(788,-34,cs),
(1077,-34,o),
(1176,212,o),
(1176,688,cs),
(1176,1169,o),
(1082,1409,o),
(788,1409,cs)
);
},
{
closed = 1;
nodes = (
(881,1194,o),
(904,1094,o),
(904,688,cs),
(904,286,o),
(879,182,o),
(788,182,cs),
(694,182,o),
(671,288,o),
(671,690,cs),
(671,1094,o),
(698,1194,o),
(788,1194,cs)
);
}
);
width = 1200;
},
{
anchors = (
{
name = bottom;
pos = (600,0);
},
{
name = top;
pos = (600,1374);
}
);
layerId = "B67F0F2D-EC95-4CB8-966E-23AE86958A69";
shapes = (
{
closed = 1;
nodes = (
(512,1393,o),
(410,1174,o),
(394,773,c),
(245,773,l),
(245,1374,l),
(102,1374,l),
(102,0,l),
(245,0,l),
(245,653,l),
(392,653,l),
(397,260,o),
(484,-20,o),
(774,-20,cs),
(1041,-20,o),
(1153,234,o),
(1153,685,cs),
(1153,1148,o),
(1059,1393,o),
(774,1393,cs)
);
},
{
closed = 1;
nodes = (
(926,1273,o),
(1003,1116,o),
(1003,685,cs),
(1003,253,o),
(927,100,o),
(774,100,cs),
(610,100,o),
(544,255,o),
(544,687,cs),
(544,1118,o),
(608,1273,o),
(774,1273,cs)
);
}
);
width = 1200;
}
);
tags = (
upper
);
unicode = 1070;
},
{
glyphname = "Ia-cy";
lastChange = "2025-02-08 14:44:40 +0000";
layers = (
{
anchors = (
{
name = bottom;
pos = (600,0);
},
{
name = top;
pos = (600,1374);
}
);
layerId = "4B7A3BAF-EAD8-4024-9BEA-BB1DE86CFCFA";
shapes = (
{
closed = 1;
nodes = (
(643,1374,ls),
(268,1374,o),
(74,1229,o),
(74,938,cs),
(74,744,o),
(156,627,o),
(310,558,c),
(4,0,l),
(357,0,l),
(599,496,l),
(768,496,l),
(768,0,l),
(1096,0,l),
(1096,1374,l)
);
},
{
closed = 1;
nodes = (
(768,719,l),
(655,719,ls),
(502,719,o),
(412,773,o),
(412,930,cs),
(412,1071,o),
(493,1144,o),
(648,1144,cs),
(768,1144,l)
);
}
);
width = 1200;
},
{
anchors = (
{
name = bottom;
pos = (600,0);
},
{
name = top;
pos = (600,1374);
}
);
layerId = "B67F0F2D-EC95-4CB8-966E-23AE86958A69";
shapes = (
{
closed = 1;
nodes = (
(679,1374,ls),
(350,1374,o),
(173,1223,o),
(173,975,cs),
(173,816,o),
(252,675,o),
(415,602,c),
(86,0,l),
(233,0,l),
(539,569,l),
(887,569,l),
(887,0,l),
(1014,0,l),
(1014,1374,l)
);
},
{
closed = 1;
nodes = (
(887,686,l),
(601,686,ls),
(412,686,o),
(313,783,o),
(313,978,cs),
(313,1178,o),
(422,1264,o),
(651,1264,cs),
(887,1264,l)
);
}
);
width = 1200;
}
);
tags = (
upper
);
unicode = 1071;
},
{
glyphname = "Dje-cy";
lastChange = "2025-02-08 14:44:40 +0000";
layers = (
{
anchors = (
{
name = bottom;
pos = (600,-440);
},
{
name = top;
pos = (600,1374);
}
);
layerId = "4B7A3BAF-EAD8-4024-9BEA-BB1DE86CFCFA";
shapes = (
{
closed = 1;
nodes = (
(847,1141,l),
(881,1374,l),
(-16,1374,l),
(-16,1141,l),
(261,1141,l),
(261,0,l),
(568,0,l),
(568,634,l),
(605,669,o),
(653,698,o),
(720,698,cs),
(818,698,o),
(857,652,o),
(857,529,cs),
(857,202,ls),
(857,36,o),
(826,-47,o),
(660,-115,c),
(745,-338,l),
(978,-261,o),
(1163,-132,o),
(1163,196,cs),
(1163,500,ls),
(1163,789,o),
(1039,934,o),
(805,934,cs),
(709,934,o),
(631,899,o),
(568,846,c),
(568,1141,l)
);
}
);
width = 1200;
},
{
anchors = (
{
name = bottom;
pos = (600,-386);
},
{
name = top;
pos = (600,1374);
}
);
layerId = "B67F0F2D-EC95-4CB8-966E-23AE86958A69";
shapes = (
{
closed = 1;
nodes = (
(796,1257,l),
(810,1374,l),
(-7,1374,l),
(-7,1257,l),
(329,1257,l),
(329,0,l),
(463,0,l),
(463,643,l),
(519,693,o),
(602,762,o),
(743,762,cs),
(923,762,o),
(989,675,o),
(989,465,cs),
(989,187,ls),
(989,4,o),
(946,-65,o),
(768,-136,c),
(799,-250,l),
(1013,-178,o),
(1124,-74,o),
(1124,189,cs),
(1124,490,ls),
(1124,747,o),
(1011,887,o),
(769,887,cs),
(641,887,o),
(539,827,o),
(463,759,c),
(463,1257,l)
);
}
);
width = 1200;
}
);
tags = (
upper
);
unicode = 1026;
},
{
glyphname = "Omega-cy";
lastChange = "2025-02-08 14:44:40 +0000";
layers = (
{
layerId = "4B7A3BAF-EAD8-4024-9BEA-BB1DE86CFCFA";
shapes = (
{
closed = 1;
nodes = (
(766,1374,l),
(819,1158,o),
(881,963,o),
(881,607,cs),
(881,313,o),
(842,210,o),
(783,210,cs),
(740,210,o),
(721,245,o),
(721,318,cs),
(721,791,l),
(477,791,l),
(477,317,ls),
(477,243,o),
(452,210,o),
(417,210,cs),
(356,210,o),
(319,313,o),
(319,607,cs),
(319,965,o),
(385,1158,o),
(434,1374,c),
(170,1374,l),
(96,1171,o),
(22,972,o),
(22,603,cs),
(22,164,o),
(175,-40,o),
(381,-40,cs),
(494,-40,o),
(560,32,o),
(598,149,c),
(630,33,o),
(679,-40,o),
(825,-40,cs),
(1019,-40,o),
(1178,164,o),
(1178,603,cs),
(1178,976,o),
(1100,1183,o),
(1028,1374,c)
);
}
);
width = 1200;
},
{
layerId = "B67F0F2D-EC95-4CB8-966E-23AE86958A69";
shapes = (
{
closed = 1;
nodes = (
(885,1374,l),
(972,1151,o),
(1034,917,o),
(1034,595,cs),
(1034,160,o),
(944,94,o),
(840,94,cs),
(754,94,o),
(676,162,o),
(676,346,cs),
(676,795,l),
(528,795,l),
(528,343,ls),
(528,154,o),
(458,94,o),
(381,94,cs),
(257,94,o),
(169,218,o),
(169,600,cs),
(169,916,o),
(221,1148,o),
(318,1374,c),
(179,1374,l),
(136,1253,o),
(36,988,o),
(36,594,cs),
(36,120,o),
(209,-17,o),
(353,-17,cs),
(491,-17,o),
(560,58,o),
(604,196,c),
(647,57,o),
(730,-17,o),
(853,-17,cs),
(1044,-17,o),
(1166,134,o),
(1166,594,cs),
(1166,988,o),
(1069,1253,o),
(1025,1374,c)
);
}
);
width = 1200;
}
);
tags = (
upper
);
unicode = 1120;
},
{
glyphname = "Yat-cy";
lastChange = "2025-02-08 14:44:40 +0000";
layers = (
{
anchors = (
{
name = bottom;
pos = (600,0);
},
{
name = top;
pos = (600,1374);
}
);
layerId = "4B7A3BAF-EAD8-4024-9BEA-BB1DE86CFCFA";
shapes = (
{
closed = 1;
nodes = (
(656,0,ls),
(953,0,o),
(1175,150,o),
(1175,456,cs),
(1175,739,o),
(957,880,o),
(636,880,cs),
(547,880,l),
(547,647,l),
(624,647,ls),
(755,647,o),
(837,582,o),
(837,453,cs),
(837,307,o),
(752,239,o),
(636,239,cs),
(579,239,l),
(579,1374,l),
(252,1374,l),
(252,0,l)
);
},
{
closed = 1;
nodes = (
(825,1030,l),
(825,1219,l),
(252,1219,l),
(20,1219,l),
(20,1030,l)
);
}
);
width = 1200;
},
{
anchors = (
{
name = bottom;
pos = (600,0);
},
{
name = top;
pos = (600,1374);
}
);
layerId = "B67F0F2D-EC95-4CB8-966E-23AE86958A69";
shapes = (
{
closed = 1;
nodes = (
(583,0,ls),
(902,0,o),
(1124,123,o),
(1124,437,cs),
(1124,714,o),
(926,848,o),
(622,848,cs),
(420,848,l),
(420,738,l),
(630,738,ls),
(846,738,o),
(984,664,o),
(984,432,cs),
(984,175,o),
(828,112,o),
(616,112,cs),
(452,112,l),
(452,1374,l),
(325,1374,l),
(325,0,l)
);
},
{
closed = 1;
nodes = (
(777,1067,l),
(777,1178,l),
(325,1178,l),
(20,1178,l),
(20,1067,l)
);
}
);
width = 1200;
}
);
tags = (
upper
);
unicode = 1122;
},
{
glyphname = "Eiotified-cy";
lastChange = "2025-02-08 14:44:40 +0000";
layers = (
{
anchors = (
{
name = bottom;
pos = (600,0);
},
{
name = top;
pos = (600,1374);
}
);
layerId = "4B7A3BAF-EAD8-4024-9BEA-BB1DE86CFCFA";
shapes = (
{
closed = 1;
nodes = (
(43,1380,l),
(43,0,l),
(353,0,l),
(353,579,l),
(552,579,l),
(552,821,l),
(353,821,l),
(353,1380,l)
);
},
{
closed = 1;
nodes = (
(1126,228,l),
(1076,204,o),
(1024,194,o),
(970,194,cs),
(819,194,o),
(759,319,o),
(757,587,c),
(1071,587,l),
(1071,819,l),
(757,819,l),
(764,1069,o),
(831,1187,o),
(974,1187,cs),
(1015,1187,o),
(1067,1176,o),
(1113,1154,c),
(1213,1346,l),
(1142,1388,o),
(1065,1409,o),
(970,1409,cs),
(621,1409,o),
(443,1150,o),
(443,690,cs),
(443,218,o),
(604,-34,o),
(945,-34,cs),
(1047,-34,o),
(1138,-8,o),
(1215,38,c)
);
}
);
width = 1200;
},
{
anchors = (
{
name = bottom;
pos = (600,0);
},
{
name = top;
pos = (600,1374);
}
);
layerId = "B67F0F2D-EC95-4CB8-966E-23AE86958A69";
shapes = (
{
closed = 1;
nodes = (
(91,1372,l),
(91,0,l),
(226,0,l),
(226,650,l),
(456,650,l),
(456,773,l),
(226,773,l),
(226,1372,l)
);
},
{
closed = 1;
nodes = (
(1103,178,l),
(1049,145,o),
(991,104,o),
(877,104,cs),
(684,104,o),
(539,259,o),
(517,647,c),
(1023,647,l),
(1023,768,l),
(523,768,l),
(558,1147,o),
(701,1274,o),
(887,1274,cs),
(979,1274,o),
(1022,1255,o),
(1085,1216,c),
(1165,1306,l),
(1086,1363,o),
(1019,1393,o),
(883,1393,cs),
(593,1393,o),
(381,1151,o),
(381,687,cs),
(381,229,o),
(584,-20,o),
(877,-20,cs),
(1034,-20,o),
(1111,27,o),
(1181,84,c)
);
}
);
width = 1200;
}
);
tags = (
upper
);
unicode = 1124;
},
{
glyphname = "Yuslittle-cy";
lastChange = "2025-02-08 14:44:40 +0000";
layers = (
{
anchors = (
{
name = bottom;
pos = (600,0);
},
{
name = top;
pos = (600,1374);
}
);
layerId = "4B7A3BAF-EAD8-4024-9BEA-BB1DE86CFCFA";
shapes = (
{
closed = 1;
nodes = (
(282,0,l),
(596,1197,l),
(912,0,l),
(1224,0,l),
(800,1374,l),
(402,1374,l),
(-22,0,l)
);
},
{
closed = 1;
nodes = (
(721,-2,l),
(721,517,l),
(481,517,l),
(481,-2,l)
);
},
{
closed = 1;
nodes = (
(799,482,l),
(741,708,l),
(457,708,l),
(399,482,l)
);
}
);
width = 1200;
},
{
anchors = (
{
name = bottom;
pos = (600,0);
},
{
name = top;
pos = (600,1374);
}
);
layerId = "B67F0F2D-EC95-4CB8-966E-23AE86958A69";
shapes = (
{
closed = 1;
nodes = (
(200,0,l),
(596,1228,l),
(991,0,l),
(1140,0,l),
(684,1374,l),
(515,1374,l),
(60,0,l)
);
},
{
closed = 1;
nodes = (
(664,1,l),
(664,653,l),
(523,653,l),
(523,1,l)
);
},
{
closed = 1;
nodes = (
(929,607,l),
(888,731,l),
(304,731,l),
(264,607,l)
);
}
);
width = 1200;
}
);
tags = (
upper
);
unicode = 1126;
},
{
glyphname = "Yuslittleiotified-cy";
lastChange = "2025-02-08 14:44:40 +0000";
layers = (
{
anchors = (
{
name = bottom;
pos = (600,0);
},
{
name = top;
pos = (600,1374);
}
);
layerId = "4B7A3BAF-EAD8-4024-9BEA-BB1DE86CFCFA";
shapes = (
{
closed = 1;
nodes = (
(659,708,l),
(254,708,l),
(254,1374,l),
(2,1374,l),
(2,-4,l),
(254,-4,l),
(254,521,l),
(608,521,l)
);
},
{
closed = 1;
nodes = (
(529,0,l),
(762,1227,l),
(997,0,l),
(1251,0,l),
(965,1374,l),
(568,1374,l),
(283,0,l)
);
},
{
closed = 1;
nodes = (
(863,-2,l),
(863,542,l),
(662,542,l),
(662,-2,l)
);
},
{
closed = 1;
nodes = (
(964,521,l),
(907,708,l),
(623,708,l),
(565,521,l)
);
}
);
width = 1200;
},
{
anchors = (
{
name = bottom;
pos = (600,0);
},
{
name = top;
pos = (600,1374);
}
);
layerId = "B67F0F2D-EC95-4CB8-966E-23AE86958A69";
shapes = (
{
closed = 1;
nodes = (
(402,723,l),
(242,723,l),
(242,1374,l),
(95,1374,l),
(95,2,l),
(242,2,l),
(242,598,l),
(425,598,l)
);
},
{
closed = 1;
nodes = (
(464,0,l),
(750,1244,l),
(1036,0,l),
(1183,0,l),
(838,1374,l),
(670,1374,l),
(325,0,l)
);
},
{
closed = 1;
nodes = (
(815,1,l),
(815,641,l),
(685,641,l),
(685,1,l)
);
},
{
closed = 1;
nodes = (
(1083,598,l),
(1042,723,l),
(459,723,l),
(418,598,l)
);
}
);
width = 1200;
}
);
tags = (
upper
);
unicode = 1128;
},
{
glyphname = "Yusbig-cy";
lastChange = "2025-02-08 14:44:40 +0000";
layers = (
{
anchors = (
{
name = bottom;
pos = (600,0);
},
{
name = top;
pos = (600,1374);
}
);
layerId = "4B7A3BAF-EAD8-4024-9BEA-BB1DE86CFCFA";
shapes = (
{
closed = 1;
nodes = (
(265,0,l),
(416,615,l),
(475,615,l),
(475,0,l),
(725,0,l),
(725,615,l),
(781,615,l),
(931,0,l),
(1194,0,l),
(963,797,l),
(230,797,l),
(6,0,l)
);
},
{
closed = 1;
nodes = (
(743,654,l),
(1051,1196,l),
(1051,1374,l),
(881,1374,l),
(598,797,l),
(302,1374,l),
(133,1374,l),
(133,1196,l),
(449,652,l)
);
},
{
closed = 1;
nodes = (
(986,1190,l),
(986,1374,l),
(295,1374,l),
(248,1190,l)
);
}
);
width = 1200;
},
{
anchors = (
{
name = bottom;
pos = (600,0);
},
{
name = top;
pos = (600,1374);
}
);
layerId = "B67F0F2D-EC95-4CB8-966E-23AE86958A69";
shapes = (
{
closed = 1;
nodes = (
(229,0,l),
(399,623,l),
(529,623,l),
(529,0,l),
(674,0,l),
(674,623,l),
(806,623,l),
(973,0,l),
(1104,0,l),
(903,743,l),
(320,743,l),
(96,0,l)
);
},
{
closed = 1;
nodes = (
(686,646,l),
(1017,1278,l),
(1017,1374,l),
(923,1374,l),
(610,743,l),
(305,1374,l),
(201,1374,l),
(201,1278,l),
(514,646,l)
);
},
{
closed = 1;
nodes = (
(974,1266,l),
(974,1374,l),
(230,1374,l),
(251,1266,l)
);
}
);
width = 1200;
}
);
tags = (
upper
);
unicode = 1130;
},
{
glyphname = "Yusbigiotified-cy";
lastChange = "2025-02-08 14:44:40 +0000";
layers = (
{
anchors = (
{
name = bottom;
pos = (600,0);
},
{
name = top;
pos = (600,1374);
}
);
layerId = "4B7A3BAF-EAD8-4024-9BEA-BB1DE86CFCFA";
shapes = (
{
closed = 1;
nodes = (
(263,-4,l),
(263,615,l),
(470,615,l),
(520,797,l),
(263,797,l),
(263,1374,l),
(11,1374,l),
(11,-4,l)
);
},
{
closed = 1;
nodes = (
(553,0,l),
(605,615,l),
(656,615,l),
(656,0,l),
(879,0,l),
(879,615,l),
(930,615,l),
(983,0,l),
(1227,0,l),
(1112,797,l),
(420,797,l),
(313,0,l)
);
},
{
closed = 1;
nodes = (
(914,654,l),
(1148,1200,l),
(1148,1374,l),
(985,1374,l),
(768,797,l),
(539,1374,l),
(376,1374,l),
(376,1200,l),
(617,652,l)
);
},
{
closed = 1;
nodes = (
(1077,1200,l),
(1077,1374,l),
(532,1374,l),
(497,1200,l)
);
}
);
width = 1200;
},
{
anchors = (
{
name = bottom;
pos = (600,0);
},
{
name = top;
pos = (600,1374);
}
);
layerId = "B67F0F2D-EC95-4CB8-966E-23AE86958A69";
shapes = (
{
closed = 1;
nodes = (
(192,2,l),
(192,623,l),
(848,623,l),
(825,743,l),
(192,743,l),
(192,1374,l),
(45,1374,l),
(45,2,l)
);
},
{
closed = 1;
nodes = (
(389,0,l),
(574,623,l),
(679,623,l),
(679,0,l),
(837,0,l),
(837,623,l),
(942,623,l),
(1124,0,l),
(1263,0,l),
(1039,743,l),
(496,743,l),
(248,0,l)
);
},
{
closed = 1;
nodes = (
(841,646,l),
(1148,1276,l),
(1148,1374,l),
(1050,1374,l),
(765,743,l),
(488,1374,l),
(382,1374,l),
(382,1276,l),
(671,646,l)
);
},
{
closed = 1;
nodes = (
(1108,1262,l),
(1108,1374,l),
(413,1374,l),
(429,1262,l)
);
}
);
width = 1200;
}
);
tags = (
upper
);
unicode = 1132;
},
{
glyphname = "Izhitsa-cy";
lastChange = "2025-02-08 14:44:40 +0000";
layers = (
{
anchors = (
{
name = bottom;
pos = (600,0);
},
{
name = top;
pos = (596,1374);
}
);
layerId = "4B7A3BAF-EAD8-4024-9BEA-BB1DE86CFCFA";
shapes = (
{
closed = 1;
nodes = (
(1196,1398,l),
(1167,1406,o),
(1118,1413,o),
(1063,1413,cs),
(890,1413,o),
(786,1342,o),
(746,1134,cs),
(576,250,l),
(367,1374,l),
(19,1374,l),
(367,0,l),
(775,0,l),
(1061,1118,ls),
(1071,1157,o),
(1088,1172,o),
(1122,1172,cs),
(1135,1172,o),
(1145,1170,o),
(1153,1168,c)
);
}
);
width = 1200;
},
{
anchors = (
{
name = bottom;
pos = (600,0);
},
{
name = top;
pos = (573,1374);
}
);
layerId = "B67F0F2D-EC95-4CB8-966E-23AE86958A69";
shapes = (
{
closed = 1;
nodes = (
(1184,1349,l),
(1138,1375,o),
(1096,1391,o),
(1038,1391,cs),
(928,1391,o),
(868,1329,o),
(828,1193,cs),
(553,186,l),
(206,1374,l),
(67,1374,l),
(494,0,l),
(619,0,l),
(934,1165,ls),
(959,1252,o),
(988,1292,o),
(1046,1292,cs),
(1075,1292,o),
(1097,1284,o),
(1125,1273,c)
);
}
);
width = 1200;
}
);
tags = (
upper
);
unicode = 1140;
},
{
glyphname = "Uk-cy";
lastChange = "2025-02-08 14:44:40 +0000";
layers = (
{
layerId = "4B7A3BAF-EAD8-4024-9BEA-BB1DE86CFCFA";
shapes = (
{
closed = 1;
nodes = (
(533,-34,o),
(626,252,o),
(626,688,cs),
(626,1134,o),
(533,1409,o),
(305,1409,cs),
(90,1409,o),
(-19,1124,o),
(-19,688,cs),
(-19,242,o),
(90,-34,o),
(305,-34,cs)
);
},
{
closed = 1;
nodes = (
(234,166,o),
(201,311,o),
(201,688,cs),
(201,1065,o),
(231,1210,o),
(305,1210,cs),
(376,1210,o),
(408,1064,o),
(408,688,cs),
(408,315,o),
(378,166,o),
(305,166,cs)
);
},
{
closed = 1;
nodes = (
(849,-404,o),
(996,-291,o),
(1038,0,cs),
(1190,1053,l),
(997,1053,l),
(906,202,l),
(825,1053,l),
(627,1053,l),
(767,0,l),
(867,0,l),
(839,-174,o),
(771,-245,o),
(647,-297,c),
(692,-442,l)
);
}
);
width = 1200;
},
{
layerId = "B67F0F2D-EC95-4CB8-966E-23AE86958A69";
shapes = (
{
closed = 1;
nodes = (
(564,-20,o),
(643,231,o),
(643,685,cs),
(643,1132,o),
(564,1393,o),
(336,1393,cs),
(102,1393,o),
(29,1122,o),
(29,682,cs),
(29,235,o),
(102,-20,o),
(336,-20,cs)
);
},
{
closed = 1;
nodes = (
(211,93,o),
(173,274,o),
(173,682,cs),
(173,1091,o),
(203,1281,o),
(336,1281,cs),
(469,1281,o),
(498,1094,o),
(498,685,cs),
(498,275,o),
(468,93,o),
(336,93,cs)
);
},
{
closed = 1;
nodes = (
(881,-362,o),
(982,-233,o),
(1018,-9,cs),
(1187,1050,l),
(1045,1050,l),
(926,106,l),
(791,1050,l),
(655,1050,l),
(829,0,l),
(892,0,l),
(864,-182,o),
(796,-265,o),
(683,-294,c),
(701,-417,l)
);
}
);
width = 1200;
}
);
tags = (
upper
);
unicode = 1144;
},
{
glyphname = "Kaverticalstroke-cy";
lastChange = "2025-02-08 14:44:40 +0000";
layers = (
{
anchors = (
{
name = bottom;
pos = (600,0);
},
{
name = top;
pos = (600,1374);
}
);
layerId = "4B7A3BAF-EAD8-4024-9BEA-BB1DE86CFCFA";
shapes = (
{
closed = 1;
nodes = (
(582,291,l),
(582,613,l),
(620,613,l),
(863,0,l),
(1207,0,l),
(857,751,l),
(1169,1374,l),
(855,1374,l),
(614,818,l),
(582,818,l),
(582,1136,l),
(472,1136,l),
(472,818,l),
(401,818,l),
(401,1374,l),
(104,1374,l),
(104,0,l),
(401,0,l),
(401,613,l),
(472,613,l),
(472,291,l)
);
}
);
width = 1200;
},
{
anchors = (
{
name = bottom;
pos = (600,0);
},
{
name = top;
pos = (600,1374);
}
);
layerId = "B67F0F2D-EC95-4CB8-966E-23AE86958A69";
shapes = (
{
closed = 1;
nodes = (
(559,303,l),
(559,661,l),
(614,661,l),
(1016,0,l),
(1165,0,l),
(722,721,l),
(1127,1374,l),
(985,1374,l),
(617,789,l),
(559,789,l),
(559,1137,l),
(452,1137,l),
(452,789,l),
(347,789,l),
(347,1374,l),
(214,1374,l),
(214,0,l),
(347,0,l),
(347,661,l),
(452,661,l),
(452,303,l)
);
}
);
width = 1200;
}
);
tags = (
upper
);
unicode = 1180;
},
{
glyphname = "Kastroke-cy";
lastChange = "2025-02-08 14:44:40 +0000";
layers = (
{
layerId = "4B7A3BAF-EAD8-4024-9BEA-BB1DE86CFCFA";
shapes = (
{
closed = 1;
nodes = (
(630,1058,l),
(630,1248,l),
(134,1248,l),
(19,1248,l),
(19,1058,l)
);
},
{
closed = 1;
nodes = (
(849,0,l),
(1207,0,l),
(856,751,l),
(1169,1374,l),
(850,1374,l),
(583,835,l),
(462,835,l),
(462,1374,l),
(134,1374,l),
(134,0,l),
(462,0,l),
(462,597,l),
(587,597,l)
);
}
);
width = 1200;
},
{
layerId = "B67F0F2D-EC95-4CB8-966E-23AE86958A69";
shapes = (
{
closed = 1;
nodes = (
(624,1051,l),
(624,1165,l),
(253,1165,l),
(90,1165,l),
(90,1051,l)
);
},
{
closed = 1;
nodes = (
(990,0,l),
(1156,0,l),
(661,721,l),
(1118,1374,l),
(969,1374,l),
(552,784,l),
(378,784,l),
(378,1374,l),
(250,1374,l),
(250,0,l),
(378,0,l),
(378,665,l),
(548,665,l)
);
}
);
width = 1200;
}
);
tags = (
upper
);
unicode = 1182;
},
{
glyphname = "Kabashkir-cy";
lastChange = "2025-02-08 14:44:40 +0000";
layers = (
{
layerId = "4B7A3BAF-EAD8-4024-9BEA-BB1DE86CFCFA";
shapes = (
{
closed = 1;
nodes = (
(863,0,l),
(1210,0,l),
(860,751,l),
(1174,1374,l),
(863,1374,l),
(603,828,l),
(493,828,l),
(493,1374,l),
(1,1374,l),
(1,1135,l),
(188,1135,l),
(188,0,l),
(493,0,l),
(493,603,l),
(607,603,l)
);
}
);
width = 1200;
},
{
layerId = "B67F0F2D-EC95-4CB8-966E-23AE86958A69";
shapes = (
{
closed = 1;
nodes = (
(1024,0,l),
(1196,0,l),
(691,721,l),
(1157,1374,l),
(1004,1374,l),
(575,787,l),
(425,787,l),
(425,1374,l),
(29,1374,l),
(29,1248,l),
(287,1248,l),
(287,0,l),
(425,0,l),
(425,663,l),
(571,663,l)
);
}
);
width = 1200;
}
);
tags = (
upper
);
unicode = 1184;
},
{
glyphname = "Enghe-cy";
lastChange = "2025-02-08 14:44:40 +0000";
layers = (
{
layerId = "4B7A3BAF-EAD8-4024-9BEA-BB1DE86CFCFA";
shapes = (
{
closed = 1;
nodes = (
(959,1117,l),
(1198,1117,l),
(1237,1374,l),
(634,1374,l)
);
},
{
closed = 1;
nodes = (
(959,0,l),
(959,1374,l),
(631,1374,l),
(631,852,l),
(394,852,l),
(394,1374,l),
(66,1374,l),
(66,0,l),
(394,0,l),
(394,574,l),
(631,574,l),
(631,0,l)
);
}
);
width = 1200;
},
{
layerId = "B67F0F2D-EC95-4CB8-966E-23AE86958A69";
shapes = (
{
closed = 1;
nodes = (
(911,1264,l),
(1189,1264,l),
(1201,1374,l),
(899,1374,l)
);
},
{
closed = 1;
nodes = (
(914,0,l),
(914,1374,l),
(787,1374,l),
(787,776,l),
(284,776,l),
(284,1374,l),
(156,1374,l),
(156,0,l),
(284,0,l),
(284,676,l),
(787,676,l),
(787,0,l)
);
}
);
width = 1200;
}
);
tags = (
upper
);
unicode = 1188;
},
{
glyphname = "Pemiddlehook-cy";
lastChange = "2025-02-08 14:44:40 +0000";
layers = (
{
anchors = (
{
name = bottom;
pos = (600,-440);
},
{
name = top;
pos = (600,1374);
}
);
layerId = "4B7A3BAF-EAD8-4024-9BEA-BB1DE86CFCFA";
shapes = (
{
closed = 1;
nodes = (
(741,0,l),
(741,1374,l),
(46,1374,l),
(46,0,l),
(316,0,l),
(316,1156,l),
(471,1156,l),
(471,0,l)
);
},
{
closed = 1;
nodes = (
(791,913,o),
(716,838,o),
(669,767,c),
(688,607,l),
(726,655,o),
(764,696,o),
(821,696,cs),
(870,696,o),
(897,660,o),
(897,597,cs),
(897,0,l),
(1167,0,l),
(1167,618,ls),
(1167,792,o),
(1074,913,o),
(917,913,cs)
);
},
{
closed = 1;
nodes = (
(1027,-450,o),
(1167,-311,o),
(1167,-90,cs),
(1167,2,l),
(897,2,l),
(897,-110,ls),
(897,-206,o),
(859,-242,o),
(793,-242,cs),
(739,-242,o),
(699,-223,o),
(664,-201,c),
(553,-361,l),
(623,-412,o),
(700,-450,o),
(824,-450,cs)
);
}
);
width = 1200;
},
{
anchors = (
{
name = bottom;
pos = (600,-386);
},
{
name = top;
pos = (600,1374);
}
);
layerId = "B67F0F2D-EC95-4CB8-966E-23AE86958A69";
shapes = (
{
closed = 1;
nodes = (
(681,0,l),
(681,1374,l),
(58,1374,l),
(58,0,l),
(203,0,l),
(203,1238,l),
(536,1238,l),
(536,0,l)
);
},
{
closed = 1;
nodes = (
(766,896,o),
(686,834,o),
(609,725,c),
(595,589,l),
(704,716,o),
(788,763,o),
(886,763,cs),
(986,763,o),
(1047,709,o),
(1047,588,cs),
(1047,0,l),
(1192,0,l),
(1192,578,ls),
(1192,771,o),
(1077,896,o),
(892,896,cs)
);
},
{
closed = 1;
nodes = (
(1072,-414,o),
(1192,-323,o),
(1192,-125,cs),
(1192,2,l),
(1047,2,l),
(1047,-136,ls),
(1047,-240,o),
(1000,-290,o),
(917,-290,cs),
(846,-290,o),
(811,-273,o),
(760,-242,c),
(706,-344,l),
(747,-376,o),
(819,-414,o),
(917,-414,cs)
);
}
);
width = 1200;
}
);
tags = (
upper
);
unicode = 1190;
},
{
glyphname = "Haabkhasian-cy";
lastChange = "2025-02-08 14:44:40 +0000";
layers = (
{
anchors = (
{
name = bottom;
pos = (600,-440);
},
{
name = top;
pos = (600,1374);
}
);
layerId = "4B7A3BAF-EAD8-4024-9BEA-BB1DE86CFCFA";
shapes = (
{
closed = 1;
nodes = (
(613,187,l),
(484,187,o),
(385,323,o),
(385,684,cs),
(385,1033,o),
(483,1174,o),
(620,1174,cs),
(715,1174,o),
(789,1137,o),
(876,1071,c),
(1031,1251,l),
(914,1351,o),
(798,1413,o),
(606,1413,cs),
(283,1413,o),
(45,1154,o),
(45,684,cs),
(45,216,o),
(282,-40,o),
(614,-40,c)
);
},
{
closed = 1;
nodes = (
(1113,-176,l),
(875,150,o),
(764,346,o),
(764,549,cs),
(764,622,o),
(793,662,o),
(844,662,cs),
(891,662,o),
(920,625,o),
(920,553,cs),
(922,296,o),
(821,187,o),
(613,187,c),
(614,-40,l),
(960,-40,o),
(1164,246,o),
(1164,543,cs),
(1164,766,o),
(1011,857,o),
(846,857,cs),
(658,857,o),
(539,744,o),
(539,543,cs),
(539,277,o),
(698,49,o),
(948,-295,c)
);
}
);
width = 1200;
},
{
anchors = (
{
name = bottom;
pos = (600,-386);
},
{
name = top;
pos = (600,1374);
}
);
layerId = "B67F0F2D-EC95-4CB8-966E-23AE86958A69";
shapes = (
{
closed = 1;
nodes = (
(641,112,l),
(388,112,o),
(221,277,o),
(221,690,cs),
(221,1134,o),
(421,1273,o),
(614,1273,cs),
(713,1273,o),
(802,1244,o),
(890,1172,c),
(963,1268,l),
(858,1350,o),
(768,1391,o),
(612,1391,cs),
(343,1391,o),
(79,1152,o),
(79,690,cs),
(79,230,o),
(296,-17,o),
(631,-17,c)
);
},
{
closed = 1;
nodes = (
(1042,-143,l),
(870,89,o),
(668,223,o),
(668,496,cs),
(668,642,o),
(725,737,o),
(841,737,cs),
(951,737,o),
(1004,665,o),
(1004,509,cs),
(1004,268,o),
(875,112,o),
(641,112,c),
(631,-17,l),
(983,-17,o),
(1164,262,o),
(1164,511,cs),
(1164,703,o),
(1062,861,o),
(840,861,cs),
(649,861,o),
(511,695,o),
(511,496,cs),
(511,245,o),
(744,31,o),
(942,-220,c)
);
}
);
width = 1200;
}
);
tags = (
upper
);
unicode = 1192;
},
{
glyphname = "Ustraitstroke-cy";
lastChange = "2025-02-08 14:44:40 +0000";
layers = (
{
layerId = "4B7A3BAF-EAD8-4024-9BEA-BB1DE86CFCFA";
shapes = (
{
closed = 1;
nodes = (
(399,581,l),
(203,581,l),
(203,398,l),
(764,398,l),
(997,398,l),
(997,581,l)
);
},
{
alignment = -1;
ref = Y;
}
);
width = 1200;
},
{
layerId = "B67F0F2D-EC95-4CB8-966E-23AE86958A69";
shapes = (
{
closed = 1;
nodes = (
(467,652,l),
(271,652,l),
(271,533,l),
(665,533,l),
(929,533,l),
(929,652,l)
);
},
{
alignment = -1;
ref = Y;
}
);
width = 1200;
}
);
tags = (
upper
);
unicode = 1200;
},
{
glyphname = "Tetse-cy";
lastChange = "2025-02-08 14:44:40 +0000";
layers = (
{
anchors = (
{
name = bottom;
pos = (600,-440);
},
{
name = top;
pos = (600,1374);
}
);
layerId = "4B7A3BAF-EAD8-4024-9BEA-BB1DE86CFCFA";
shapes = (
{
closed = 1;
nodes = (
(0,1374,l),
(0,1163,l),
(182,1163,l),
(475,1163,l),
(625,1163,l),
(657,1374,l)
);
},
{
closed = 1;
nodes = (
(877,243,l),
(815,0,l),
(880,0,l),
(920,-347,l),
(1132,-347,l),
(1132,243,l)
);
},
{
closed = 1;
nodes = (
(1036,0,l),
(1036,1374,l),
(747,1374,l),
(747,255,l),
(471,255,l),
(471,1315,l),
(182,1315,l),
(182,0,l)
);
}
);
width = 1200;
},
{
anchors = (
{
name = bottom;
pos = (600,-386);
},
{
name = top;
pos = (600,1374);
}
);
layerId = "B67F0F2D-EC95-4CB8-966E-23AE86958A69";
shapes = (
{
closed = 1;
nodes = (
(0,1374,l),
(0,1253,l),
(278,1253,l),
(421,1253,l),
(687,1253,l),
(702,1374,l)
);
},
{
closed = 1;
nodes = (
(942,116,l),
(942,0,l),
(979,0,l),
(1004,-278,l),
(1126,-278,l),
(1126,116,l)
);
},
{
closed = 1;
nodes = (
(1024,0,l),
(1024,1374,l),
(879,1374,l),
(879,111,l),
(423,111,l),
(423,1314,l),
(278,1314,l),
(278,0,l)
);
}
);
width = 1200;
}
);
tags = (
upper
);
unicode = 1204;
},
{
glyphname = "Cheverticalstroke-cy";
lastChange = "2025-02-08 14:44:40 +0000";
layers = (
{
layerId = "4B7A3BAF-EAD8-4024-9BEA-BB1DE86CFCFA";
shapes = (
{
closed = 1;
nodes = (
(518,1100,l),
(518,640,l),
(518,248,l),
(650,248,l),
(650,1100,l)
);
},
{
alignment = -1;
ref = "Che-cy";
}
);
width = 1200;
},
{
layerId = "B67F0F2D-EC95-4CB8-966E-23AE86958A69";
shapes = (
{
closed = 1;
nodes = (
(521,1067,l),
(521,577,l),
(521,236,l),
(633,236,l),
(633,1067,l)
);
},
{
alignment = -1;
ref = "Che-cy";
}
);
width = 1200;
}
);
metricLeft = Che;
metricRight = Che;
tags = (
upper
);
unicode = 1208;
},
{
glyphname = "Shha-cy";
lastChange = "2025-02-08 14:44:40 +0000";
layers = (
{
anchors = (
{
name = bottom;
pos = (600,0);
},
{
name = bottomright;
pos = (1171,0);
},
{
name = top;
pos = (600,1374);
}
);
layerId = "4B7A3BAF-EAD8-4024-9BEA-BB1DE86CFCFA";
shapes = (
{
closed = 1;
nodes = (
(593,934,o),
(489,885,o),
(408,816,c),
(413,601,l),
(459,647,o),
(524,690,o),
(633,690,cs),
(768,690,o),
(823,628,o),
(823,456,cs),
(823,0,l),
(1151,0,l),
(1151,458,ls),
(1151,765,o),
(1006,934,o),
(725,934,cs)
);
},
{
closed = 1;
nodes = (
(104,1374,l),
(104,0,l),
(432,0,l),
(432,1374,l)
);
}
);
width = 1200;
},
{
anchors = (
{
name = bottom;
pos = (600,0);
},
{
name = bottomright;
pos = (1100,0);
},
{
name = top;
pos = (600,1374);
}
);
layerId = "B67F0F2D-EC95-4CB8-966E-23AE86958A69";
shapes = (
{
closed = 1;
nodes = (
(515,887,o),
(394,819,o),
(295,697,c),
(292,551,l),
(402,687,o),
(512,762,o),
(687,762,cs),
(861,762,o),
(953,651,o),
(953,472,cs),
(953,0,l),
(1080,0,l),
(1080,474,ls),
(1080,729,o),
(924,887,o),
(697,887,cs)
);
},
{
closed = 1;
nodes = (
(186,1374,l),
(186,0,l),
(313,0,l),
(313,1374,l)
);
}
);
width = 1200;
}
);
tags = (
upper
);
unicode = 1210;
},
{
glyphname = "Shhadescender-cy";
lastChange = "2025-02-08 14:44:40 +0000";
layers = (
{
layerId = "4B7A3BAF-EAD8-4024-9BEA-BB1DE86CFCFA";
shapes = (
{
closed = 1;
nodes = (
(595,934,o),
(491,886,o),
(408,816,c),
(413,601,l),
(458,647,o),
(523,690,o),
(613,690,cs),
(729,690,o),
(783,628,o),
(783,456,cs),
(783,0,l),
(1111,0,l),
(1111,458,ls),
(1111,765,o),
(967,934,o),
(705,934,cs)
);
},
{
closed = 1;
nodes = (
(104,1374,l),
(104,0,l),
(432,0,l),
(432,1374,l)
);
},
{
alignment = -1;
pos = (426,0);
ref = "descStraight-cy.case";
}
);
width = 1200;
},
{
layerId = "B67F0F2D-EC95-4CB8-966E-23AE86958A69";
shapes = (
{
closed = 1;
nodes = (
(492,887,o),
(377,819,o),
(295,709,c),
(292,551,l),
(385,687,o),
(489,762,o),
(652,762,cs),
(856,762,o),
(947,651,o),
(947,472,cs),
(947,0,l),
(1075,0,l),
(1075,474,ls),
(1075,729,o),
(925,887,o),
(674,887,cs)
);
},
{
closed = 1;
nodes = (
(186,1374,l),
(186,0,l),
(313,0,l),
(313,1374,l)
);
},
{
alignment = -1;
pos = (510,0);
ref = "descStraight-cy.case";
}
);
width = 1200;
}
);
tags = (
upper
);
unicode = 1318;
},
{
glyphname = "Cheabkhasian-cy";
lastChange = "2025-02-08 14:44:40 +0000";
layers = (
{
anchors = (
{
name = bottom;
pos = (600,0);
},
{
name = ogonek;
pos = (941,0);
},
{
name = top;
pos = (600,1374);
}
);
layerId = "4B7A3BAF-EAD8-4024-9BEA-BB1DE86CFCFA";
shapes = (
{
closed = 1;
nodes = (
(1152,1140,o),
(1034,1409,o),
(730,1409,cs),
(436,1409,o),
(278,1149,o),
(278,680,cs),
(278,210,o),
(425,-34,o),
(748,-34,cs),
(878,-34,o),
(997,21,o),
(1095,113,c),
(978,271,l),
(913,226,o),
(848,186,o),
(765,186,cs),
(642,186,o),
(567,285,o),
(565,565,c),
(1142,565,l),
(1148,605,o),
(1152,664,o),
(1152,708,cs)
);
},
{
closed = 1;
nodes = (
(825,1193,o),
(878,1103,o),
(873,777,c),
(565,777,l),
(573,1101,o),
(626,1193,o),
(730,1193,cs)
);
},
{
closed = 1;
nodes = (
(-10,696,o),
(94,573,o),
(284,573,cs),
(388,573,l),
(388,777,l),
(285,777,ls),
(219,777,o),
(191,811,o),
(191,882,cs),
(191,931,o),
(205,967,o),
(217,1001,c),
(47,1068,l),
(15,1012,o),
(-10,954,o),
(-10,866,cs)
);
}
);
width = 1200;
},
{
anchors = (
{
name = bottom;
pos = (600,0);
},
{
name = ogonek;
pos = (905,0);
},
{
name = top;
pos = (600,1374);
}
);
layerId = "B67F0F2D-EC95-4CB8-966E-23AE86958A69";
shapes = (
{
closed = 1;
nodes = (
(1129,1176,o),
(950,1393,o),
(718,1393,cs),
(453,1393,o),
(261,1114,o),
(261,666,cs),
(261,206,o),
(464,-20,o),
(739,-20,cs),
(905,-20,o),
(1005,49,o),
(1070,102,c),
(998,190,l),
(935,147,o),
(868,99,o),
(731,99,cs),
(560,99,o),
(411,248,o),
(404,631,c),
(1125,631,l),
(1128,665,o),
(1129,696,o),
(1129,714,cs)
);
},
{
closed = 1;
nodes = (
(876,1277,o),
(980,1124,o),
(1000,749,c),
(404,749,l),
(426,1104,o),
(544,1277,o),
(716,1277,cs)
);
},
{
closed = 1;
nodes = (
(4,725,o),
(91,627,o),
(267,627,cs),
(408,627,l),
(408,749,l),
(246,749,ls),
(177,749,o),
(140,786,o),
(140,850,cs),
(140,900,o),
(160,944,o),
(186,998,c),
(89,1046,l),
(49,993,o),
(4,925,o),
(4,837,cs)
);
}
);
width = 1200;
}
);
tags = (
upper
);
unicode = 1212;
},
{
glyphname = "Kahook-cy";
lastChange = "2025-02-08 14:44:40 +0000";
layers = (
{
anchors = (
{
name = bottom;
pos = (600,-440);
},
{
name = top;
pos = (600,1374);
}
);
layerId = "4B7A3BAF-EAD8-4024-9BEA-BB1DE86CFCFA";
shapes = (
{
closed = 1;
nodes = (
(432,0,l),
(432,577,l),
(731,577,l),
(800,704,l),
(1177,1374,l),
(859,1374,l),
(561,815,l),
(432,815,l),
(432,1374,l),
(104,1374,l),
(104,0,l)
);
},
{
closed = 1;
nodes = (
(1136,0,l),
(1136,402,ls),
(1136,696,o),
(998,815,o),
(721,815,c),
(647,577,l),
(761,577,o),
(808,519,o),
(808,398,cs),
(808,0,l)
);
},
{
alignment = -1;
pos = (346,0);
ref = hookHELPER.case;
}
);
width = 1200;
},
{
anchors = (
{
name = bottom;
pos = (600,-386);
},
{
name = top;
pos = (600,1374);
}
);
layerId = "B67F0F2D-EC95-4CB8-966E-23AE86958A69";
shapes = (
{
closed = 1;
nodes = (
(313,0,l),
(313,637,l),
(584,637,l),
(625,704,l),
(1036,1374,l),
(890,1374,l),
(530,756,l),
(313,756,l),
(313,1374,l),
(186,1374,l),
(186,0,l)
);
},
{
closed = 1;
nodes = (
(1043,0,l),
(1043,322,ls),
(1043,590,o),
(901,756,o),
(555,756,c),
(555,637,l),
(821,637,o),
(916,536,o),
(916,321,cs),
(916,0,l)
);
},
{
alignment = -1;
pos = (541,0);
ref = hookHELPER.case;
}
);
width = 1200;
}
);
tags = (
upper
);
unicode = 1219;
},
{
glyphname = "Eltail-cy";
lastChange = "2025-02-08 14:44:40 +0000";
layers = (
{
layerId = "4B7A3BAF-EAD8-4024-9BEA-BB1DE86CFCFA";
shapes = (
{
closed = 1;
nodes = (
(268,1374,l),
(227,937,ls),
(173,358,o),
(111,273,o),
(-20,176,c),
(108,-40,l),
(386,91,o),
(471,246,o),
(534,912,cs),
(554,1124,l),
(713,1124,l),
(713,0,l),
(1040,0,l),
(1040,1374,l)
);
},
{
alignment = -1;
pos = (710,0);
ref = "descTail-cy.case";
}
);
width = 1200;
},
{
layerId = "B67F0F2D-EC95-4CB8-966E-23AE86958A69";
shapes = (
{
closed = 1;
nodes = (
(370,1374,l),
(281,719,ls),
(207,203,o),
(132,155,o),
(56,86,c),
(117,-17,l),
(267,104,o),
(341,164,o),
(424,792,cs),
(481,1255,l),
(837,1255,l),
(837,0,l),
(964,0,l),
(964,1374,l)
);
},
{
alignment = -1;
pos = (329,0);
ref = "descTail-cy.case";
}
);
width = 1200;
}
);
tags = (
upper
);
unicode = 1221;
},
{
glyphname = "Entail-cy";
lastChange = "2025-02-08 14:44:40 +0000";
layers = (
{
layerId = "4B7A3BAF-EAD8-4024-9BEA-BB1DE86CFCFA";
shapes = (
{
closed = 1;
nodes = (
(1019,0,l),
(1019,1374,l),
(691,1374,l),
(691,852,l),
(413,852,l),
(413,1374,l),
(86,1374,l),
(86,0,l),
(413,0,l),
(413,574,l),
(691,574,l),
(691,0,l)
);
},
{
alignment = -1;
anchor = bottomright;
pos = (688,0);
ref = "descTail-cy.case";
}
);
width = 1200;
},
{
layerId = "B67F0F2D-EC95-4CB8-966E-23AE86958A69";
shapes = (
{
closed = 1;
nodes = (
(959,0,l),
(959,1374,l),
(832,1374,l),
(832,776,l),
(289,776,l),
(289,1374,l),
(162,1374,l),
(162,0,l),
(289,0,l),
(289,676,l),
(832,676,l),
(832,0,l)
);
},
{
alignment = -1;
anchor = bottomright;
pos = (324,0);
ref = "descTail-cy.case";
}
);
width = 1200;
}
);
tags = (
upper
);
unicode = 1225;
},
{
color = 3;
glyphname = "Chekhakassian-cy";
lastChange = "2025-02-08 14:44:40 +0000";
layers = (
{
anchors = (
{
name = bottom;
pos = (600,0);
},
{
name = bottomleft;
pos = (748,0);
},
{
name = bottomright;
pos = (1116,0);
},
{
name = top;
pos = (572,1374);
}
);
layerId = "4B7A3BAF-EAD8-4024-9BEA-BB1DE86CFCFA";
shapes = (
{
closed = 1;
nodes = (
(49,1374,l),
(49,860,ls),
(49,552,o),
(209,391,o),
(481,391,cs),
(609,391,o),
(712,433,o),
(793,500,c),
(786,722,l),
(741,675,o),
(681,634,o),
(571,634,cs),
(434,634,o),
(377,698,o),
(377,871,cs),
(377,1374,l)
);
},
{
closed = 1;
nodes = (
(768,1374,l),
(768,0,l),
(1096,0,l),
(1096,1374,l)
);
},
{
anchor = bottomleft;
pos = (1384,0);
ref = "descStraight-cy.case";
scale = (-1,1);
}
);
width = 1200;
},
{
anchors = (
{
name = bottom;
pos = (600,0);
},
{
name = bottomleft;
pos = (867,0);
},
{
name = bottomright;
pos = (1034,0);
},
{
name = top;
pos = (581,1374);
}
);
layerId = "B67F0F2D-EC95-4CB8-966E-23AE86958A69";
shapes = (
{
closed = 1;
nodes = (
(117,1374,l),
(117,839,ls),
(117,611,o),
(277,452,o),
(509,452,cs),
(680,452,o),
(776,499,o),
(931,619,c),
(905,731,l),
(829,647,o),
(712,577,o),
(537,577,cs),
(355,577,o),
(245,667,o),
(245,855,cs),
(245,1374,l)
);
},
{
closed = 1;
nodes = (
(887,1374,l),
(887,0,l),
(1014,0,l),
(1014,1374,l)
);
},
{
anchor = bottomleft;
pos = (1446,0);
ref = "descStraight-cy.case";
scale = (-1,1);
}
);
width = 1200;
}
);
tags = (
upper
);
unicode = 1227;
},
{
glyphname = "Emtail-cy";
lastChange = "2025-02-08 14:44:40 +0000";
layers = (
{
layerId = "4B7A3BAF-EAD8-4024-9BEA-BB1DE86CFCFA";
shapes = (
{
closed = 1;
nodes = (
(678,1374,l),
(571,487,l),
(457,1374,l),
(120,1374,l),
(42,0,l),
(323,0,l),
(333,581,ls),
(337,802,o),
(329,920,o),
(314,1109,c),
(442,234,l),
(690,234,l),
(809,1109,l),
(794,915,o),
(784,805,o),
(790,586,cs),
(806,0,l),
(1093,0,l),
(1015,1374,l)
);
},
{
closed = 1;
nodes = (
(860,304,l),
(864,0,l),
(910,0,l),
(830,-347,l),
(1062,-347,l),
(1261,304,l)
);
}
);
width = 1200;
},
{
layerId = "B67F0F2D-EC95-4CB8-966E-23AE86958A69";
shapes = (
{
closed = 1;
nodes = (
(754,1374,l),
(546,417,l),
(327,1374,l),
(114,1374,l),
(36,0,l),
(165,0,l),
(209,760,ls),
(219,918,o),
(220,1206,o),
(224,1230,c),
(465,250,l),
(617,250,l),
(845,1230,l),
(850,1216,o),
(854,940,o),
(866,757,cs),
(916,0,l),
(1048,0,l),
(970,1374,l)
);
},
{
closed = 1;
nodes = (
(970,89,l),
(969,0,l),
(1003,0,l),
(938,-278,l),
(1050,-278,l),
(1193,89,l)
);
}
);
width = 1200;
}
);
tags = (
upper
);
unicode = 1229;
},
{
glyphname = "Schwa-cy";
lastChange = "2025-02-08 14:44:40 +0000";
layers = (
{
anchors = (
{
name = bottom;
pos = (600,0);
},
{
name = top;
pos = (584,1376);
}
);
layerId = "4B7A3BAF-EAD8-4024-9BEA-BB1DE86CFCFA";
shapes = (
{
closed = 1;
nodes = (
(39,236,o),
(216,-34,o),
(592,-34,cs),
(943,-34,o),
(1153,227,o),
(1153,696,cs),
(1153,1166,o),
(949,1409,o),
(584,1409,cs),
(387,1409,o),
(248,1346,o),
(120,1237,c),
(270,1065,l),
(349,1121,o),
(425,1174,o),
(555,1174,cs),
(724,1174,o),
(819,1061,o),
(827,801,c),
(49,801,l),
(43,761,o),
(39,714,o),
(39,668,cs)
);
},
{
closed = 1;
nodes = (
(444,202,o),
(354,303,o),
(350,579,c),
(827,579,l),
(818,305,o),
(734,202,o),
(592,202,cs)
);
}
);
width = 1200;
},
{
anchors = (
{
name = bottom;
pos = (600,0);
},
{
name = top;
pos = (587,1374);
}
);
layerId = "B67F0F2D-EC95-4CB8-966E-23AE86958A69";
shapes = (
{
closed = 1;
nodes = (
(104,198,o),
(303,-20,o),
(595,-20,cs),
(898,-20,o),
(1088,254,o),
(1088,708,cs),
(1088,1164,o),
(913,1393,o),
(587,1393,cs),
(418,1393,o),
(292,1329,o),
(193,1245,c),
(264,1163,l),
(360,1234,o),
(453,1282,o),
(589,1282,cs),
(806,1282,o),
(940,1136,o),
(954,747,c),
(109,747,l),
(105,713,o),
(104,677,o),
(104,660,cs)
);
},
{
closed = 1;
nodes = (
(365,94,o),
(249,243,o),
(231,627,c),
(954,627,l),
(931,262,o),
(807,94,o),
(598,94,cs)
);
}
);
width = 1200;
}
);
tags = (
upper
);
unicode = 1240;
},
{
glyphname = "Dzeabkhasian-cy";
lastChange = "2025-02-08 14:44:40 +0000";
layers = (
{
layerId = "4B7A3BAF-EAD8-4024-9BEA-BB1DE86CFCFA";
shapes = (
{
closed = 1;
nodes = (
(909,-40,o),
(1118,167,o),
(1118,423,cs),
(1118,670,o),
(953,797,o),
(697,797,cs),
(636,797,l),
(325,607,l),
(518,607,ls),
(677,607,o),
(779,565,o),
(779,419,cs),
(779,262,o),
(682,200,o),
(548,200,cs),
(426,200,o),
(339,234,o),
(234,313,c),
(82,139,l),
(195,39,o),
(322,-40,o),
(562,-40,cs)
);
},
{
closed = 1;
nodes = (
(325,607,l),
(570,686,l),
(1045,1139,l),
(1045,1374,l),
(161,1374,l),
(161,1128,l),
(697,1128,l),
(325,779,l)
);
}
);
width = 1200;
},
{
layerId = "B67F0F2D-EC95-4CB8-966E-23AE86958A69";
shapes = (
{
closed = 1;
nodes = (
(855,-17,o),
(1042,148,o),
(1042,406,cs),
(1042,630,o),
(922,798,o),
(559,798,cs),
(447,798,l),
(364,675,l),
(620,675,ls),
(804,675,o),
(909,590,o),
(909,410,cs),
(909,227,o),
(798,101,o),
(571,101,cs),
(406,101,o),
(323,150,o),
(228,212,c),
(158,123,l),
(267,31,o),
(378,-17,o),
(565,-17,cs)
);
},
{
closed = 1;
nodes = (
(364,675,l),
(451,732,l),
(988,1258,l),
(988,1374,l),
(203,1374,l),
(203,1259,l),
(829,1259,l),
(364,792,l)
);
}
);
width = 1200;
}
);
tags = (
upper
);
unicode = 1248;
},
{
glyphname = "Obarred-cy";
lastChange = "2025-02-08 14:44:40 +0000";
layers = (
{
anchors = (
{
name = bottom;
pos = (600,0);
},
{
name = top;
pos = (600,1374);
}
);
layerId = "4B7A3BAF-EAD8-4024-9BEA-BB1DE86CFCFA";
shapes = (
{
closed = 1;
nodes = (
(1155,1133,o),
(963,1409,o),
(600,1409,cs),
(237,1409,o),
(45,1123,o),
(45,688,cs),
(45,242,o),
(237,-34,o),
(600,-34,cs),
(963,-34,o),
(1155,252,o),
(1155,688,cs)
);
},
{
closed = 1;
nodes = (
(450,206,o),
(379,329,o),
(371,597,c),
(829,597,l),
(819,331,o),
(754,206,o),
(600,206,cs)
);
},
{
closed = 1;
nodes = (
(746,1170,o),
(814,1055,o),
(827,797,c),
(371,797,l),
(386,1055,o),
(454,1170,o),
(600,1170,cs)
);
}
);
width = 1200;
},
{
anchors = (
{
name = bottom;
pos = (600,0);
},
{
name = top;
pos = (600,1374);
}
);
layerId = "B67F0F2D-EC95-4CB8-966E-23AE86958A69";
shapes = (
{
closed = 1;
nodes = (
(1093,1104,o),
(927,1393,o),
(600,1393,cs),
(273,1393,o),
(107,1094,o),
(107,682,cs),
(107,264,o),
(273,-20,o),
(600,-20,cs),
(927,-20,o),
(1093,274,o),
(1093,685,cs)
);
},
{
closed = 1;
nodes = (
(363,98,o),
(255,295,o),
(247,645,c),
(950,645,l),
(943,294,o),
(841,98,o),
(600,98,cs)
);
},
{
closed = 1;
nodes = (
(830,1275,o),
(933,1093,o),
(948,758,c),
(250,758,l),
(267,1093,o),
(370,1275,o),
(600,1275,cs)
);
}
);
width = 1200;
}
);
tags = (
upper
);
unicode = 1256;
},
{
color = 3;
glyphname = "Gestrokehook-cy";
lastChange = "2025-02-08 14:44:40 +0000";
layers = (
{
layerId = "4B7A3BAF-EAD8-4024-9BEA-BB1DE86CFCFA";
shapes = (
{
closed = 1;
nodes = (
(388,0,l),
(794,0,l),
(794,243,l),
(388,243,l)
);
},
{
alignment = -1;
pos = (88,0);
ref = "Ghestroke-cy";
},
{
alignment = -1;
pos = (4,0);
ref = hookHELPER.case;
}
);
width = 1200;
},
{
layerId = "B67F0F2D-EC95-4CB8-966E-23AE86958A69";
shapes = (
{
closed = 1;
nodes = (
(469,0,l),
(596,0,l),
(596,116,l),
(469,116,l)
);
},
{
alignment = -1;
pos = (-5,0);
ref = "Ghestroke-cy";
},
{
alignment = -1;
pos = (94,0);
ref = hookHELPER.case;
}
);
width = 1200;
}
);
tags = (
upper
);
unicode = 1274;
},
{
glyphname = "Hahook-cy";
lastChange = "2025-02-08 14:44:40 +0000";
layers = (
{
layerId = "4B7A3BAF-EAD8-4024-9BEA-BB1DE86CFCFA";
shapes = (
{
closed = 1;
nodes = (
(1218,0,l),
(1218,243,l),
(842,243,l),
(842,0,l)
);
},
{
alignment = -1;
pos = (-9,0);
ref = X;
},
{
alignment = -1;
pos = (428,0);
ref = hookHELPER.case;
}
);
width = 1200;
},
{
layerId = "B67F0F2D-EC95-4CB8-966E-23AE86958A69";
shapes = (
{
closed = 1;
nodes = (
(1134,0,l),
(1134,116,l),
(1025,116,l),
(1025,0,l)
);
},
{
alignment = -1;
pos = (-40,0);
ref = X;
},
{
alignment = -1;
pos = (632,0);
ref = hookHELPER.case;
}
);
width = 1200;
}
);
tags = (
upper
);
unicode = 1276;
},
{
glyphname = "Komide-cy";
lastChange = "2025-02-08 14:44:40 +0000";
layers = (
{
anchors = (
{
name = bottom;
pos = (600,0);
},
{
name = top;
pos = (600,1374);
}
);
layerId = "4B7A3BAF-EAD8-4024-9BEA-BB1DE86CFCFA";
shapes = (
{
closed = 1;
nodes = (
(1090,0,l),
(1090,1374,l),
(762,1374,l),
(762,911,l),
(626,911,ls),
(269,911,o),
(47,748,o),
(47,458,cs),
(47,141,o),
(267,0,o),
(602,0,cs)
);
},
{
closed = 1;
nodes = (
(472,239,o),
(385,299,o),
(385,458,cs),
(385,605,o),
(467,679,o),
(637,679,cs),
(762,679,l),
(762,239,l),
(626,239,ls)
);
}
);
width = 1200;
},
{
anchors = (
{
name = bottom;
pos = (600,0);
},
{
name = top;
pos = (600,1374);
}
);
layerId = "B67F0F2D-EC95-4CB8-966E-23AE86958A69";
shapes = (
{
closed = 1;
nodes = (
(988,0,l),
(988,1374,l),
(861,1374,l),
(861,834,l),
(614,834,ls),
(308,834,o),
(112,675,o),
(112,407,cs),
(112,133,o),
(332,0,o),
(608,0,cs)
);
},
{
closed = 1;
nodes = (
(409,112,o),
(253,184,o),
(253,407,cs),
(253,630,o),
(390,724,o),
(606,724,cs),
(861,724,l),
(861,112,l),
(603,112,ls)
);
}
);
width = 1200;
}
);
tags = (
upper
);
unicode = 1280;
},
{
glyphname = "Komidje-cy";
lastChange = "2025-02-08 14:44:40 +0000";
layers = (
{
anchors = (
{
name = bottom;
pos = (600,0);
},
{
name = top;
pos = (600,1374);
}
);
layerId = "4B7A3BAF-EAD8-4024-9BEA-BB1DE86CFCFA";
shapes = (
{
closed = 1;
nodes = (
(483,-30,o),
(554,63,o),
(630,206,c),
(504,260,l),
(467,200,o),
(435,180,o),
(385,180,cs),
(321,180,o),
(270,239,o),
(270,418,cs),
(270,602,o),
(331,676,o),
(441,676,cs),
(535,676,l),
(535,878,l),
(429,878,ls),
(201,878,o),
(20,709,o),
(20,414,cs),
(20,121,o),
(170,-30,o),
(340,-30,cs)
);
},
{
closed = 1;
nodes = (
(751,1009,l),
(751,1374,l),
(503,1374,l),
(503,1009,l)
);
},
{
closed = 1;
nodes = (
(1043,-34,o),
(1166,133,o),
(1166,488,cs),
(1166,595,o),
(1162,675,o),
(1154,752,c),
(904,752,l),
(910,673,o),
(914,589,o),
(914,486,cs),
(914,273,o),
(881,180,o),
(817,180,cs),
(780,180,o),
(751,205,o),
(751,276,cs),
(751,1053,l),
(503,1053,l),
(503,259,l),
(533,77,o),
(637,-34,o),
(807,-34,cs)
);
}
);
width = 1200;
},
{
anchors = (
{
name = bottom;
pos = (600,0);
},
{
name = top;
pos = (600,1374);
}
);
layerId = "B67F0F2D-EC95-4CB8-966E-23AE86958A69";
shapes = (
{
closed = 1;
nodes = (
(458,-27,o),
(562,43,o),
(624,196,c),
(586,323,l),
(521,173,o),
(460,93,o),
(351,93,cs),
(250,93,o),
(168,167,o),
(168,367,cs),
(168,614,o),
(286,728,o),
(466,728,cs),
(592,728,l),
(592,843,l),
(474,843,ls),
(156,843,o),
(17,664,o),
(17,369,cs),
(17,102,o),
(164,-27,o),
(326,-27,cs)
);
},
{
closed = 1;
nodes = (
(723,972,l),
(723,1374,l),
(571,1374,l),
(571,972,l)
);
},
{
closed = 1;
nodes = (
(1018,-25,o),
(1172,125,o),
(1172,504,cs),
(1172,594,o),
(1168,674,o),
(1163,752,c),
(1012,752,l),
(1018,666,o),
(1022,594,o),
(1022,499,cs),
(1022,178,o),
(938,93,o),
(851,93,cs),
(766,93,o),
(723,173,o),
(723,318,cs),
(723,1045,l),
(571,1045,l),
(571,279,l),
(587,84,o),
(694,-25,o),
(849,-25,cs)
);
}
);
width = 1200;
}
);
tags = (
upper
);
unicode = 1282;
},
{
glyphname = "Komizje-cy";
lastChange = "2025-02-08 14:44:40 +0000";
layers = (
{
anchors = (
{
name = bottom;
pos = (600,0);
},
{
name = top;
pos = (600,1374);
}
);
layerId = "4B7A3BAF-EAD8-4024-9BEA-BB1DE86CFCFA";
shapes = (
{
closed = 1;
nodes = (
(1021,-34,o),
(1168,133,o),
(1168,508,cs),
(1168,594,o),
(1164,674,o),
(1156,751,c),
(853,751,l),
(859,672,o),
(863,589,o),
(863,506,cs),
(863,285,o),
(828,211,o),
(761,211,cs),
(720,211,o),
(693,229,o),
(664,288,cs),
(508,607,l),
(206,552,l),
(358,231,ls),
(440,58,o),
(555,-34,o),
(763,-34,cs)
);
},
{
closed = 1;
nodes = (
(228,524,l),
(472,568,l),
(644,627,o),
(779,748,o),
(779,956,cs),
(779,1241,o),
(588,1374,o),
(211,1374,cs),
(32,1374,l),
(32,1149,l),
(211,1149,ls),
(364,1149,o),
(443,1092,o),
(443,956,cs),
(443,807,o),
(365,745,o),
(225,745,cs),
(73,745,l),
(73,524,l)
);
}
);
width = 1200;
},
{
anchors = (
{
name = bottom;
pos = (600,0);
},
{
name = top;
pos = (600,1374);
}
);
layerId = "B67F0F2D-EC95-4CB8-966E-23AE86958A69";
shapes = (
{
closed = 1;
nodes = (
(993,-20,o),
(1145,131,o),
(1145,509,cs),
(1145,600,o),
(1141,683,o),
(1136,761,c),
(1003,761,l),
(1009,675,o),
(1013,600,o),
(1013,510,cs),
(1013,178,o),
(918,84,o),
(803,84,cs),
(700,84,o),
(642,146,o),
(571,304,cs),
(424,644,l),
(279,637,l),
(457,261,ls),
(545,70,o),
(640,-20,o),
(802,-20,cs)
);
},
{
closed = 1;
nodes = (
(312,609,l),
(277,601,l),
(601,641,o),
(743,760,o),
(743,999,cs),
(743,1240,o),
(568,1374,o),
(239,1374,cs),
(55,1374,l),
(55,1262,l),
(236,1262,ls),
(495,1262,o),
(601,1186,o),
(601,999,cs),
(601,797,o),
(476,720,o),
(261,720,cs),
(121,720,l),
(121,609,l)
);
}
);
width = 1200;
}
);
tags = (
upper
);
unicode = 1284;
},
{
glyphname = "Komidzje-cy";
lastChange = "2025-02-08 14:44:40 +0000";
layers = (
{
anchors = (
{
name = bottom;
pos = (600,-440);
},
{
name = top;
pos = (600,1374);
}
);
layerId = "4B7A3BAF-EAD8-4024-9BEA-BB1DE86CFCFA";
shapes = (
{
closed = 1;
nodes = (
(115,1144,l),
(453,1144,ls),
(607,1144,o),
(686,1087,o),
(686,956,cs),
(686,811,o),
(608,749,o),
(467,749,cs),
(175,749,l),
(175,524,l),
(438,524,l),
(738,0,l),
(1109,0,l),
(746,579,l),
(901,640,o),
(1024,759,o),
(1024,956,cs),
(1024,1241,o),
(830,1374,o),
(453,1374,cs),
(115,1374,l)
);
},
{
alignment = -1;
pos = (349,0);
ref = "descStraight-cy.case";
}
);
width = 1200;
},
{
anchors = (
{
name = bottom;
pos = (600,-386);
},
{
name = top;
pos = (600,1374);
}
);
layerId = "B67F0F2D-EC95-4CB8-966E-23AE86958A69";
shapes = (
{
closed = 1;
nodes = (
(154,1264,l),
(524,1264,ls),
(754,1264,o),
(861,1188,o),
(861,999,cs),
(861,795,o),
(736,719,o),
(521,719,cs),
(211,719,l),
(211,609,l),
(511,609,l),
(910,0,l),
(1070,0,l),
(647,619,l),
(847,660,o),
(1001,789,o),
(1001,999,cs),
(1001,1243,o),
(827,1374,o),
(498,1374,cs),
(154,1374,l)
);
},
{
alignment = -1;
pos = (414,0);
ref = "descStraight-cy.case";
}
);
width = 1200;
}
);
tags = (
upper
);
unicode = 1286;
},
{
glyphname = "Komilje-cy";
lastChange = "2025-02-08 14:44:40 +0000";
layers = (
{
anchors = (
{
name = bottom;
pos = (600,0);
},
{
name = top;
pos = (600,1374);
}
);
layerId = "4B7A3BAF-EAD8-4024-9BEA-BB1DE86CFCFA";
shapes = (
{
closed = 1;
nodes = (
(1073,-34,o),
(1195,133,o),
(1195,488,cs),
(1195,595,o),
(1191,675,o),
(1183,752,c),
(934,752,l),
(940,673,o),
(944,589,o),
(944,486,cs),
(944,273,o),
(910,180,o),
(846,180,cs),
(809,180,o),
(781,205,o),
(781,276,cs),
(781,1053,l),
(531,1053,l),
(531,295,ls),
(531,77,o),
(666,-34,o),
(836,-34,cs)
);
},
{
closed = 1;
nodes = (
(312,98,o),
(375,231,o),
(407,827,cs),
(425,1161,l),
(531,1161,l),
(531,853,l),
(781,853,l),
(781,1374,l),
(196,1374,l),
(168,904,ls),
(134,337,o),
(90,231,o),
(-9,149,c),
(106,-40,l)
);
}
);
width = 1200;
},
{
anchors = (
{
name = bottom;
pos = (600,0);
},
{
name = top;
pos = (600,1374);
}
);
layerId = "B67F0F2D-EC95-4CB8-966E-23AE86958A69";
shapes = (
{
closed = 1;
nodes = (
(1013,-25,o),
(1167,125,o),
(1167,504,cs),
(1167,594,o),
(1163,674,o),
(1158,752,c),
(1007,752,l),
(1013,666,o),
(1017,594,o),
(1017,499,cs),
(1017,178,o),
(933,93,o),
(846,93,cs),
(761,93,o),
(719,173,o),
(719,318,cs),
(719,1045,l),
(567,1045,l),
(567,321,ls),
(567,84,o),
(689,-25,o),
(845,-25,cs)
);
},
{
closed = 1;
nodes = (
(208,98,o),
(269,161,o),
(313,712,cs),
(354,1251,l),
(567,1251,l),
(567,611,l),
(719,611,l),
(719,1374,l),
(213,1374,l),
(159,737,ls),
(114,209,o),
(78,156,o),
(16,84,c),
(112,-17,l)
);
}
);
width = 1200;
}
);
tags = (
upper
);
unicode = 1288;
},
{
glyphname = "Kominje-cy";
lastChange = "2025-02-08 14:44:40 +0000";
layers = (
{
anchors = (
{
name = bottom;
pos = (600,0);
},
{
name = top;
pos = (600,1374);
}
);
layerId = "4B7A3BAF-EAD8-4024-9BEA-BB1DE86CFCFA";
shapes = (
{
closed = 1;
nodes = (
(756,524,l),
(756,1374,l),
(490,1374,l),
(490,807,l),
(326,807,l),
(326,1374,l),
(61,1374,l),
(61,0,l),
(326,0,l),
(326,574,l),
(490,574,l),
(490,524,l)
);
},
{
closed = 1;
nodes = (
(1061,-34,o),
(1184,133,o),
(1184,488,cs),
(1184,595,o),
(1180,675,o),
(1172,752,c),
(908,752,l),
(914,673,o),
(918,589,o),
(918,486,cs),
(918,273,o),
(885,180,o),
(821,180,cs),
(784,180,o),
(756,205,o),
(756,276,cs),
(756,1053,l),
(490,1053,l),
(490,295,ls),
(490,77,o),
(642,-34,o),
(811,-34,cs)
);
}
);
width = 1200;
},
{
anchors = (
{
name = bottom;
pos = (600,0);
},
{
name = top;
pos = (600,1374);
}
);
layerId = "B67F0F2D-EC95-4CB8-966E-23AE86958A69";
shapes = (
{
closed = 1;
nodes = (
(736,583,l),
(736,1374,l),
(592,1374,l),
(592,794,l),
(253,794,l),
(253,1374,l),
(109,1374,l),
(109,0,l),
(253,0,l),
(253,676,l),
(592,676,l),
(592,583,l)
);
},
{
closed = 1;
nodes = (
(1025,-25,o),
(1178,125,o),
(1178,504,cs),
(1178,594,o),
(1174,674,o),
(1169,752,c),
(1024,752,l),
(1030,666,o),
(1034,594,o),
(1034,499,cs),
(1034,178,o),
(950,93,o),
(863,93,cs),
(778,93,o),
(736,173,o),
(736,318,cs),
(736,1045,l),
(592,1045,l),
(592,321,ls),
(592,84,o),
(706,-25,o),
(862,-25,cs)
);
}
);
width = 1200;
}
);
tags = (
upper
);
unicode = 1290;
},
{
glyphname = "Komitje-cy";
lastChange = "2025-02-08 14:44:40 +0000";
layers = (
{
anchors = (
{
name = bottom;
pos = (600,0);
},
{
name = top;
pos = (600,1374);
}
);
layerId = "4B7A3BAF-EAD8-4024-9BEA-BB1DE86CFCFA";
shapes = (
{
closed = 1;
nodes = (
(661,720,l),
(661,1129,l),
(973,1129,l),
(1007,1374,l),
(24,1374,l),
(24,1129,l),
(333,1129,l),
(333,720,l)
);
},
{
closed = 1;
nodes = (
(982,-34,o),
(1159,133,o),
(1159,488,cs),
(1159,594,o),
(1155,674,o),
(1147,751,c),
(837,751,l),
(843,672,o),
(847,588,o),
(847,486,cs),
(847,294,o),
(815,200,o),
(734,200,cs),
(690,200,o),
(661,226,o),
(661,296,cs),
(661,720,l),
(335,720,l),
(335,378,ls),
(335,97,o),
(505,-34,o),
(724,-34,cs)
);
}
);
width = 1200;
},
{
anchors = (
{
name = bottom;
pos = (600,0);
},
{
name = top;
pos = (600,1374);
}
);
layerId = "B67F0F2D-EC95-4CB8-966E-23AE86958A69";
shapes = (
{
closed = 1;
nodes = (
(531,544,l),
(531,1250,l),
(945,1250,l),
(959,1374,l),
(33,1374,l),
(33,1250,l),
(404,1250,l),
(404,544,l)
);
},
{
closed = 1;
nodes = (
(889,-20,o),
(1128,131,o),
(1128,518,cs),
(1128,600,o),
(1124,680,o),
(1119,758,c),
(990,758,l),
(996,672,o),
(1000,600,o),
(1000,519,cs),
(1000,175,o),
(854,90,o),
(720,90,cs),
(600,90,o),
(531,179,o),
(531,390,cs),
(531,544,l),
(403,544,l),
(403,330,ls),
(403,101,o),
(547,-20,o),
(712,-20,cs)
);
}
);
width = 1200;
}
);
tags = (
upper
);
unicode = 1294;
},
